<?xml version="1.0" encoding="UTF-8" standalone="no"?>
<!-- Created with Inkscape (http://www.inkscape.org/) -->

<svg
   xmlns:dc="http://purl.org/dc/elements/1.1/"
   xmlns:cc="http://creativecommons.org/ns#"
   xmlns:rdf="http://www.w3.org/1999/02/22-rdf-syntax-ns#"
   xmlns:svg="http://www.w3.org/2000/svg"
   xmlns="http://www.w3.org/2000/svg"
   xmlns:sodipodi="http://sodipodi.sourceforge.net/DTD/sodipodi-0.dtd"
   xmlns:inkscape="http://www.inkscape.org/namespaces/inkscape"
   width="169.01149mm"
   height="85.543404mm"
   viewBox="0 0 169.01149 85.543404"
   version="1.1"
   id="svg2863"
   sodipodi:docname="angielski.svg"
   inkscape:version="0.92.4 (33fec40, 2019-01-16)">
  <defs
     id="defs2857" />
  <sodipodi:namedview
     id="base"
     pagecolor="#ffffff"
     bordercolor="#666666"
     borderopacity="1.0"
     inkscape:pageopacity="0.0"
     inkscape:pageshadow="2"
     inkscape:zoom="0.98994949"
     inkscape:cx="219.68416"
     inkscape:cy="-53.24239"
     inkscape:document-units="mm"
     inkscape:current-layer="g3545"
     showgrid="false"
     inkscape:window-width="1920"
     inkscape:window-height="1052"
     inkscape:window-x="1920"
     inkscape:window-y="0"
     inkscape:window-maximized="1" />
  <metadata
     id="metadata2860">
    <rdf:RDF>
      <cc:Work
         rdf:about="">
        <dc:format>image/svg+xml</dc:format>
        <dc:type
           rdf:resource="http://purl.org/dc/dcmitype/StillImage" />
      </cc:Work>
    </rdf:RDF>
  </metadata>
  <g
     inkscape:label="Layer 1"
     inkscape:groupmode="layer"
     id="layer1"
     transform="translate(-29.08886,-73.583531)">
    <g
       id="g3545"
       transform="matrix(0.26458333,0,0,0.26458333,52.871262,85.623381)">
      <g
         id="g3432"
         transform="matrix(1.1637946,0,0,1.1637946,-111.2539,-74.450624)"
         style="fill:#f2f2f2">
        <g
           id="g3416"
           style="fill:#f2f2f2;stroke:#000000;stroke-width:5.0999999">
          <path
             id="path3408"
             d="m 62.981,245.84 a 22.57,23.482 0 1 1 -0.37662,-0.65033"
             inkscape:connector-curvature="0"
             style="fill:#f2f2f2" />
          <path
             id="path3410"
             d="m 72.686,250.67 a 18.782,19.541 0 1 1 -0.31341,-0.54118"
             inkscape:connector-curvature="0"
             style="fill:#f2f2f2" />
          <path
             id="path3412"
             d="m 82.775,257.73 a 15.134,15.746 0 1 1 -0.25254,-0.43607"
             inkscape:connector-curvature="0"
             style="fill:#f2f2f2" />
          <path
             id="path3414"
             d="m 92.472,262.83 a 13.785,14.342 0 1 1 -0.23003,-0.39719"
             inkscape:connector-curvature="0"
             style="fill:#f2f2f2" />
        </g>
        <path
           id="path3418"
           d="M 77.322,262.04 C 66.324,252.9 45.644,240.37 34.036,240.93 c -6.209,0.3 -14.766,19.85 -10.166,23.67 9.7375,8.0898 39.13,12.737 53.179,12.064 3.7684,-0.18054 3.6138,-11.85 0.27363,-14.624 z"
           inkscape:connector-curvature="0"
           style="fill:#f2f2f2;fill-rule:evenodd" />
        <g
           id="g3428"
           style="fill:#f2f2f2;stroke:#000000;stroke-width:5.0999999">
          <path
             id="path3420"
             d="m 74.466,244.17 a 19.116,19.888 0 1 1 -0.16579,-0.55287"
             inkscape:connector-curvature="0"
             style="fill:#f2f2f2" />
          <path
             id="path3422"
             d="m 80.859,249.5 a 15.908,16.551 0 1 1 -0.13796,-0.46007"
             inkscape:connector-curvature="0"
             style="fill:#f2f2f2" />
          <path
             id="path3424"
             d="m 87.142,256.57 a 12.818,13.336 0 1 1 -0.11117,-0.3707"
             inkscape:connector-curvature="0"
             style="fill:#f2f2f2" />
          <path
             id="path3426"
             d="m 93.482,262.1 a 11.675,12.147 0 1 1 -0.10126,-0.33768"
             inkscape:connector-curvature="0"
             style="fill:#f2f2f2" />
        </g>
        <path
           id="path3430"
           d="M 82.301,258.82 C 75.708,250.04 62.483,237 53.711,235.35 c -4.6923,-0.88162 -14.561,12.205 -11.804,15.879 5.8375,7.7756 26.973,16.473 37.589,18.468 2.8478,0.53503 4.8067,-8.2113 2.8043,-10.878 z"
           inkscape:connector-curvature="0"
           style="fill:#f2f2f2;fill-rule:evenodd" />
      </g>
      <g
         id="g3492"
         transform="matrix(1.1637946,0,0,1.1637946,-111.2539,-74.450624)"
         style="stroke:#000000">
        <g
           id="g3490"
           style="fill-rule:evenodd">
          <g
             id="g3460"
             style="stroke-width:2.23099995">
            <g
               id="g3438"
               style="fill:#ececec">
              <path
                 id="path3434"
                 d="m 200.82,213.21 c -18.71,-4.025 -46.124,21.865 -55.696,43.513 -9.5728,21.648 -1.3054,39.053 17.405,43.078 18.71,4.0249 47.864,-5.3303 57.437,-26.978 9.5728,-21.648 -0.43514,-55.588 -19.146,-59.612 z"
                 inkscape:connector-curvature="0"
                 style="fill:#ececec" />
              <path
                 id="path3436"
                 d="m 472.81,212.16 c -18.71,-4.0249 -46.123,21.865 -55.696,43.513 -9.5728,21.648 -1.3054,39.053 17.405,43.078 18.71,4.0249 47.864,-5.3303 57.437,-26.978 9.5728,-21.648 -0.43512,-55.588 -19.146,-59.612 z"
                 inkscape:connector-curvature="0"
                 style="fill:#ececec" />
            </g>
            <path
               id="path3440"
               d="m 94.342,270.31 -0.6154,-20.922 5.5383,-3.6922 -3.0768,-11.076 3.6922,-1.8461 0.6154,-20.307 -6.1536,-1.8461 0.6153,-8.6151 6.1536,-3.6922 c 5.4357,-39.794 6.5639,-82.356 20.922,-115.69 l -3.0768,-7.9997 c 40.819,-34.665 133.33,-39.178 209.22,-44.922 170.4,-16.472 227.89,26.05 235.68,45.537 l -22.153,5.5383 -4.3075,16.615 9.8458,79.997 12.923,-1.2307 5.5383,7.9997 -13.538,9.8458 -9.2304,41.229 7.3843,0.6154 -3.6922,32.614 -3.6921,14.769 -48.614,18.153 c -16.512,-16.717 25.435,-52.819 -32.614,-64.305 -21.538,-2.6666 -36.922,27.281 -49.844,54.152 -64.408,4.1024 -133.12,5.128 -198.15,1.8461 0.82048,-10.461 26.691,-42.97 -16.615,-54.152 -47.899,-8.2674 -30.973,31.999 -52.306,44.922 l -53.537,-3.6922 3.0768,-9.8458 z m 469.9,-194.35 c -3.7781,26.55 -3.4924,74.183 -4.6566,99.544"
               inkscape:connector-curvature="0"
               style="fill:#5f67f1;fill-opacity:1" />
            <path
               id="path3442"
               d="m 459.29,246.12 c -4.6883,-1.0085 -11.557,5.4787 -13.956,10.903 -2.3986,5.4243 -0.32709,9.7854 4.3612,10.794 4.68829,1.0086 11.993,-1.3355 14.392,-6.7598 2.3986,-5.4242 -0.10904,-13.928 -4.7973,-14.937 z"
               inkscape:connector-curvature="0" />
            <path
               id="path3444"
               d="m 514.59,273.07 c -0.51276,-48.819 34.973,-11.794 43.998,-25.845 5.7434,-0.30769 3.4871,12.923 -0.92304,20.615 -3.0768,7.8972 -35.076,5.6408 -43.075,5.2306 z"
               inkscape:connector-curvature="0" />
            <path
               id="path3446"
               d="m 560.37,213.68 c 5.128,-7.8972 6.2562,-27.486 0.30768,-35.383 -10.974,-16.615 -17.948,33.537 -15.076,37.537 8.9227,0.82056 6.769,-1.7435 14.769,-2.1537 z"
               inkscape:connector-curvature="0" />
            <g
               id="g3458"
               style="fill:#ffffff">
              <path
                 id="path3448"
                 d="m 200.57,75.393 c -1.641,29.332 -3.2819,58.665 -4.9229,87.997 -21.435,4.7178 -41.332,2.9742 -68.921,6.769 1.4358,-33.845 1.3333,-65.844 12.615,-94.15 20.41,-0.20509 40.819,-0.41023 61.229,-0.61536 z"
                 inkscape:connector-curvature="0" />
              <path
                 id="path3450"
                 d="m 287.95,69.547 c -3.4871,26.871 -4.8203,97.432 -9.8458,94.766 -18.051,1.3333 -45.639,-1.0256 -73.228,0 1.4358,-33.845 3.1794,-62.767 4.3075,-92.92 20.41,-0.20514 58.357,-1.641 78.766,-1.8461 z"
                 inkscape:connector-curvature="0" />
              <path
                 id="path3452"
                 d="m 365.79,68.317 c -1.641,29.332 -1.7435,64.818 -3.3845,94.15 -21.435,4.7178 -46.255,3.5896 -74.151,0 1.4358,-33.845 2.8717,-57.844 6.1537,-91.997 20.41,-0.20508 50.972,-1.9486 71.382,-2.1537 z"
                 inkscape:connector-curvature="0" />
              <path
                 id="path3454"
                 d="m 451.64,67.086 c -1.641,29.332 -2.0512,68.51 -7.692,96.92 -21.435,4.7178 -47.486,0.51279 -74.767,-1.2307 1.4358,-33.845 0.10254,-65.844 3.6922,-96.612 20.41,-0.20514 58.357,1.1282 78.766,0.92306 z"
                 inkscape:connector-curvature="0" />
              <path
                 id="path3456"
                 d="m 525.64,66.712 c 4.8859,31.943 4.1152,63.886 2.4742,93.218 -21.435,8.1988 -44.276,2.8905 -71.865,4.0745 1.4358,-33.845 -2.3589,-68.921 2.4615,-99.073 20.41,-0.20514 46.084,-1.9306 66.929,1.7805 z"
                 inkscape:connector-curvature="0" />
            </g>
          </g>
          <g
             id="g3472"
             style="stroke-width:0.43700001">
            <path
               id="path3462"
               d="m 140.51,167.39 c -4.6413,0.29008 -9.2827,2.1186 -13.924,2.4087 3.7711,-30.749 2.6193,-64.267 11.313,-93.785 20.306,-0.29007 42.458,-0.58018 62.764,-0.87027 -0.2901,6.0918 -2.4262,12.184 -2.7163,18.275 -16.245,-6.1536 -33.105,-6.1536 -48.734,0 -7.8238,24.657 -11.34,47.468 -8.7026,73.972 z"
               inkscape:connector-curvature="0" />
            <path
               id="path3464"
               d="m 210.99,163.46 c -4.6414,0.29008 -0.66763,-0.34282 -5.309,-0.0527 1.6173,-31.057 4.4654,-60.883 3.6213,-91.939 20.306,-0.29007 58.15,-1.1956 78.456,-1.4856 -0.2901,6.0918 -3.3493,23.568 -3.6394,29.66 10.216,-34.153 -47.258,-19.076 -63.503,-19.076 -6.9007,11.119 -10.417,40.084 -9.6256,82.894 z"
               inkscape:connector-curvature="0" />
            <path
               id="path3466"
               d="m 298.6,163 c -4.6414,0.29008 -5.8982,-0.34282 -10.54,-0.0527 3.7711,-30.749 3.2347,-61.498 7.0058,-92.247 20.306,-0.29007 50.458,-1.8109 70.764,-2.101 -0.2901,6.0918 -0.88785,6.0299 -1.178,12.122 -20.552,-9.2305 -52.796,-6.1536 -63.195,0 -6.2854,26.503 -6.1094,57.314 -2.8566,82.279 z"
               inkscape:connector-curvature="0" />
            <path
               id="path3468"
               d="m 380.7,162.61 c -4.6414,0.29007 -7.1071,-1.1604 -11.748,-0.87028 3.7711,-30.749 1.0153,-64.979 4.7864,-95.728 20.306,-0.29008 56.97,1.5762 77.276,1.2861 -0.29007,6.0918 -0.83865,16.119 -1.1287,22.211 0.72522,-22.627 -55.551,-14.794 -71.796,-14.794 -2.9008,24.657 -7.1071,63.238 2.6108,87.896 z"
               inkscape:connector-curvature="0" />
            <path
               id="path3470"
               d="m 470.77,165.22 c -4.6414,0.29008 -9.2827,0.5802 -13.924,0.87027 1.1603,-30.749 -1.1603,-69.765 2.6108,-100.51 20.306,-0.29008 38.001,-1.4504 65.704,0.87027 -0.29004,6.0918 1.5955,5.6566 1.3054,11.748 -15.81,-13.924 -45.543,-6.0918 -61.788,-6.0918 -2.9009,24.657 -5.8017,71.941 6.0918,93.117 z"
               inkscape:connector-curvature="0" />
          </g>
          <g
             id="g3488"
             style="stroke-width:2.23099995">
            <g
               id="g3482"
               style="fill:none">
              <path
                 id="path3474"
                 d="m 499.27,277.22 c 7.7598,-32.272 8.5575,-66.284 -42.86,-60.918 -52.723,4.7864 -32.127,30.79 -49.822,47.325 -10.588,8.0498 -24.222,1.1913 -33.722,4.8899"
                 inkscape:connector-curvature="0" />
              <path
                 id="path3476"
                 d="m 512.98,180.45 -372.47,1.7405"
                 inkscape:connector-curvature="0" />
              <path
                 id="path3478"
                 d="M 509.5,202.2 153.57,198.72"
                 inkscape:connector-curvature="0" />
              <path
                 id="path3480"
                 d="m 223.78,269.57 c 11.438,-24.376 9.1259,-52.361 -29.281,-57.129 -52.476,-1.6664 -35.962,40.757 -54.817,46.124 -7.8323,2.4657 -13.489,-6.3819 -20.886,-4.3513"
                 inkscape:connector-curvature="0" />
            </g>
            <path
               id="path3484"
               d="m 186.47,249.76 c -4.6882,-1.0085 -11.557,5.4787 -13.956,10.903 -2.3986,5.4242 -0.32709,9.7854 4.3612,10.794 4.68829,1.0086 11.993,-1.3356 14.392,-6.7598 2.3986,-5.4242 -0.10902,-13.928 -4.7973,-14.937 z"
               inkscape:connector-curvature="0" />
            <path
               id="path3486"
               d="m 120.57,274.46 c 2.6666,-7.8972 -2.0512,-24.409 -28.922,-19.076 -0.82047,6.1536 0.20512,14.153 3.0768,18.153 8.9228,0.82056 17.846,1.3333 25.845,0.92306 z"
               inkscape:connector-curvature="0"
               style="fill:#ffffff" />
          </g>
        </g>
      </g>
    </g>
  </g>
</svg>
