<?xml version="1.0" encoding="UTF-8" standalone="no"?>
<!-- Created with Inkscape (http://www.inkscape.org/) -->

<svg
   xmlns:dc="http://purl.org/dc/elements/1.1/"
   xmlns:cc="http://creativecommons.org/ns#"
   xmlns:rdf="http://www.w3.org/1999/02/22-rdf-syntax-ns#"
   xmlns:svg="http://www.w3.org/2000/svg"
   xmlns="http://www.w3.org/2000/svg"
   xmlns:sodipodi="http://sodipodi.sourceforge.net/DTD/sodipodi-0.dtd"
   xmlns:inkscape="http://www.inkscape.org/namespaces/inkscape"
   width="66.426285mm"
   height="95.186501mm"
   viewBox="0 0 66.426285 95.186501"
   version="1.1"
   id="svg1309"
   inkscape:version="0.92.4 (33fec40, 2019-01-16)"
   sodipodi:docname="matematyka.svg">
  <defs
     id="defs1303" />
  <sodipodi:namedview
     id="base"
     pagecolor="#ffffff"
     bordercolor="#666666"
     borderopacity="1.0"
     inkscape:pageopacity="0.0"
     inkscape:pageshadow="2"
     inkscape:zoom="0.7"
     inkscape:cx="-184.64244"
     inkscape:cy="218.2327"
     inkscape:document-units="mm"
     inkscape:current-layer="layer1"
     showgrid="false"
     inkscape:window-width="1920"
     inkscape:window-height="1052"
     inkscape:window-x="1920"
     inkscape:window-y="0"
     inkscape:window-maximized="1" />
  <metadata
     id="metadata1306">
    <rdf:RDF>
      <cc:Work
         rdf:about="">
        <dc:format>image/svg+xml</dc:format>
        <dc:type
           rdf:resource="http://purl.org/dc/dcmitype/StillImage" />
        <dc:title></dc:title>
      </cc:Work>
    </rdf:RDF>
  </metadata>
  <g
     inkscape:label="Layer 1"
     inkscape:groupmode="layer"
     id="layer1"
     transform="translate(-83.959473,-101.24008)">
    <path
       id="path1055"
       d="M 148.40139,192.45783 H 85.943848 l 1.984375,1.98437 v -91.21774 l -1.984375,1.98437 h 62.457542 l -1.98438,-1.98437 v 91.21774 c 0,2.55932 3.96875,2.55932 3.96875,0 v -91.21774 c 0,-1.08162 -0.90275,-1.98438 -1.98437,-1.98438 H 85.943848 c -1.081616,0 -1.984375,0.90276 -1.984375,1.98438 v 91.21774 c 0,1.08162 0.902759,1.98438 1.984375,1.98438 h 62.457542 c 2.55931,0 2.55931,-3.96875 0,-3.96875 z"
       inkscape:connector-curvature="0"
       style="fill:#2e3192;stroke-width:0.26458332" />
    <rect
       id="rect1057"
       stroke-miterlimit="10"
       height="13.400087"
       width="46.042793"
       y="111.13021"
       x="94.161797"
       style="fill:none;stroke:#2e3192;stroke-width:2.64583325;stroke-miterlimit:10" />
    <path
       id="path1059"
       d="m 102.5491,142.37221 h -8.834704 l 0.661458,0.66146 v -8.83471 l -0.661458,0.66146 h 8.834704 l -0.66146,-0.66146 v 8.83471 c 0,0.85328 1.32292,0.85328 1.32292,0 v -8.83471 c 0,-0.36036 -0.3011,-0.66145 -0.66146,-0.66145 h -8.834704 c -0.360362,0 -0.661458,0.30109 -0.661458,0.66145 v 8.83471 c 0,0.36036 0.301096,0.66146 0.661458,0.66146 h 8.834704 c 0.85301,0 0.85301,-1.32292 0,-1.32292 z"
       inkscape:connector-curvature="0"
       style="fill:#2e3192;stroke-width:0.26458332" />
    <path
       id="path1061"
       d="m 102.5491,155.86595 h -8.834704 l 0.661458,0.66146 v -8.8347 l -0.661458,0.66146 h 8.834704 l -0.66146,-0.66146 v 8.8347 c 0,0.85328 1.32292,0.85328 1.32292,0 v -8.8347 c 0,-0.36062 -0.3011,-0.66145 -0.66146,-0.66145 h -8.834704 c -0.360362,0 -0.661458,0.30083 -0.661458,0.66145 v 8.8347 c 0,0.36063 0.301096,0.66146 0.661458,0.66146 h 8.834704 c 0.85301,0 0.85301,-1.32292 0,-1.32292 z"
       inkscape:connector-curvature="0"
       style="fill:#2e3192;stroke-width:0.26458332" />
    <path
       id="path1063"
       d="m 102.5491,170.23283 h -8.834704 l 0.661458,0.66146 v -8.83497 l -0.661458,0.66146 h 8.834704 l -0.66146,-0.66146 v 8.83497 c 0,0.85328 1.32292,0.85328 1.32292,0 v -8.83497 c 0,-0.36063 -0.3011,-0.66146 -0.66146,-0.66146 h -8.834704 c -0.360362,0 -0.661458,0.30083 -0.661458,0.66146 v 8.83497 c 0,0.36036 0.301096,0.66146 0.661458,0.66146 h 8.834704 c 0.85301,0 0.85301,-1.32292 0,-1.32292 z"
       inkscape:connector-curvature="0"
       style="fill:#2e3192;stroke-width:0.26458332" />
    <path
       id="path1065"
       d="m 102.5491,183.06512 h -8.834704 l 0.661458,0.66146 v -8.8347 l -0.661458,0.66146 h 8.834704 l -0.66146,-0.66146 v 8.8347 c 0,0.85328 1.32292,0.85328 1.32292,0 v -8.8347 c 0,-0.36063 -0.3011,-0.66146 -0.66146,-0.66146 h -8.834704 c -0.360362,0 -0.661458,0.30083 -0.661458,0.66146 v 8.8347 c 0,0.36063 0.301096,0.66146 0.661458,0.66146 h 8.834704 c 0.85301,0 0.85301,-1.32292 0,-1.32292 z"
       inkscape:connector-curvature="0"
       style="fill:#2e3192;stroke-width:0.26458332" />
    <path
       id="path1067"
       d="m 115.48722,142.37221 h -8.8347 l 0.66146,0.66146 v -8.83471 l -0.66146,0.66146 h 8.8347 l -0.66146,-0.66146 v 8.83471 c 0,0.85328 1.32292,0.85328 1.32292,0 v -8.83471 c 0,-0.36036 -0.30083,-0.66145 -0.66146,-0.66145 h -8.8347 c -0.36063,0 -0.66146,0.30109 -0.66146,0.66145 v 8.83471 c 0,0.36036 0.30083,0.66146 0.66146,0.66146 h 8.8347 c 0.85302,0 0.85302,-1.32292 0,-1.32292 z"
       inkscape:connector-curvature="0"
       style="fill:#2e3192;stroke-width:0.26458332" />
    <path
       id="path1069"
       d="m 115.48722,155.86595 h -8.8347 l 0.66146,0.66146 v -8.8347 l -0.66146,0.66146 h 8.8347 l -0.66146,-0.66146 v 8.8347 c 0,0.85328 1.32292,0.85328 1.32292,0 v -8.8347 c 0,-0.36062 -0.30083,-0.66145 -0.66146,-0.66145 h -8.8347 c -0.36063,0 -0.66146,0.30083 -0.66146,0.66145 v 8.8347 c 0,0.36063 0.30083,0.66146 0.66146,0.66146 h 8.8347 c 0.85302,0 0.85302,-1.32292 0,-1.32292 z"
       inkscape:connector-curvature="0"
       style="fill:#2e3192;stroke-width:0.26458332" />
    <path
       id="path1071"
       d="m 115.48722,170.23283 h -8.8347 l 0.66146,0.66146 v -8.83497 l -0.66146,0.66146 h 8.8347 l -0.66146,-0.66146 v 8.83497 c 0,0.85328 1.32292,0.85328 1.32292,0 v -8.83497 c 0,-0.36063 -0.30083,-0.66146 -0.66146,-0.66146 h -8.8347 c -0.36063,0 -0.66146,0.30083 -0.66146,0.66146 v 8.83497 c 0,0.36036 0.30083,0.66146 0.66146,0.66146 h 8.8347 c 0.85302,0 0.85302,-1.32292 0,-1.32292 z"
       inkscape:connector-curvature="0"
       style="fill:#2e3192;stroke-width:0.26458332" />
    <path
       id="path1073"
       d="m 115.48722,183.06512 h -8.8347 l 0.66146,0.66146 v -8.8347 l -0.66146,0.66146 h 8.8347 l -0.66146,-0.66146 v 8.8347 c 0,0.85328 1.32292,0.85328 1.32292,0 v -8.8347 c 0,-0.36063 -0.30083,-0.66146 -0.66146,-0.66146 h -8.8347 c -0.36063,0 -0.66146,0.30083 -0.66146,0.66146 v 8.8347 c 0,0.36063 0.30083,0.66146 0.66146,0.66146 h 8.8347 c 0.85302,0 0.85302,-1.32292 0,-1.32292 z"
       inkscape:connector-curvature="0"
       style="fill:#2e3192;stroke-width:0.26458332" />
    <path
       id="path1075"
       d="m 128.84868,142.37221 h -8.8347 l 0.66146,0.66146 v -8.83471 l -0.66146,0.66146 h 8.8347 l -0.66146,-0.66146 v 8.83471 c 0,0.85328 1.32292,0.85328 1.32292,0 v -8.83471 c 0,-0.36036 -0.3011,-0.66145 -0.66146,-0.66145 h -8.8347 c -0.36036,0 -0.66146,0.30109 -0.66146,0.66145 v 8.83471 c 0,0.36036 0.3011,0.66146 0.66146,0.66146 h 8.8347 c 0.85302,0 0.85302,-1.32292 0,-1.32292 z"
       inkscape:connector-curvature="0"
       style="fill:#2e3192;stroke-width:0.26458332" />
    <path
       id="path1077"
       d="m 141.68097,142.37221 h -8.8347 l 0.66146,0.66146 v -8.83471 l -0.66146,0.66146 h 8.8347 l -0.66146,-0.66146 v 8.83471 c 0,0.85328 1.32292,0.85328 1.32292,0 v -8.83471 c 0,-0.36036 -0.3011,-0.66145 -0.66146,-0.66145 h -8.8347 c -0.36036,0 -0.66146,0.30109 -0.66146,0.66145 v 8.83471 c 0,0.36036 0.3011,0.66146 0.66146,0.66146 h 8.8347 c 0.85328,0 0.85328,-1.32292 0,-1.32292 z"
       inkscape:connector-curvature="0"
       style="fill:#2e3192;stroke-width:0.26458332" />
    <path
       id="path1079"
       d="m 141.68097,155.65429 h -8.8347 l 0.66146,0.66146 v -8.8347 l -0.66146,0.66146 h 8.8347 l -0.66146,-0.66146 v 8.8347 c 0,0.85328 1.32292,0.85328 1.32292,0 v -8.8347 c 0,-0.36036 -0.3011,-0.66146 -0.66146,-0.66146 h -8.8347 c -0.36036,0 -0.66146,0.3011 -0.66146,0.66146 v 8.8347 c 0,0.36036 0.3011,0.66145 0.66146,0.66145 h 8.8347 c 0.85328,0 0.85328,-1.32291 0,-1.32291 z"
       inkscape:connector-curvature="0"
       style="fill:#2e3192;stroke-width:0.26458332" />
    <path
       id="path1081"
       d="m 128.84868,155.86595 h -8.8347 l 0.66146,0.66146 v -8.8347 l -0.66146,0.66146 h 8.8347 l -0.66146,-0.66146 v 8.8347 c 0,0.85328 1.32292,0.85328 1.32292,0 v -8.8347 c 0,-0.36062 -0.3011,-0.66145 -0.66146,-0.66145 h -8.8347 c -0.36036,0 -0.66146,0.30083 -0.66146,0.66145 v 8.8347 c 0,0.36063 0.3011,0.66146 0.66146,0.66146 h 8.8347 c 0.85302,0 0.85302,-1.32292 0,-1.32292 z"
       inkscape:connector-curvature="0"
       style="fill:#2e3192;stroke-width:0.26458332" />
    <path
       id="path1083"
       d="m 128.84868,170.23283 h -8.8347 l 0.66146,0.66146 v -8.83497 l -0.66146,0.66146 h 8.8347 l -0.66146,-0.66146 v 8.83497 c 0,0.85328 1.32292,0.85328 1.32292,0 v -8.83497 c 0,-0.36063 -0.3011,-0.66146 -0.66146,-0.66146 h -8.8347 c -0.36036,0 -0.66146,0.30083 -0.66146,0.66146 v 8.83497 c 0,0.36036 0.3011,0.66146 0.66146,0.66146 h 8.8347 c 0.85302,0 0.85302,-1.32292 0,-1.32292 z"
       inkscape:connector-curvature="0"
       style="fill:#2e3192;stroke-width:0.26458332" />
    <path
       id="path1085"
       d="m 128.84868,183.06512 h -8.8347 l 0.66146,0.66146 v -8.8347 l -0.66146,0.66146 h 8.8347 l -0.66146,-0.66146 v 8.8347 c 0,0.85328 1.32292,0.85328 1.32292,0 v -8.8347 c 0,-0.36063 -0.3011,-0.66146 -0.66146,-0.66146 h -8.8347 c -0.36036,0 -0.66146,0.30083 -0.66146,0.66146 v 8.8347 c 0,0.36063 0.3011,0.66146 0.66146,0.66146 h 8.8347 c 0.85302,0 0.85302,-1.32292 0,-1.32292 z"
       inkscape:connector-curvature="0"
       style="fill:#2e3192;stroke-width:0.26458332" />
    <path
       id="path1087"
       d="m 141.68097,183.06512 h -8.8347 l 0.66146,0.66146 v -22.05514 l -0.66146,0.66146 h 8.8347 l -0.66146,-0.66146 v 22.05514 c 0,0.85328 1.32292,0.85328 1.32292,0 v -22.05514 c 0,-0.36063 -0.3011,-0.66146 -0.66146,-0.66146 h -8.8347 c -0.36036,0 -0.66146,0.30083 -0.66146,0.66146 v 22.05514 c 0,0.36036 0.3011,0.66146 0.66146,0.66146 h 8.8347 c 0.85328,0 0.85328,-1.32292 0,-1.32292 z"
       inkscape:connector-curvature="0"
       style="fill:#2e3192;stroke-width:0.26458332" />
    <g
       transform="matrix(0.26458333,0,0,0.26458333,-629.39423,-144.46259)"
       id="g1095"
       stroke-miterlimit="10"
       style="fill:#2e3192;stroke:#2e3192;stroke-miterlimit:10">
      <path
         id="path1089"
         d="m 2832.4,999.89 -0.407,0.96 v 4.32 l -0.846,0.96 -1.258,-1.44 v -11.52 l 1.243,-1.44 1.268,1.44 z m 11.717,-24 -1.268,1.44 h -10.043 l -1.243,-1.44 1.243,-1.439 h 10.043 z m -6.504,15.36 -1.244,1.439 h -3.563 l -1.243,-1.439 1.243,-1.44 h 3.563 z m 6.504,15.359 -1.268,1.44 h -10.043 l -1.243,-1.44 1.243,-1.439 h 10.043 z m 0,-15.359 -1.268,1.439 h -3.563 l -1.244,-1.439 1.244,-1.44 h 3.563 z m 1.673,-1.92 -1.268,1.439 -1.243,-1.439 v -6.721 l 0.406,-0.96 v -4.319 l 0.837,-0.96 1.268,1.439 z"
         inkscape:connector-curvature="0" />
      <path
         id="path1091"
         d="m 2855.6,989.33 -1.268,1.439 -1.243,-1.439 v -11.521 l 1.258,-1.439 0.846,0.96 v 4.319 l 0.407,0.96 z m 11.717,-13.44 -1.268,1.44 h -10.043 l -1.243,-1.44 1.243,-1.439 h 10.043 z m -6.504,15.36 -1.244,1.439 h -3.563 l -1.243,-1.439 1.243,-1.44 h 3.563 z m 6.504,15.359 -1.268,1.44 h -10.043 l -1.243,-1.44 1.243,-1.439 h 10.043 z m 0,-15.359 -1.268,1.439 h -3.563 l -1.244,-1.439 1.244,-1.44 h 3.563 z m 1.674,13.439 -1.268,1.44 -0.837,-0.96 v -4.32 l -0.406,-0.96 v -6.72 l 1.243,-1.44 1.268,1.44 z"
         inkscape:connector-curvature="0" />
      <path
         id="path1093"
         d="m 2890.5,975.89 -1.268,1.44 h -10.043 l -1.243,-1.44 1.243,-1.439 h 10.043 z m 1.674,13.44 -1.268,1.439 -1.243,-1.439 v -6.721 l 0.406,-0.96 v -4.319 l 0.837,-0.96 1.268,1.439 z m 0,15.359 -1.268,1.44 -0.837,-0.96 v -4.32 l -0.406,-0.96 v -6.72 l 1.243,-1.44 1.268,1.44 z"
         inkscape:connector-curvature="0" />
    </g>
  </g>
</svg>
