<?xml version="1.0" encoding="UTF-8" standalone="no"?>
<!-- Created with Inkscape (http://www.inkscape.org/) -->

<svg
   xmlns:dc="http://purl.org/dc/elements/1.1/"
   xmlns:cc="http://creativecommons.org/ns#"
   xmlns:rdf="http://www.w3.org/1999/02/22-rdf-syntax-ns#"
   xmlns:svg="http://www.w3.org/2000/svg"
   xmlns="http://www.w3.org/2000/svg"
   xmlns:sodipodi="http://sodipodi.sourceforge.net/DTD/sodipodi-0.dtd"
   xmlns:inkscape="http://www.inkscape.org/namespaces/inkscape"
   width="107.91537mm"
   height="153.5298mm"
   viewBox="0 0 107.91537 153.5298"
   version="1.1"
   id="svg1310"
   sodipodi:docname="polski.svg"
   inkscape:version="0.92.4 (33fec40, 2019-01-16)">
  <defs
     id="defs1304" />
  <sodipodi:namedview
     id="base"
     pagecolor="#ffffff"
     bordercolor="#666666"
     borderopacity="1.0"
     inkscape:pageopacity="0.0"
     inkscape:pageshadow="2"
     inkscape:zoom="0.35"
     inkscape:cx="-340.15101"
     inkscape:cy="-101.18574"
     inkscape:document-units="mm"
     inkscape:current-layer="layer1"
     showgrid="false"
     inkscape:window-width="1920"
     inkscape:window-height="1052"
     inkscape:window-x="1920"
     inkscape:window-y="0"
     inkscape:window-maximized="1" />
  <metadata
     id="metadata1307">
    <rdf:RDF>
      <cc:Work
         rdf:about="">
        <dc:format>image/svg+xml</dc:format>
        <dc:type
           rdf:resource="http://purl.org/dc/dcmitype/StillImage" />
      </cc:Work>
    </rdf:RDF>
  </metadata>
  <g
     inkscape:label="Layer 1"
     inkscape:groupmode="layer"
     id="layer1"
     transform="translate(-35.244705,-72.068429)">
    <path
       id="path815"
       d="m 142.88752,76.552689 c -0.018,-1.06124 -0.0368,-2.12249 -0.0593,-3.18373 -0.0196,-0.92207 -0.82471,-1.42108 -1.67455,-1.27556 -9.24055,1.58062 -18.48112,3.16124 -27.72301,4.74187 -16.638594,2.84612 -33.276654,5.69224 -49.916304,8.53836 -7.56099,1.29329 -15.12173,2.58657 -22.68246,3.88012 -0.68739,0.11747 -0.9734,0.6141 -0.95726,1.14035 -0.006,0.0442 -0.0114,0.0886 -0.014,0.13547 -0.47281,8.82068 -0.91889,17.642941 -1.35599,26.466271 -0.85963,17.34926 -1.67587,34.7001 -2.35267,52.05942 -0.29633,7.602 -0.56965,15.20586 -0.74586,22.81184 -0.10663,4.59793 -0.28654,9.23607 -0.0302,13.83242 0.0344,0.61621 0.0394,1.34487 0.22595,1.98463 0.0156,0.30189 0.13573,0.58526 0.37783,0.78423 0.0884,0.11695 0.1897,0.22542 0.30876,0.32147 1.31154,1.05833 3.193,1.2483 4.80431,1.46076 2.40665,0.31724 4.83923,0.48657 7.27974,0.56965 5.65177,1.00357 11.30353,2.00739 16.95503,3.01122 16.40602,2.91386 32.81363,5.82772 49.217804,8.74157 5.62345,0.9988 11.24664,1.99761 16.87009,2.99641 0.90964,0.16166 1.57586,-0.37068 1.67455,-1.27556 l 2.02486,-18.53247 c 0.23945,-0.1315 0.46779,-0.29369 0.67998,-0.50033 1.0422,-1.01335 1.59173,-2.52862 2.04179,-3.87218 1.5957,-4.76276 2.11561,-9.95045 2.66171,-14.91562 0.81174,-7.37896 1.2573,-14.7984 1.60946,-22.2115 0.81889,-17.23284 1.02209,-34.49637 1.0496,-51.74721 0.0196,-11.98748 -0.0672,-23.975481 -0.27225,-35.962161 z M 130.61561,222.74821 c -9.08817,-1.61423 -18.17635,-3.22845 -27.26531,-4.84241 -13.449044,-2.38866 -26.897554,-4.77731 -40.346324,-7.16597 17.04023,-0.36407 34.07834,-1.4814 51.067234,-2.77998 5.95366,-0.45508 11.91181,-0.91705 17.84959,-1.55178 0.16113,-0.0172 0.32305,-0.032 0.48498,-0.0463 -0.5969,5.46206 -1.1938,10.92438 -1.7907,16.38644 z m 9.47844,-76.21323 c -0.38233,15.06458 -0.72073,30.36623 -2.91412,45.28079 -0.3482,2.36828 -0.76068,4.73498 -1.36049,7.05406 -0.44662,1.72746 -0.75037,2.84559 -1.57137,4.12167 -0.0246,0.0381 -0.0847,0.12065 -0.12991,0.18283 -0.05,0.059 -0.0992,0.11854 -0.15266,0.17463 -0.0693,0.0725 -0.10716,0.11747 -0.12621,0.14367 -0.0259,0.008 -0.0738,0.0283 -0.15928,0.0738 0.0735,-0.0392 0.0153,-0.009 0.0116,-0.008 -0.35586,0.0458 -0.71226,0.0868 -1.06891,0.127 -2.24817,0.254 -4.50215,0.458 -6.75535,0.65934 -16.82723,1.5039 -33.705274,2.60985 -50.583044,3.33375 -8.23515,0.35322 -16.48777,0.62892 -24.7314,0.48578 -0.78819,-0.0138 -1.57665,-0.0317 -2.36537,-0.0558 -3.3737,-0.59928 -6.7474,-1.1983 -10.12111,-1.79758 -0.002,-0.0175 -0.003,-0.0339 -0.004,-0.0487 -0.0262,-0.32094 -0.0434,-0.64267 -0.0585,-0.96441 -0.0907,-1.92775 -0.0818,-3.86133 -0.0709,-5.79067 0.0368,-6.46985 0.24633,-12.93971 0.46355,-19.4056 0.58499,-17.3947 1.38695,-34.78232 2.22197,-52.16544 0.57335,-11.93456 1.17316,-23.8678 1.80446,-35.798131 0.009,-0.16272 0.0172,-0.32544 0.0259,-0.48815 8.93656,-1.52877 17.87313,-3.05726 26.81023,-4.58603 16.63859,-2.84612 33.276644,-5.69224 49.916294,-8.53837 7.01225,-1.19962 14.0245,-2.39897 21.03676,-3.59859 0.1434,7.28054 0.21564,14.56293 0.26326,21.84453 0.10822,16.588311 0.0408,33.181391 -0.38021,49.765471 z"
       inkscape:connector-curvature="0"
       style="fill:#2e3192;stroke-width:0.26458332" />
    <path
       id="path817"
       d="m 59.869196,106.06431 c -0.61225,7.60228 -1.13533,15.21963 -1.4306,22.84122 -0.082,2.11852 -0.14288,4.23942 -0.12065,6.35979 0.0124,1.18189 -0.0394,2.24472 0.73713,3.19484 1.17316,1.43484 3.72612,1.57057 5.39882,1.68672 7.0448,0.48948 14.33724,-0.77999 21.27673,-1.82853 8.28834,-1.25254 16.530914,-2.81252 24.743574,-4.48601 4.51961,-0.92075 9.03526,-1.87114 13.53159,-2.9001 0.59425,-0.136 0.93847,-0.70379 0.97128,-1.27556 0.64903,-11.36015 1.29831,-22.7203 1.94734,-34.080981 0.0534,-0.93345 -0.87948,-1.4052 -1.67455,-1.27555 -12.03775,1.96003 -24.07523,3.92033 -36.112984,5.880631 -9.43213,1.5359 -18.86426,3.07181 -28.29719,4.60771 -1.6809,0.27358 -0.9652,2.82284 0.70326,2.55138 12.03775,-1.96003 24.07524,-3.92033 36.11298,-5.88063 9.432134,-1.535901 18.864274,-3.071811 28.297194,-4.607721 -0.55827,-0.42518 -1.11628,-0.85037 -1.67455,-1.27555 -0.64902,11.360151 -1.29831,22.720301 -1.94733,34.080981 0.32385,-0.42519 0.64743,-0.85037 0.97128,-1.27556 -11.82078,2.70484 -23.744764,5.07339 -35.718754,6.98817 -7.2001,1.15147 -14.60394,2.36115 -21.9194,2.18679 -1.20227,-0.0286 -2.18149,-0.10081 -3.1377,-0.29766 -0.38867,-0.0802 -0.77178,-0.18838 -1.14167,-0.33205 0.37332,0.14472 -0.10663,-0.0624 -0.19844,-0.1151 -0.37412,-0.21431 0.11324,0.14976 -0.17515,-0.12885 -0.22517,-0.21722 0.14287,0.26988 -0.0481,-0.0728 0.11879,0.21326 0.006,-0.12409 0.0476,0.22278 -0.0963,-0.79587 -0.0513,-1.63274 -0.0524,-2.43284 -0.002,-2.22462 0.0796,-4.4495 0.17303,-6.672 0.30322,-7.22762 0.80222,-14.45207 1.38298,-21.66276 0.13706,-1.7026 -2.50984,-1.68937 -2.64583,-8e-4 z"
       inkscape:connector-curvature="0"
       style="fill:#2e3192;stroke-width:0.26458332" />
    <path
       id="path819"
       d="m 70.246156,117.26148 c 13.03099,-1.8415 26.06199,-3.68273 39.092194,-5.52423 1.46288,-0.20664 2.92576,-0.41355 4.38864,-0.62019 1.68381,-0.23786 0.96467,-2.78712 -0.70326,-2.55137 -13.031004,1.8415 -26.061994,3.68273 -39.092194,5.52423 -1.46288,0.20664 -2.92576,0.41354 -4.38864,0.62018 -1.68381,0.23813 -0.96468,2.78739 0.70326,2.55138 z"
       inkscape:connector-curvature="0"
       style="fill:#2e3192;stroke-width:0.26458332" />
    <path
       id="path821"
       d="m 71.008156,128.10675 c 13.03073,-1.8415 26.06172,-3.683 39.092194,-5.52476 1.46288,-0.20664 2.92602,-0.41355 4.38864,-0.62019 1.68381,-0.23786 0.96467,-2.78712 -0.70326,-2.55137 -13.03073,1.8415 -26.061734,3.683 -39.092194,5.52476 -1.46288,0.20664 -2.92576,0.41355 -4.38864,0.62019 -1.68381,0.23812 -0.96468,2.78712 0.70326,2.55137 z"
       inkscape:connector-curvature="0"
       style="fill:#2e3192;stroke-width:0.26458332" />
  </g>
</svg>
