<?xml version="1.0" encoding="UTF-8" standalone="no"?>
<!-- Created with Inkscape (http://www.inkscape.org/) -->

<svg
   xmlns:dc="http://purl.org/dc/elements/1.1/"
   xmlns:cc="http://creativecommons.org/ns#"
   xmlns:rdf="http://www.w3.org/1999/02/22-rdf-syntax-ns#"
   xmlns:svg="http://www.w3.org/2000/svg"
   xmlns="http://www.w3.org/2000/svg"
   xmlns:sodipodi="http://sodipodi.sourceforge.net/DTD/sodipodi-0.dtd"
   xmlns:inkscape="http://www.inkscape.org/namespaces/inkscape"
   width="23.374538mm"
   height="13.736298mm"
   viewBox="0 0 23.374538 13.736298"
   version="1.1"
   id="svg3645"
   inkscape:version="0.92.4 (33fec40, 2019-01-16)"
   sodipodi:docname="logo.svg">
  <defs
     id="defs3639" />
  <sodipodi:namedview
     id="base"
     pagecolor="#ffffff"
     bordercolor="#666666"
     borderopacity="1.0"
     inkscape:pageopacity="0.0"
     inkscape:pageshadow="2"
     inkscape:zoom="3.959798"
     inkscape:cx="15.218579"
     inkscape:cy="33.040704"
     inkscape:document-units="mm"
     inkscape:current-layer="layer1"
     showgrid="false"
     inkscape:window-width="1920"
     inkscape:window-height="1052"
     inkscape:window-x="1920"
     inkscape:window-y="0"
     inkscape:window-maximized="1" />
  <metadata
     id="metadata3642">
    <rdf:RDF>
      <cc:Work
         rdf:about="">
        <dc:format>image/svg+xml</dc:format>
        <dc:type
           rdf:resource="http://purl.org/dc/dcmitype/StillImage" />
        <dc:title></dc:title>
      </cc:Work>
    </rdf:RDF>
  </metadata>
  <g
     inkscape:label="Layer 1"
     inkscape:groupmode="layer"
     id="layer1"
     transform="translate(-104.15701,-108.20548)">
    <g
       id="g4234"
       transform="matrix(0.00926572,0,0,0.00926572,103.70622,107.82156)"
       style="fill:#6067f1;fill-opacity:1">
      <path
         id="path4190"
         d="m 2561.445,832.395 2.186,-25.446 7.71,-30.062 -10.066,-172.658 -135.25,-239.49 -112.199,-198.276 -195.419,-67.036 -55.761,-13.955 -126.72,137.009 -5.14,8.941 -3.089,4.656 0.721,5.543 23.558,29.835 2.625,13.827 30.401,25.412 32.739,15.508 19.554,0.499 71.031,20.324 47.677,-22.061 3.398,2.509 68.429,26.766 13.691,41.153 26.349,103.96 -11.18,61.622 -8.994,45.536 -286.434,-108.731 -139.41,104.892 -0.852,3.433 -24.295,186.105 205.584,121.227 8.654,2.1 393.636,5.795 154.179,-59.786 2.687,-29.151 m -291.705,-446.851 -16.191,-51.238 -0.731,-3.537 3.477,-5.269 6.21,-25.788 -0.128,-12.579 -0.285,-6.185 0.324,-6.106 -1.72,5.998 -1.114,6.108 -2.619,11.927 -9.943,20.329 -0.588,0.604 -11.429,3.103 -57.771,-19.427 -31.067,-11.75 -0.435,0.15 -5.071,-4.509 -19.635,-10.639 -2.009,-0.849 0.038,-0.088 -0.537,-0.127 -1.697,-0.773 0.039,-0.52 2.114,-9.648 6.194,-18.551 26.743,4.826 -27.447,-8.365 -1.22,-0.373 -0.703,1.304 -9.449,19.031 -3.824,10.465 -0.193,0.933 -1.945,-0.185 -6.05,0.159 -5.317,2.583 5.311,-0.715 5.246,1.618 3.03,1.389 0.926,1.511 1.786,1.535 4.836,3.009 15.867,11.571 2.885,3.311 -2.293,4.538 -24.714,12.727 -33.436,-3.916 -4.824,-2.078 -8.407,-3.321 -6.547,-5.047 -2.519,-5.083 0.057,-0.396 2.007,-11.099 9.553,-44.528 4.987,-22.264 4.499,-22.381 -6.315,21.9 -6.801,21.773 -13.234,43.763 -0.58,2.187 -13.588,10.483 -26.459,-6.513 47.052,-121.149 -58.405,113.283 -13.748,-9.47 0.131,-13.289 49.417,-99.033 -58.766,88.729 -2.82,-2.079 -9.55,-7.507 1.582,-2.794 79.888,-116.941 -1.273,1.891 -3.003,5.951 -1.849,6.43 1.662,12.876 2.488,-11.658 6.132,-9.806 3.801,-4.26 0.784,-0.746 0.229,0.101 10.824,5.442 0.581,0.285 0.317,0.065 14.332,2.326 14.634,1.066 -13.504,-5.738 -13.186,-4.287 -10.937,-5.935 -1.704,-0.699 -0.16,-0.05 0.211,-0.059 59.64,15.105 181.024,59.176 106.735,190.933 139.211,245.238 3.65,145.301 -6.405,24.822 -6.807,10.169 -12.649,10.6 -14.01,1.027 -7.479,-3.326 -3.69,-2.465 -0.798,-0.594 -0.492,-0.414 -1.256,-1.265 -5.493,-7.407 -5.237,-8.634 -9.726,-18.351 -34.574,-77.053 -31.827,-78.662 -60.687,-158.718 -29.835,-79.594 -15.075,-39.743 -7.732,-19.8 -8.392,-19.519 7.734,19.771 7.067,20.034 13.745,40.209 27.175,80.535 51.981,150.95 2.221,19.178 1.336,26.792 -5.747,25.453 -14.552,22.32 -8.773,10.327 -4.34,5.451 -1.076,1.369 -0.909,1.492 -1.807,2.981 -8.538,26.171 0.157,27.366 1.705,12.563 -48.996,-94.034 2.384,-23.501 8.373,-30.295 3.227,-16.295 -0.29,-8.194 -0.719,-8.003 -9.679,-62.863 -6.252,-33.241 1.914,-14.646 -27.891,-116.649 m 201.007,495.011 -98.867,-59.667 -23.615,-26.754 -1.374,-13.515 0.761,-27.017 9.096,-24.999 8.136,-10.517 9.229,-10.149 15.905,-22.708 7.128,-27.137 -0.01,-20.692 23.617,64.167 32.406,79.131 9.533,19.519 5.468,9.722 6.868,9.85 2.396,2.589 1.487,1.348 1.296,1.042 3.798,2.717 0.8,49.132 -14.058,3.938 m -620.732,-267.262 0.247,-0.999 9.879,-6.694 26.225,-14.177 56.242,-21.099 119.022,-9.067 56.834,18.785 25.373,16.221 24.612,18.249 51.202,33.66 13.479,7.302 6.884,3.379 7.039,3.053 7.22,2.597 7.421,1.947 1.405,0.198 3.054,3.343 -93.08,52.539 -55.151,14.326 -155.413,-34.445 -119.963,-58.294 7.469,-30.824 m 425.827,29.089 -1,-4.334 11.096,-70.919 3.975,-19.084 1.083,4.349 13.245,61.543 1.15,7.698 0.724,7.587 -2.101,14.766 -6.643,31.122 -1.252,18.154 -20.277,-50.882 m -307.558,-115.552 280.963,124.652 13.386,14.65 -0.847,-0.145 -7.293,-2.151 -7.083,-2.796 -6.895,-3.245 -6.736,-3.564 -13.177,-7.668 -49.926,-35.05 -23.95,-18.921 -25.578,-17.472 -58.19,-21.218 -61.923,-3.923 -61.309,9.512 -58.8,20.036 -8.799,4.034 96.157,-56.731 m -129.149,131.927 114.179,55.432 77.318,43.766 32.353,3.574 -6.504,5.269 -27.407,19.903 -60.606,29.46 -32.995,7.368 -16.898,1.481 -16.999,-0.293 -14.167,-1.427 -67.387,-50.145 19.113,-114.388 m 54.527,168.66 7.585,1.02 17.367,1.245 17.439,-0.578 34.472,-5.758 64.425,-27.101 29.363,-18.974 14.035,-10.166 6.828,-4.904 3.227,-2.122 1.256,-0.679 0.079,-0.044 -0.456,0.056 -0.03,-0.226 33.161,-8.078 53.998,-14.018 99.595,-53.076 75.591,138.264 -7.971,-0.86 -23.899,4.792 -43.441,21.999 -21.169,11.895 -21.158,11.537 -45.571,13.281 -95.935,3.396 -96.166,-8.942 -0.131,1.199 -102.494,-53.158 m 507.093,64.242 -1.4,0.112 -1.359,0.373 -324.502,6.952 18.635,0.424 97.607,-7.239 46.75,-15.63 10.647,-6.17 10.357,-6.346 20.686,-12.697 42.255,-23.493 23.193,-5.591 8.644,0.651 10.43,9.679 84.669,52.939 -46.612,6.036 m 93.073,-18.013 -1.139,-41.292 4.269,1.649 13.774,1.971 13.71,-3.098 7.177,-3.84 -0.058,2.79 -1.731,22.179 -36.002,19.641 m -404.033,-114.294 -0.056,0.006 0.211,-0.116 -0.155,0.11 m 37.159,-599.969 13.507,5.737 -14.637,-1.064 -14.331,-2.328 -0.32,-0.066 -0.577,-0.287 -10.822,-5.439 -0.232,-0.101 -0.784,0.747 -3.8,4.258 -6.13,9.807 -2.488,11.658 -1.661,-12.88 1.851,-6.426 2.999,-5.955 3.999,-5.409 1.222,-1.285 0.669,-0.646 0.906,-0.734 1.289,-0.678 1.759,-0.241 0.84,0.127 0.311,0.09 0.606,0.192 1.707,0.698 10.934,5.937 13.183,4.288 m -23.122,-13.119 -14.332,-2.324 -0.32,-0.065 -0.577,-0.288 -10.823,-5.438 -0.232,-0.101 -0.783,0.745 -3.801,4.26 -6.132,9.803 -2.489,11.661 -1.661,-12.877 1.852,-6.431 3,-5.951 4,-5.409 1.222,-1.285 0.667,-0.647 0.906,-0.734 1.291,-0.677 1.759,-0.241 0.838,0.126 0.314,0.091 0.604,0.191 1.705,0.696 10.939,5.938 13.183,4.287 13.507,5.737 -14.637,-1.067"
         inkscape:connector-curvature="0"
         style="fill:#6067f1;fill-opacity:1" />
      <path
         id="path4192"
         d="m 58.549,832.395 2.685,29.15 154.18,59.786 393.636,-5.795 8.654,-2.1 205.584,-121.227 -24.295,-186.105 -0.852,-3.433 -139.41,-104.892 -286.434,108.731 -8.994,-45.536 -11.18,-61.622 26.349,-103.96 13.691,-41.153 68.429,-26.766 3.398,-2.509 47.677,22.061 71.031,-20.324 19.554,-0.499 32.738,-15.508 30.401,-25.412 2.625,-13.827 23.558,-29.835 0.721,-5.543 -3.089,-4.656 -5.14,-8.941 -126.72,-137.009 -55.761,13.955 -195.419,67.036 -112.199,198.276 -135.25,239.49 -10.066,172.658 7.71,30.062 2.188,25.447 m 291.705,-446.851 -27.887,116.651 1.914,14.646 -6.252,33.241 -9.68,62.863 -0.719,8.003 -0.29,8.194 3.227,16.295 8.372,30.295 2.384,23.501 -48.996,94.034 1.705,-12.563 0.157,-27.366 -8.538,-26.171 -1.807,-2.981 -0.909,-1.492 -1.076,-1.369 -4.34,-5.451 -8.773,-10.327 -14.552,-22.32 -5.747,-25.453 1.336,-26.792 2.221,-19.178 51.982,-150.95 27.175,-80.535 13.745,-40.209 7.067,-20.034 7.734,-19.771 -8.392,19.519 -7.733,19.8 -15.075,39.743 -29.835,79.594 -60.687,158.718 -31.827,78.662 -34.574,77.053 -9.726,18.351 -5.237,8.634 -5.493,7.407 -1.256,1.265 -0.492,0.414 -0.798,0.594 -3.69,2.465 -7.478,3.326 -14.01,-1.027 -12.649,-10.6 -6.807,-10.169 -6.405,-24.822 3.65,-145.301 139.211,-245.238 106.735,-190.933 181.024,-59.176 59.64,-15.105 0.211,0.059 -0.16,0.05 -1.704,0.699 -10.937,5.935 -13.186,4.287 -13.504,5.738 14.634,-1.066 14.332,-2.326 0.317,-0.065 0.581,-0.285 10.824,-5.442 0.23,-0.101 0.784,0.746 3.801,4.26 6.132,9.806 2.488,11.658 1.662,-12.876 -1.849,-6.43 -3.003,-5.951 -1.273,-1.891 79.888,116.941 1.582,2.794 -9.55,7.507 -2.82,2.079 -58.766,-88.729 49.418,99.033 0.131,13.289 -13.749,9.47 -58.407,-113.285 47.052,121.149 -26.458,6.513 -13.588,-10.483 -0.58,-2.187 -13.234,-43.763 -6.801,-21.773 -6.315,-21.9 4.499,22.381 4.987,22.264 9.553,44.528 2.007,11.099 0.057,0.396 -2.519,5.083 -6.547,5.047 -8.408,3.321 -4.824,2.078 -33.436,3.916 -24.714,-12.727 -2.293,-4.538 2.885,-3.311 15.867,-11.571 4.836,-3.009 1.786,-1.535 0.926,-1.511 3.03,-1.389 5.246,-1.618 5.31,0.715 -5.317,-2.583 -6.05,-0.159 -1.945,0.185 -0.193,-0.933 -3.824,-10.465 -9.449,-19.031 -0.703,-1.304 -1.22,0.373 -27.447,8.365 26.743,-4.826 6.194,18.551 2.114,9.648 0.039,0.52 -1.697,0.773 -0.537,0.127 0.038,0.088 -2.009,0.849 -19.635,10.639 -5.071,4.509 -0.435,-0.15 -31.067,11.75 -57.771,19.427 -11.429,-3.103 -0.588,-0.604 -9.943,-20.329 -2.619,-11.927 -1.113,-6.108 -1.72,-5.998 0.324,6.106 -0.285,6.185 -0.128,12.579 6.21,25.788 3.477,5.269 -0.731,3.537 -16.193,51.238 m -201.007,495.011 -14.058,-3.937 0.8,-49.132 3.798,-2.717 1.296,-1.042 1.487,-1.348 2.396,-2.589 6.868,-9.85 5.468,-9.722 9.534,-19.519 32.407,-79.131 23.617,-64.167 -0.01,20.692 7.128,27.137 15.905,22.708 9.229,10.149 8.136,10.517 9.096,24.999 0.761,27.017 -1.374,13.515 -23.615,26.754 -98.869,59.666 m 620.732,-267.262 7.468,30.822 -119.963,58.294 -155.413,34.445 -55.151,-14.326 -93.08,-52.539 3.055,-3.343 1.404,-0.198 7.421,-1.947 7.22,-2.597 7.039,-3.053 6.884,-3.379 13.478,-7.302 51.202,-33.66 24.612,-18.249 25.373,-16.221 56.834,-18.785 119.023,9.067 56.242,21.099 26.225,14.177 9.879,6.694 0.248,1.001 m -425.827,29.089 -20.277,50.881 -1.252,-18.154 -6.643,-31.122 -2.101,-14.766 0.724,-7.587 1.15,-7.698 13.245,-61.543 1.083,-4.349 3.975,19.084 11.096,70.919 -1,4.335 m 307.557,-115.552 96.156,56.733 -8.799,-4.034 -58.8,-20.036 -61.309,-9.512 -61.923,3.923 -58.19,21.218 -25.578,17.472 -23.95,18.921 -49.926,35.05 -13.177,7.668 -6.735,3.564 -6.895,3.245 -7.082,2.796 -7.293,2.151 -0.847,0.145 13.386,-14.65 280.962,-124.654 m 129.15,131.927 19.113,114.388 -67.387,50.145 -14.167,1.427 -16.999,0.293 -16.898,-1.481 -32.995,-7.368 -60.606,-29.46 -27.407,-19.903 -6.504,-5.269 32.353,-3.574 77.318,-43.766 114.179,-55.432 m -54.527,168.66 -102.496,53.162 -0.131,-1.199 -96.166,8.942 -95.935,-3.396 -45.571,-13.281 -21.158,-11.537 -21.169,-11.895 -43.441,-21.999 -23.899,-4.792 -7.971,0.86 75.591,-138.264 99.595,53.076 53.998,14.018 33.161,8.078 -0.03,0.226 -0.456,-0.056 0.079,0.044 1.256,0.679 3.227,2.122 6.828,4.904 14.035,10.166 29.364,18.974 64.425,27.101 34.472,5.758 17.439,0.578 17.367,-1.245 7.586,-1.024 m -507.093,64.242 -46.611,-6.036 84.669,-52.939 10.43,-9.679 8.644,-0.651 23.193,5.591 42.255,23.493 20.686,12.697 10.357,6.346 10.648,6.17 46.75,15.63 97.607,7.239 18.635,-0.424 -324.502,-6.952 -1.359,-0.373 -1.402,-0.112 m -93.073,-18.013 -36.003,-19.64 -1.731,-22.179 -0.058,-2.79 7.177,3.84 13.71,3.098 13.774,-1.971 4.269,-1.649 -1.138,41.291 m 404.032,-114.294 -0.155,-0.11 0.211,0.116 -0.056,-0.006 m -37.158,-599.969 13.183,-4.287 10.934,-5.937 1.707,-0.698 0.606,-0.192 0.311,-0.09 0.84,-0.127 1.759,0.241 1.289,0.678 0.906,0.734 0.669,0.646 1.223,1.285 3.999,5.409 2.999,5.955 1.851,6.426 -1.661,12.88 -2.488,-11.658 -6.13,-9.807 -3.8,-4.258 -0.784,-0.747 -0.232,0.101 -10.822,5.439 -0.577,0.287 -0.32,0.066 -14.331,2.328 -14.637,1.064 13.506,-5.738 m 23.122,-13.119 -14.636,1.068 13.507,-5.737 13.183,-4.287 10.939,-5.938 1.705,-0.696 0.603,-0.191 0.314,-0.091 0.838,-0.126 1.759,0.241 1.291,0.677 0.906,0.734 0.667,0.647 1.223,1.285 3.999,5.409 3,5.951 1.852,6.431 -1.661,12.877 -2.489,-11.661 -6.132,-9.803 -3.801,-4.26 -0.783,-0.745 -0.232,0.101 -10.822,5.438 -0.577,0.288 -0.32,0.065 -14.333,2.323"
         inkscape:connector-curvature="0"
         style="fill:#6067f1;fill-opacity:1" />
      <g
         id="g4230"
         style="fill:#6067f1;fill-opacity:1">
        <g
           id="g4210"
           style="fill:#6067f1;fill-opacity:1">
          <g
             id="g4208"
             style="fill:#6067f1;fill-opacity:1">
            <path
               id="path4194"
               d="m 1381.216,43.525 23.005,-2.089 c 60.686,18.249 39.507,11.435 92.885,29.885 l 19.328,15.578 25.485,-11.5 101.059,32.41 8.678,66.866 47.19,22.379 c 93.381,300.859 62.9,223.806 105.86,315.832 l -1.253,26.795 6.658,3.884 17.693,25.786 -13.167,84.579 27.035,74.542 -52.51,76.533 2.076,24.509 -5.239,17.302 5.231,21.023 -14.114,87.683 -54.983,53.124 -14.358,4.461 c -16.108,49.39 -8.716,31.944 -32.399,76.468 l -25.846,15.508 -105.544,4.896 c -16.258,16.517 -5.955,6.517 -51.058,49.193 l -47.09,19.008 -59.815,-4.411 -13.672,-12.131 -7.556,1.002 -30.732,-20.776 c -10.505,-67.64 -9.513,-56.728 -8.421,-67.788 l 4.817,-5.233 -12.909,-112.965 14.146,-28.905 -12.048,-28.08 c 14.727,-150.13 13.581,-125.096 10.065,-147.666 l 16.45,-76.343 -20.641,-72.91 20.894,-125.751 10.756,-22.804 -31.859,-57.186 c 10.472,-104.616 11.188,-84.813 1.559,-123.692 l 15.97,-18.852 -24.132,-26.024 22.089,-71.756 -5.065,-18.292 11.591,-75.163 33.891,-18.929 m -32.925,40.222 2.387,61.468 c 30.643,-23.751 20.86,-16.38 43.564,-32.952 l -2.15,15.989 -48.501,43.63 -7.757,55.672 128.464,10.261 24.074,12.52 -97.654,-9.593 -43.573,54.181 -11.25,53.893 27.239,93.777 18.07,-12.39 -20.635,38.559 -26.084,145.194 c 85.224,96.662 66.335,76.618 94.418,102.222 -35.474,-16.314 5.642,4.828 -67.23,-29.085 l -9.207,-0.236 -16.997,33.818 6.173,26.316 15.236,-15.712 12.332,3.497 -16.74,17.929 -8.873,17.571 c -5.27,173.875 -6.693,134.469 3.235,195.52 l -9.32,-17.525 35.517,68.13 79.2,-38.131 10.483,-24.148 37.093,-7.911 4.274,-48.525 -10.317,-19.504 45.925,28.08 136.707,-19.65 30.24,-95.795 -5.54,-15.316 18.242,-9.012 41.381,-38.99 -9.661,-27.662 8.411,-17.037 19.491,22.594 27.548,-6.357 3.058,14.279 -37.417,12.613 -4.649,17.134 -52.663,36.296 -14.837,85.858 -111.802,61.86 -70.406,-21.748 -7.672,49.009 -42.219,13.241 -54.464,58.036 -81.252,-9.273 16.309,27.893 33.302,20.836 -2.814,10.071 -38.524,-22.259 -6.548,54.393 33.8,45.034 5.284,-19.419 27.838,30.173 70.531,-5.973 67.426,-51.892 c -31.285,-19.341 -18.599,-11.072 -55.63,-36.264 l -44.132,14.844 32.513,-19.779 20.471,-52.342 c 0.116,39.47 -0.237,29.417 1.385,46.292 l 10.519,9.564 31.893,-27.187 -10.343,-46.641 1.507,-15.385 17.68,12.848 32.536,9.86 15.398,-2.119 -8.649,13.746 -23.806,0.769 -6.59,4.038 -12.252,37.163 -28.207,21.013 129.693,20.31 49.64,-82.06 -43.817,-4.513 -24.601,43.321 -48.203,-6.52 52.287,-12.911 8.233,-27.276 -38.871,-36.789 18.503,5.191 45.052,26.836 96.802,-33.974 18.713,-103.801 -56.395,0.7 31.746,-3.622 24.811,-26.993 -2.388,-29.533 10.683,-13.966 28.491,-120.697 -10.077,-7.865 c -34.089,10.381 -23.155,7.504 -48.843,12.894 l -79.592,69.444 -15.627,-8.284 47.04,-17.9 29.851,-41.2 3.817,-15.367 28.422,0.056 60.443,-45.168 -24.653,-59.012 c -27.266,19.11 -20.071,14.645 -32.969,20.881 l -4.973,21.992 -25.142,34.837 -16.838,-2.604 21.152,-19.575 c -7.452,-109.537 -5.029,-90.057 -11.376,-112.372 l 22.854,24.255 13.798,38.307 22.734,-50.084 -26.456,-45.187 -9.903,10.563 -12.825,5.751 3.8,-10.985 -9.114,-156.208 -30.334,-19.23 -22.902,2.099 5.215,-13.585 7.614,-6.306 4.32,-17.641 -36.608,-67.896 c -13.734,37.326 -10.74,26.077 -14.16,50.483 l -13.435,-43.97 -20.549,-13.9 -9.658,-11.675 c -14.123,-7.05 -7.327,-4.05 -29.583,-12.932 l 59.914,18.046 3.687,-51.383 -119.81,-30.235 4.978,11.147 6.162,4.936 20.431,1.437 c -17.696,10.396 -11.614,7.395 -26.655,13.154 l -3.132,48.049 -11.733,-7.773 -61.652,-104.214 c 12.554,29.529 9.664,20.599 13.538,40.07 l 9.252,5.919 -3.058,38.588 -37.425,4.403 -14.324,-4.018 19.019,-2.375 23.244,-23.612 -8.472,-19.304 -57.512,-53.612 z"
               inkscape:connector-curvature="0"
               style="fill:#6067f1;fill-opacity:1" />
            <path
               id="path4196"
               d="m 1516.329,192.729 37.249,30.143 1.051,36.497 26.347,-3.869 9.973,4.786 -38.091,11.508 -12.329,9.892 -38.639,9.706 -2.337,25.748 c -11.871,-27.737 -6.722,-16.663 -22.581,-48.558 l 22.156,14.057 33.742,-14.332 7.653,-40.198 -24.194,-35.38 c 7.105,0 -7.105,0 0,0 z"
               inkscape:connector-curvature="0"
               style="fill:#6067f1;fill-opacity:1" />
            <path
               id="path4198"
               d="m 1401.749,270.072 19.192,30.558 105.08,94.463 55.06,12.995 30.332,-21.789 -66.64,38.104 -14.841,55.325 -55.689,75.224 -2.398,30.94 59.242,67.93 79.646,10.984 68.571,-34.921 -33.969,8.576 -27.654,39.377 -20.191,-8.415 -66.642,-6.172 c -1.828,23.101 -0.505,17.684 -8.056,45.191 l -16.796,3.936 9.735,-20.859 4.84,-41.34 -35.923,-50.488 -58.61,25.375 c -66.977,1.856 -52.401,2.025 -73.252,0.015 l 72.047,-15.404 38.559,-25.26 -0.761,-28.673 -22.118,-35.677 c 30.97,17.674 20.188,11.914 47.276,25.256 l 40.141,-23.236 -6.294,-31.721 5.219,-22.053 -2.012,-59.416 c -34.269,-42.413 -20.015,-23.015 -63.205,-87.007 l -75.783,-18.779 28.041,-2.717 c -5.159,-18.015 -2.389,-11.099 -12.147,-30.322 z"
               inkscape:connector-curvature="0"
               style="fill:#6067f1;fill-opacity:1" />
            <path
               id="path4200"
               d="m 1615.723,270.792 10.071,58.08 -2.527,12.734 28.273,40.038 14.08,-65.633 -19.63,-32.186 29.75,21.571 4.14,33.949 29.384,2.904 25.112,13.72 c -23.407,-0.173 -12.577,0.974 -46.857,-5.282 l -9.059,9.587 c -8.27,15.682 -4.375,8.132 -17.517,34.031 l 29.524,55.352 60.324,-21.694 c -20.351,7.219 -30.817,8.829 -57.36,32.943 l 1.75,12.682 -16.656,77.072 32.327,18.293 6.518,26.444 -25.381,-27.563 -19.796,-9.173 -12.491,14.526 -56.016,28.453 c 16.196,-16.104 2.674,1.702 82.372,-114.23 l -59.136,-116.063 -22.378,-17.549 c 9.785,-67.47 7.374,-49.308 11.179,-83.006 7.105,0 -7.105,0 0,0 z"
               inkscape:connector-curvature="0"
               style="fill:#6067f1;fill-opacity:1" />
            <path
               id="path4202"
               d="m 1406.742,360.376 29.79,16.846 39.307,7.053 c -18.141,23.681 -8.415,13.601 -42.238,43.158 l 3.536,47.751 4.792,8.21 15.808,7.75 -46.19,-1.405 -39.252,23.696 18.621,-26.27 37.475,-6.115 -3.534,-65.11 11.029,-18.186 c -27.198,-32.322 -16.168,-16.871 -29.144,-37.378 z"
               inkscape:connector-curvature="0"
               style="fill:#6067f1;fill-opacity:1" />
            <path
               id="path4204"
               d="m 1479.315,724.074 -5.326,50.271 46.262,-6.225 37.222,-25.357 -18.866,29.324 -57.191,13.434 -24.291,-1.341 -13.066,-5.797 c -20.857,5.447 -9.044,2.258 -54.131,14.657 25.405,-16.624 12.316,-10.391 59.479,-27.26 l 19.927,-17.272 -5.233,-27.251 c 0.061,0.011 15.214,2.817 15.214,2.817 z"
               inkscape:connector-curvature="0"
               style="fill:#6067f1;fill-opacity:1" />
            <path
               id="path4206"
               d="m 1618.265,738.309 3.028,-4.811 17.51,45.196 -2.536,44.64 -62.458,13.362 -5.412,-2.65 c -14.642,3.942 4.521,1.201 -129.834,16.417 l -8.086,42.136 -28.949,4.941 27.283,-30.94 -1.895,-22.682 -33.69,-34.347 17.392,12.403 137.084,3.192 10.552,-9.583 10.041,2.523 62.034,-14.703 -12.064,-65.094 c 7.105,0 -7.104,0 0,0 z"
               inkscape:connector-curvature="0"
               style="fill:#6067f1;fill-opacity:1" />
          </g>
        </g>
        <g
           id="g4228"
           style="fill:#6067f1;fill-opacity:1">
          <g
             id="g4226"
             style="fill:#6067f1;fill-opacity:1">
            <path
               id="path4212"
               d="m 1233.275,43.525 46.456,37.767 c -1.147,66.16 0.465,51.12 -6.041,74.618 l 22.089,71.756 -24.132,26.024 15.97,18.852 c -9.977,40.287 -8.789,20.309 1.56,123.692 l -31.859,57.186 30.436,82.24 1.214,66.314 -20.641,72.91 c 19.76,91.698 14.882,65.013 23.238,125.355 7.948,52.581 7.183,30.157 3.278,98.654 l -12.048,28.08 14.146,28.905 -12.909,112.965 4.818,5.233 c 1.006,10.186 0.467,6.373 2.365,16.728 l -29.46,66.158 -12.058,5.679 -7.556,-1.002 -23.727,16.018 -96.849,-18.483 c -45.099,-42.672 -34.792,-32.668 -51.058,-49.193 l -105.544,-4.897 -25.846,-15.508 c -23.684,-44.526 -16.291,-27.078 -32.399,-76.469 l -50.299,-29.271 -19.042,-28.313 -14.114,-87.683 5.231,-21.023 -5.239,-17.302 2.076,-24.509 -35.137,-35.77 9.663,-115.306 -25.457,-46.134 29.983,-64.231 6.658,-3.884 5.575,-54.429 c 29.095,-47.209 14.56,-9.81 68.782,-190.733 l 52.955,-109.669 24.486,-10.176 -4.721,-24.918 114.458,-74.359 25.485,11.5 19.328,-15.578 c 53.374,-18.449 32.207,-11.638 92.885,-29.885 l 23.001,2.091 m -71.644,61.251 -8.472,19.304 23.244,23.612 19.019,2.375 -14.324,4.018 -37.425,-4.403 -3.058,-38.588 9.252,-5.919 c 3.874,-19.47 0.984,-10.54 13.538,-40.07 l -61.651,104.214 -11.733,7.773 -3.132,-48.049 c -15.038,-5.759 -8.96,-2.759 -26.655,-13.154 l 20.431,-1.437 6.162,-4.936 4.978,-11.147 -119.811,30.235 3.687,51.383 59.915,-18.046 c -22.096,8.818 -15.762,6.033 -29.583,12.932 l -9.658,11.675 -20.549,13.9 -6.985,35.213 -6.45,8.757 c -3.42,-24.407 -0.427,-13.158 -14.16,-50.483 l -36.608,67.896 4.32,17.641 7.614,6.306 5.215,13.585 -22.902,-2.099 -30.334,19.23 -9.113,156.208 3.799,10.985 -12.825,-5.751 -9.903,-10.563 -26.456,45.187 22.734,50.084 13.798,-38.307 22.853,-24.255 c -6.347,22.318 -3.924,2.839 -11.376,112.372 l 21.152,19.575 -16.838,2.604 -25.142,-34.837 -4.973,-21.992 c -12.914,-6.244 -5.706,-1.773 -32.969,-20.881 l -24.652,59.012 60.443,45.168 28.422,-0.056 3.817,15.367 29.851,41.2 47.04,17.9 -15.626,8.284 -79.592,-69.444 c -25.684,-5.39 -14.766,-2.517 -48.843,-12.894 l -10.077,7.865 28.492,120.697 10.683,13.966 -2.388,29.533 24.811,26.993 31.746,3.622 -56.395,-0.7 18.713,103.801 96.802,33.974 45.052,-26.836 18.503,-5.191 -38.87,36.789 8.233,27.276 52.287,12.911 -48.203,6.52 -24.601,-43.321 -43.817,4.513 49.64,82.06 129.693,-20.31 -28.207,-21.013 -12.252,-37.163 -6.59,-4.038 -23.806,-0.769 -8.649,-13.746 15.398,2.119 32.536,-9.86 17.68,-12.848 1.507,15.385 -10.343,46.641 31.893,27.187 10.519,-9.564 c 1.621,-16.864 1.269,-6.934 1.385,-46.292 l 20.471,52.342 32.513,19.779 -44.133,-14.844 c -37.004,25.173 -24.357,16.93 -55.63,36.264 l 67.426,51.892 70.531,5.973 27.838,-30.173 5.284,19.419 33.8,-45.034 -6.548,-54.393 -38.524,22.259 -2.814,-10.071 33.302,-20.836 16.309,-27.893 -81.252,9.273 -54.464,-58.036 -42.219,-13.241 -7.672,-49.009 -70.407,21.748 L 914.501,865.22 899.663,779.362 847,743.066 l -4.649,-17.134 -37.417,-12.613 3.058,-14.279 27.548,6.357 19.491,-22.594 8.411,17.037 -9.661,27.662 41.381,38.99 18.242,9.012 -5.54,15.316 30.24,95.795 136.707,19.65 45.925,-28.08 -10.317,19.504 4.274,48.525 37.093,7.911 10.483,24.148 79.2,38.131 35.517,-68.13 -9.32,17.525 c 9.927,-61.044 8.505,-21.668 3.235,-195.52 l -8.873,-17.571 -16.74,-17.929 12.332,-3.497 15.236,15.712 6.173,-26.316 -16.997,-33.818 -9.207,0.236 c -72.885,33.918 -31.466,12.637 -67.23,29.085 28.121,-25.639 9.228,-5.598 94.418,-102.222 l -26.085,-145.194 -20.635,-38.559 18.07,12.39 27.239,-93.777 -11.25,-53.893 -43.573,-54.181 -97.654,9.593 24.074,-12.52 128.464,-10.261 -7.757,-55.672 -48.501,-43.63 -2.151,-15.989 c 22.138,16.159 12.873,9.163 43.564,32.952 l 2.387,-61.468 -47.061,-32.585 z"
               inkscape:connector-curvature="0"
               style="fill:#6067f1;fill-opacity:1" />
            <path
               id="path4214"
               d="m 1098.161,192.729 -24.193,35.381 7.653,40.198 33.742,14.332 22.156,-14.057 c -15.859,31.897 -10.707,20.817 -22.581,48.558 l -2.337,-25.748 -38.639,-9.706 -12.329,-9.892 -38.09,-11.508 9.973,-4.786 26.347,3.869 1.051,-36.497 37.247,-30.144 c 7.105,0 -7.105,0 0,0 z"
               inkscape:connector-curvature="0"
               style="fill:#6067f1;fill-opacity:1" />
            <path
               id="path4216"
               d="m 1204.796,285.726 -4.198,14.666 28.041,2.717 -16.987,5.413 -94.788,66.693 -38.037,65.831 14.031,49.318 -6.294,31.721 53.551,23.325 25.094,-24.401 8.771,-0.944 c -8.202,16.598 -3.5,3.939 -22.88,64.351 l 38.559,25.26 72.047,15.404 c -20.952,2.02 -6.298,1.84 -73.252,-0.015 l -13.251,-13.247 -81.282,38.36 4.84,41.34 9.735,20.859 -16.796,-3.936 c -7.729,-28.155 -6.225,-22.052 -8.056,-45.191 l -66.642,6.172 -20.192,8.415 -8.719,-18.4 -52.904,-29.553 68.571,34.921 79.646,-10.984 59.242,-67.93 -2.398,-30.94 -55.689,-75.224 -14.841,-55.325 -66.64,-38.104 30.331,21.789 103.077,-84.407 57.063,-23.05 19.191,-30.557 z"
               inkscape:connector-curvature="0"
               style="fill:#6067f1;fill-opacity:1" />
            <path
               id="path4218"
               d="m 998.767,270.792 -0.007,51.566 11.187,31.44 -22.378,17.549 -59.136,116.063 c 80.865,117.63 66.65,98.597 82.372,114.23 l -56.016,-28.453 -12.491,-14.526 -19.795,9.173 -25.381,27.563 6.518,-26.444 32.327,-18.293 -16.656,-77.072 1.75,-12.682 c -25.48,-23.147 -34.029,-24.667 -57.36,-32.943 l 60.324,21.694 29.524,-55.352 c -13.141,-25.896 -9.248,-18.351 -17.517,-34.031 l -9.059,-9.587 c -33.813,6.171 -23.346,5.108 -46.857,5.282 l 25.112,-13.72 29.384,-2.904 4.14,-33.949 29.749,-21.571 -19.63,32.186 14.081,65.633 28.273,-40.038 -2.527,-12.734 10.069,-58.08 c 7.105,0 -7.105,0 0,0 z"
               inkscape:connector-curvature="0"
               style="fill:#6067f1;fill-opacity:1" />
            <path
               id="path4220"
               d="m 1199.219,373.856 c -13.871,15.747 -9.169,10.296 -20.615,23.897 l 11.029,18.186 -3.534,65.11 37.475,6.115 18.622,26.27 -39.252,-23.696 -46.19,1.405 15.808,-7.75 7.209,-17.183 -6.818,-57.439 -19.823,-5.597 -14.478,-18.899 20.313,2.081 48.783,-25.98 z"
               inkscape:connector-curvature="0"
               style="fill:#6067f1;fill-opacity:1" />
            <path
               id="path4222"
               d="m 1145.155,748.507 19.927,17.272 c 47.153,16.865 34.069,10.633 59.479,27.26 -45.078,-12.397 -33.276,-9.211 -54.131,-14.657 -11.9,4.715 -4.359,3.064 -37.357,7.138 l -57.191,-13.434 -18.866,-29.324 16.012,12.855 67.472,18.727 -5.326,-50.271 15.213,-2.817 z"
               inkscape:connector-curvature="0"
               style="fill:#6067f1;fill-opacity:1" />
            <path
               id="path4224"
               d="m 996.225,738.309 -12.065,65.093 62.034,14.703 10.041,-2.523 10.552,9.583 137.085,-3.192 17.392,-12.403 -33.69,34.347 -1.895,22.682 27.283,30.94 -28.95,-4.941 -8.086,-42.136 c -134.361,-15.216 -115.192,-12.474 -129.834,-16.417 l -5.412,2.65 -62.458,-13.362 -2.536,-44.64 17.51,-45.196 3.029,4.812 c 7.104,0 -7.105,0 0,0 z"
               inkscape:connector-curvature="0"
               style="fill:#6067f1;fill-opacity:1" />
          </g>
        </g>
      </g>
      <path
         id="path4232"
         d="m 303.085,661.804 0.075,0.036 z"
         inkscape:connector-curvature="0"
         style="fill:#6067f1;fill-opacity:1" />
    </g>
    <text
       xml:space="preserve"
       style="font-style:normal;font-variant:normal;font-weight:normal;font-stretch:normal;font-size:8.18283272px;line-height:1.25;font-family:Dyuthi;-inkscape-font-specification:Dyuthi;letter-spacing:0px;word-spacing:0px;fill:#6067f1;fill-opacity:1;stroke:none;stroke-width:0.2045708"
       x="106.21284"
       y="121.83589"
       id="text4276"><tspan
         sodipodi:role="line"
         id="tspan4274"
         x="106.21284"
         y="121.83589"
         style="font-style:normal;font-variant:normal;font-weight:normal;font-stretch:normal;font-size:4.09141684px;font-family:Chilanka;-inkscape-font-specification:Chilanka;fill:#6067f1;fill-opacity:1;stroke-width:0.2045708">MaturaHUB</tspan></text>
  </g>
</svg>
