<?xml version="1.0" encoding="UTF-8" standalone="no"?>
<svg
   xmlns:dc="http://purl.org/dc/elements/1.1/"
   xmlns:cc="http://creativecommons.org/ns#"
   xmlns:rdf="http://www.w3.org/1999/02/22-rdf-syntax-ns#"
   xmlns:svg="http://www.w3.org/2000/svg"
   xmlns="http://www.w3.org/2000/svg"
   xmlns:sodipodi="http://sodipodi.sourceforge.net/DTD/sodipodi-0.dtd"
   xmlns:inkscape="http://www.inkscape.org/namespaces/inkscape"
   enable-background="new 97.035 89.801 2907.929 1767.398"
   version="1.1"
   width="739.25812"
   height="449.31061"
   id="svg22"
   sodipodi:docname="orzel.svg"
   inkscape:version="0.92.4 (33fec40, 2019-01-16)">
  <metadata
     id="metadata28">
    <rdf:RDF>
      <cc:Work
         rdf:about="">
        <dc:format>image/svg+xml</dc:format>
        <dc:type
           rdf:resource="http://purl.org/dc/dcmitype/StillImage" />
      </cc:Work>
    </rdf:RDF>
  </metadata>
  <defs
     id="defs26" />
  <sodipodi:namedview
     pagecolor="#ffffff"
     bordercolor="#666666"
     borderopacity="1"
     objecttolerance="10"
     gridtolerance="10"
     guidetolerance="10"
     inkscape:pageopacity="0"
     inkscape:pageshadow="2"
     inkscape:window-width="1920"
     inkscape:window-height="1052"
     id="namedview24"
     showgrid="false"
     inkscape:zoom="0.17070189"
     inkscape:cx="-1126.8954"
     inkscape:cy="997.93924"
     inkscape:window-x="1920"
     inkscape:window-y="0"
     inkscape:window-maximized="1"
     inkscape:current-layer="svg22" />
  <rect
     id="backgroundrect"
     width="25.422153%"
     height="25.422153%"
     x="0"
     y="0"
     style="fill:none;stroke:none;stroke-width:0.25422153" />
  <g
     class="currentLayer"
     id="g20"
     transform="matrix(0.25422152,0,0,0.25422152,-9.84375e-5,-2.3437501e-6)">
    <title
       id="title3">Layer 1</title>
    <path
       d="m 2802.7,334.12715 c -19.8,7.89 -39.76,15.39 -59.31,23.9 -20.83,8.84 -41.21,18.67 -61.95,27.7 -17.79,8.21 -35.42,16.86 -53.8,23.71 15.78,-10.72 30.39,-23.08 44.96,-35.37 15.26,-12.73 29.08,-27.02 43.08,-41.08 13.68,-14.08 26.22,-29.21 38.2,-44.73 10.2,-13.18 18,-27.94 27.17,-41.8 5.17,-7.83 9.23,-16.3 13.37,-24.7 5.43,-10.79 11.52,-21.23 16.74,-32.12 2.71,-6.47 6.12,-12.59 9.3,-18.83 2.11,-4.83 5.46,-9.64 4.4,-15.19 -14.48,12.08 -29,24.11 -43.54,36.12 -11.04,9.17 -23.1,16.98 -34.93,25.09 -8.65,6 -16.73,12.81 -25.65,18.42 -18,11.35 -35.16,24.15 -54.31,33.57 -6.42,2.95 -12.63,6.29 -18.18,10.68 6.62,-8.63 13.49,-17.05 20.01,-25.75 10.65,-14.63 23.29,-27.65 34.19,-42.08 11.15,-14.53 21.22,-29.89 30.05,-45.93 4.53,-8.11 7.85,-16.8 11.64,-25.26 7.42,-16.87 15.2,-33.8 19.06,-51.929997 3.2,-14.35 8.4,-28.26 10.25,-42.91 1.68,-10.39 1.92,-20.93 3.43,-31.34 -5.8,7.9 -11.05,16.19 -16.78,24.15 -19.96,27.67 -40.68,54.97 -64.64,79.339997 -6.63,6.76 -12.65,14.06 -18.89,21.16 -14.21,16.44 -28.85,32.49 -43.44,48.58 -23.54,25.4 -48.88,49.06 -74.28,72.57 -31.85,28.71 -64.74,56.32 -99.2,81.87 -16.33,12.18 -32.81,24.22 -50.31,34.69 -9.69,6.03 -19.35,12.12 -29.39,17.55 -10.87,6.02 -21.92,11.81 -32.05,19.05 -12.08,8.61 -24.57,16.63 -36.44,25.54 -8.27,5.67 -16.22,11.85 -24.95,16.8 7.67,-7.22 15.68,-14.11 22.53,-22.15 6.1,-7.23 12.18,-14.48 18.19,-21.78 5.2,-6.82 10.91,-14.14 11.58,-23.02 -9.88,0.64 -19.63,2.47 -29.43,3.76 -16.27,3.15 -32.77,5.55 -48.53,10.86 -14.81,4.45 -29.33,9.74 -43.88,14.97 -15.32,5.66 -29.09,14.63 -42.91,23.17 -6.66,4.54 -14.07,7.84 -20.74,12.35 -6.7,4.57 -10.92,11.91 -17.87,16.15 -16.79,12.05 -34.55,22.67 -51.57,34.38 -26.56,18.28 -53.62,35.8 -80.52,53.57 -30.16,19.82 -60.08,40.03 -90.67,59.19 -34.26,20.56 -68.59,41.16 -104.76,58.24 -11.21,5.54 -22.84,10.23 -33.82,16.25 -8.1,3.58 -15.4,8.66 -23.45,12.34 -8.68,4.72 -17.56,9.05 -26.07,14.07 -8.42,5 -17.64,8.38 -26.52,12.43 -10.52,3.81 -21.12,7.49 -32.11,9.69 -9.42,2.86 -18.89,5.58 -28.6,7.27 -7.8,1.39 -15.25,4.41 -23.02,5.75 -13.12,-1.51 -26.27,-3.54 -38.94,-7.32 -11.11,-3.01 -22.23,-6.04 -33.08,-9.88 -4.12,-1.44 -7.68,-4.2 -11.94,-5.19 -2.8,-0.36 -5.62,-0.23 -8.36,-0.86 0.71,-5.4 -3.83,-9.46 -8.22,-11.62 -3.29,-1.81 -7.42,-2.02 -10.09,-4.85 -6.9,-6.62 -15.18,-11.55 -23.73,-15.71 1.61,-1.06 3.98,-1.79 4.54,-3.9 0.21,-2.45 -1.39,-4.69 -3.59,-5.59 -7.13,-2.9 -14.92,-3.58 -22.19,-5.98 -12.87,-5.38 -25.69,-11.09 -39.36,-14.17 -15.39,-3.81 -31.13,-6.91 -47.04,-6.68 -8.35,0.01 -16.61,1.21 -24.83,2.54 -3.67,-1.12 -7.48,-0.04 -11.13,0.48 -8.88,1.48 -17.53,4.23 -26.51,5.09 -9.67,1.66 -19.41,3.45 -28.49,7.31 -17.06,6.76 -34.57,15.13 -46.28,29.76 -3.76,4.37 -5.2,10.02 -7.35,15.23 -1.6,3.81 -1.85,7.98 -1.87,12.07 -25.68,-7.21 -51.57,-14.06 -76.21,-24.45 -37.63,-14.7 -74.39,-31.66 -109.62,-51.43 -30.11,-17.21 -60.08999,-34.67 -88.93999,-53.94 -32.84,-21.49 -65.46,-43.33 -98.35,-64.75 -21.1,-13.88 -41.68,-28.54 -63,-42.09 -6.51,-4.14 -12.73,-8.78 -19.76,-12.02 -9.9,-4.84 -18.9,-11.24 -28.65,-16.31 -7.61,-4.37 -14.84,-9.34 -22.41,-13.75 -11.35,-6.96 -23.28,-12.99 -34.21,-20.63 -10.92,-8.33 -24.2,-12.49 -36.16,-19.01 -10.23,-5.7 -21.03,-10.46 -32.25,-13.81 -10.09,-1.29 -20.31,-0.83 -30.45,-1.24 -8.05,-0.81 -16.18,-1.67 -24.23,-0.47 1.19,7.89 6.07,14.51 10.79,20.7 5.31,6.65 10.93,13.04 16.31,19.64 7.34,8.87 15.88,16.63 24.42,24.32 -1.91,-0.97 -3.78,-2.01 -5.64,-3.04 -14.75,-10.27 -29.16,-21.02 -44.1,-31.02 -9.86,-6.93 -19.69,-13.97 -30.34,-19.66 -15.27,-8.19 -30.2,-16.98 -44.8,-26.31 -14.18,-8.55 -27.57,-18.29 -40.87,-28.12 -48,-35.32 -93.28,-74.26 -136.17,-115.61 -12.58,-12.11 -25.2,-24.19 -37,-37.07 -19.06,-20.62 -37.81,-41.53 -56.09,-62.84 -12.96,-14.88 -24.54,-30.88 -36.2,-46.769997 -8.4,-11.16 -19.46,-19.83 -28.8,-30.12 -8.14,-8.84 -17.18,-16.87 -24.69,-26.29 -3.45,-4.1 -6.34,-8.67 -10.04,-12.57 -0.95,2.41 -1.77,4.98 -1.1,7.58 1.71,9.28 3.9,18.49 6.48,27.57 7.09,27.75 16.64,54.929997 29.28,80.659997 9.64,19.66 19.31,39.38 31.26,57.76 12.43,19.79 27.55,37.65 42.73,55.34 9.39,12.18 18.72,24.42 28.29,36.47 -20.01,-14.1 -39.58,-28.83 -58.99,-43.76 -20.67,-14.86 -41.52,-29.5 -63.03,-43.12 -14,-9.38 -28.06,-18.67 -42.01,-28.13 -3.59,-2.4 -7.03,-5.04 -10.81,-7.14 0.05,2.11 -0.17,4.33 0.7,6.33 2.66,6.8 6.3,13.14 9.59,19.63 4.55,10.42 10.01,20.4 15.39,30.4 5.7,10.4 10.26,21.42 16.67,31.42 4.32,6.7 8.59,13.43 12.68,20.26 9.66,16.56 21.77,31.49 34.11,46.1 10.68,12.89 22.6,24.67 34.44,36.48 21.73,21.88 45.85,41.22 70.47,59.71 -12.13,-4.67 -24.06,-9.88 -35.81,-15.45 -17.46,-8.36 -35.32,-15.88 -52.85,-24.1 -20.42,-9.23 -41.03,-18.03 -61.96,-26.04 -11.79,-4.69 -23.53,-9.55 -35.59,-13.51 -7.53,-2.41 -14.9,-5.74 -22.86,-6.43 8.88,13.7 18.64,26.83 28.99,39.46 4.96,5.98 9.59,12.3 15.49,17.42 11.22,10.11 21.8,20.89 32.35,31.68 12.94,13.4 27.12,25.51 40.98,37.95 10.4,9.41 21.95,17.4 32.88,26.15 8.19,6.18 16.62,12.03 24.71,18.34 8.81,6.78 18.48,12.32 28.14,17.79 23.67,13.81 49.23,24.09 75.26,32.48 -17.63,-2.76 -35.16,-6.94 -53.1,-7.06 -17.61,-1.11 -35.24,-0.75 -52.86,-0.3 -9.53,0.28 -19.03,-0.6 -28.52,-1.34 1.06,1.4 2.12,2.81 3.31,4.13 13.56,14.06 30.11,24.65 45.75,36.18 14.32,10.57 28.82,21 44.45,29.58 13.53,6.92 27.2,14 42.01,17.76 -5.68,-0.03 -11.32,-0.82 -16.99,-0.95 -9.01,-0.31 -18.14,0.75 -26.68,3.68 -3.58,1.2 -6.78,3.29 -9.29,6.11 -0.71,-0.36 -2.14,-1.06 -2.86,-1.42 1.53,3.37 1.49,7.23 3.27,10.51 4.87,10.22 13.75,17.7 22.57,24.44 7.27,5.7 16.2,8.75 23.49,14.43 14.55,10.27 29.93,19.66 46.8,25.6 -2.59,5.52 0.48,11.3 3.9,15.65 4.35,5.16 11.12,6.93 16.79,10.15 8.96,5.05 19.08,7.4 28.34,11.78 2.42,1.08 4.93,2.3 7.66,2.24 9.36,0.06 18.73,-0.25 28.09,0.2 8.74,0.22 17.58,0.97 26.23,-0.77 5.86,-1.18 11.74,-2.36 17.51,-3.94 -10.08,6.44 -19.71,13.78 -27.53,22.9 -8,9.18 -16.29,18.48 -21.32,29.7 -2.54,5.01 -1.55,10.8 -3.25,16.03 0.31,5.01 0.48,10.17 2.24,14.93 2.28,5.7 7.78,9.01 11.35,13.78 2.21,2.77 3.7,6.14 6.48,8.45 3.73,3.11 8.25,5.04 12.32,7.64 5.11,3.11 8.78,8.01 13.68,11.4 3.74,2.63 7.68,4.98 11.61,7.33 3.19,2.04 7.15,0.99 10.44,-0.21 -5.07,7.07 -8.18,15.82 -6.97,24.6 1.89,12.76 7.24,24.63 10.59,37.02 2.31,8.35 7.15,16.11 14.06,21.41 3.44,2.72 7.94,2.99 12.08,3.85 -1.19,7.95 2.87,15.47 7.85,21.36 4.52,5.09 9.44,9.94005 15.12,13.75005 7.06,4.57 14.37,8.82 20.89,14.18 3.31,2.62 5.65,6.61 9.79,8.08 4.46,1.66 9.13,-0.23 13.51,-1.26 2.36,7.45 4.14,15.07 5.99,22.67 1.72,7.34 7.39,12.64 11.94,18.31 3.06,3.86 8.24,4.13 12.65,5.22 5.43,1.34 11.04,1.05 16.57,1.31 5.45,0.84 10.92,1.68 16.46,1.71 -4.99,13.84 -2.86,29.11 2.42,42.53 1.49,4.15 5.22,7 9.26,8.49 7.83,2.94 16.21,3.97 24.34,5.81 12.05,1.96 24.31,4.48 36.56,2.91 -2.78,5.47 -5.58,11.35 -5.23,17.65 0.17,4.22 3.34,7.77 7.29,9.01 5.9,1.95 12.1,2.78 18.05,4.61 10.09,3.24 20.74,4.14 30.88,7.21 18.27,5.03 38.02,0.67 53.96,-9.05 -1.32,7.5 -0.42,16.38 5.96,21.42 7.56,5.77 17.41,6.92 25.79,11.12 10.41,5.5 21.48,9.61 32.63,13.32 5.53,1.98 11.52,1.98 17.15,0.35 0.25,3.53 1.18,7.25 4.05,9.6 4.61,4 8.81,8.59 14.11,11.75 17.03,9.43 37.80999,10.73 56.35999,5.34 0.57,4.43 0.6,8.91 1.23,13.34 1.03,6.17 6.25,10.83 11.95,12.86 6.44,2.16 13.12,5.12 20.07,3.54 11.67,-2.42 23.54,-4.65 34.63,-9.1 0.01,5.93 0.49,12.11 3.5,17.39 2.75,5.97 7.86,10.38 13.51,13.56 11.15,6.41 20.57,17.5 34.2,18.29 9.06,1 18.16,-2.38 24.64,-8.72 0.76,6.08 1.83,12.69 6.21,17.35 2.29,2.57 5.76,3.48 9.03,4.11 13.22,2.3 27.62,1.87 39.55,-4.84 5.1,-4.51 7.33,-11.26 9.93,-17.35 3.75,1.08 7.71,1.73 11.6,0.92 8.81,-1.72 17.45,-4.83 24.96,-9.81 7.06,-4.52 13.18,-10.31 19.34,-15.94 4.81,-4.88 9.61,-9.87 13.33,-15.66 3.2,-5.11 8.28,-8.56 13.01,-12.11 2.18,1.5 4.6,3.5 7.48,2.76 2.68,-1.18 4.15,-3.99 6.64,-5.49 3.91,-2.55 7.81,-5.19 12.02,-7.23 3.53,12.09 5.47,24.52 7.94,36.85 -2.49,1.23 -4.84,2.73 -6.9,4.58 -8.32,-1.26 -16.27,2.35 -23.07,6.77 -5.51,3.18 -7.25,10.03 -12.59,13.44 -24.11,15.25 -48.99,29.27 -72.58,45.35 -14.06,9.52 -27.18,20.32 -40.94,30.25 -13.52,10.57 -26.9,21.67 -37.4,35.36 -3.37,4.42 -6.73,8.95 -8.97,14.07 -1.6,3.43 -0.28,7.66 2.69,9.91 4.3,3.43 8.84,6.58 13.61,9.33 8.09,4.67 17.36,6.81 26.56,7.97 -3.66,5.35 -7.54,10.64 -9.99,16.69 -1.55,3.74 -1.53,8.38 0.93,11.75 2.43,3.5 6.6,5.08 10.35,6.76 11.51,4.66 23.28,8.96 35.62,10.8 7.84,1.17 15.86,0.29 23.38,-2.16 -3.12,7.34 -5.4,15.02 -7.27,22.77 -1.06,5.01 -1.88,10.56 0.51,15.34 2.33,4.89 7.27,7.9 12.27,9.55 9,2.5 18.68,5.63 27.87,2.1 -1.38,8.57 -1.25,17.29 -1.26,25.95 -0.08,4.18 0.63,8.75 3.74,11.82 3.01,3.24 7.53,4.18 11.74,4.69 3.87,0.3 6.92,3.36 10.85,3.42 4.29,0.1 8.4,-1.37 12.53,-2.36 7.6,-2.02 13.38,-7.73 18.46,-13.42 0.72,9.07 3.5,17.99 8.32,25.72 7.58,12.35 15.73,24.33 23.58,36.51 2.42,3.92 6.24,7.82 11.25,7.48 6.17,-0.08 10.51,-5.1 14.66,-9.01 2.04,10.24 5.7,20.25 11.83,28.78 8.35,11.68 16.82,24.48 30.46,30.46 -0.85,2.07 -1.03,4.32 1.13,5.68 3.16,-0.89 6.55,0.13 9.66,-1.13 9.45,-3.6 17.11,-10.67 23.07,-18.69 4.54,-5.91 9.1,-11.84 12.88,-18.27 4.22,-7.23 6.76,-15.31 8.38,-23.49 4.22,4 8.66,8.97 14.95,9.16 4.86,0.17 8.71,-3.39 11.07,-7.31 8.07,-12.52 16.47,-24.85 24.25,-37.56 4.78,-7.74 7.41,-16.65 8.27,-25.66 5.06,5.86 11.02,11.59 18.72,13.62 4.19,0.98 8.38,2.52 12.76,2.34 3.57,-0.1 6.37,-2.8 9.86,-3.29 4.01,-0.67 8.38,-1.11 11.62,-3.88 3.52,-2.72 4.89,-7.31 4.87,-11.6 0.04,-9.24 0.2,-18.53 -1.26,-27.67 9.2,3.61 19,0.51 28.04,-2 5.29,-1.69 10.49,-5.02 12.81,-10.26 2.14,-4.82 1.25,-10.26 0.2,-15.22 -1.9,-7.72 -4.17,-15.36 -7.26,-22.69 14.78,5.23 30.66,1.65 44.98,-3.27 7.1,-2.68 14.45,-4.92 21.07,-8.7 4.7,-2.61 7.41,-8.69 5.51,-13.83 -2.29,-6.83 -6.63,-12.67 -10.67,-18.53 10.99,-1.36 22,-4.38 31.2,-10.75 3.81,-2.75 8.07,-5.09 11.21,-8.64 2.72,-3.58 1.37,-8.42 -0.93,-11.83 -11.24,-18.84 -28.24,-33.23 -45.36,-46.54 -11.2,-8.09 -21.99,-16.72 -33.17,-24.82 -26.14,-18.7 -54.34,-34.25 -81.42,-51.5 -5.08,-3.34 -6.88,-9.77 -11.96,-13.05 -6.92,-4.62 -15.05,-8.39 -23.58,-7.26 -2.38,-1.57 -4.64,-3.31 -7.23,-4.49 0.76,-4.6 1.78,-9.14 2.69,-13.7 3.6,1 8.05,0.85 10.31,-2.62 3.99,-5.56 0.67,-12.46 -0.41,-18.39 4.55,2.42 8.89,5.3 12.43,9.11 2.9,2.8 6.84,0.3 9.4,-1.71 2.14,1.62 4.32,3.22 6.4,4.96 6.29,4.86 9.42,12.49 15.16,17.92 11.27,11.58 23.59,23.25 39.26,28.44 7.09,2.3 14.89,4.73 22.19,1.8 2.77,6.23 4.96,13.26 10.38,17.79 13.25,7.14 29.3,7.32 43.66,3.75 8.46,-2.76 10.49,-12.74 11.45,-20.48 4.03,3.07 8.18,6.29 13.2,7.57 6.8,1.71 14.25,1.62 20.81,-1.05 7.09,-3.08 13.18,-7.93 19.36,-12.47 5.71,-4.19 12.69,-7 16.89,-12.96 4.82,-6.36 6.69,-14.38 6.4,-22.26 7.41,3.26 15.45,4.67 23.24,6.73 7.43,1.38 15.18,4.4 22.72,1.91 6.37,-2.09 13.62,-3.53 18.06,-9.03 4.94,-5.63 3.45,-13.61 4.57,-20.46 18.86,5.32 39.98,4.12 57.23,-5.6 5.31,-3.21 9.54,-7.83 14.17,-11.9 2.82,-2.39 3.67,-6.15 3.92,-9.67 5.82,1.92 12.19,1.61 17.96,-0.39 6.92,-2.34 13.81,-4.84 20.55,-7.69 6.87,-2.79 13.19,-6.81 20.32,-8.98 6.84,-2.61 14.66,-4.21 19.7,-9.96 4.63,-5.31 4.99,-12.9 3.84,-19.53 14.66,8.75 32.38,13.62 49.4,10.22 6.77,-1.15 13.28,-3.52 20.09,-4.55 9.89,-1.46 19.28,-5.05 29.09,-6.95 4.87,-1 10.72,-2.83 12.34,-8.16 1.62,-7.12 -1.65,-14.11 -4.84,-20.29 7.48,0.96 15.06,0.39 22.51,-0.69 11.17,-1.39 22.19,-3.75 33.17,-6.24 5.64,-1.52 12.13,-3.66 14.76,-9.41 3.24,-7.2 4.79,-15.05 5.68,-22.85 0.75,-7.21 -0.69,-14.36 -2.66,-21.25 7.06,0.27 13.91,-1.93 20.96,-1.74 6.78,-0.06 13.5,-1.25 20.02,-3.09 4.93,-1.67 7.44,-6.63 10.74,-10.3 3.18,-3.56 5.57,-7.8 6.65,-12.47 1.72,-7.42 3.52,-14.82 5.82,-22.08 4.57,1.03 9.42,2.97 14.05,1.11 4.25,-1.81 6.7,-6.03 10.32,-8.73 9.8,-8.03 21.87,-13.01 30.65,-22.31005 7.26,-6.96 14.2,-16.18 12.99,-26.83 4.18,-0.85 8.75,-1.21 12.23,-3.99 6.93,-5.41 11.81,-13.25 14.11,-21.71 3.41,-12.63 8.89,-24.73 10.71,-37.76 1.04,-8.59 -2.02,-17.1 -6.89,-24.08 3.31,0.82 7.22,1.82 10.4,-0.08 6.96,-4.14 14.01,-8.37 19.65,-14.29 6.56,-7.06 17.66,-8.65 22.49,-17.49 3.05,-5.46 8.39,-9.02 12.02,-14.03 3.7,-5.24 3.48,-11.96 4.09,-18.06 -0.95,-3.79 -1.36,-7.65 -1.69,-11.53 -1.48,-6.3 -5.03,-11.86 -8.62,-17.14 -11.67,-15.93 -25.19,-31.02 -42.51,-40.9 11.42,2.54 22.92,5.77 34.76,4.97 13.03,-0.67 26.08,-0.54 39.13,-0.59 5.82,-1.04 10.84,-4.6 16.51,-6.25 10.36,-3.26 19.91,-8.46 29.6,-13.27 5.6,-2.79 9.2,-8.36 10.99,-14.2 0.58,-2.25 -0.49,-4.42 -1.05,-6.53 18.54,-6.24 35.08,-17.03 50.91,-28.29 6.54,-4.27 13.9,-7.18 20.1,-12.01 9.02,-6.89 18.14,-14.57 23.05,-25.06 1.64,-3.11 1.7,-6.71 2.99,-9.94 -1.06,0.3 -2.09,0.57 -3.1,0.8 -0.68,-0.77 -1.28,-1.56 -1.82,-2.37 -15.69,-9.45 -34.87,-7.66 -52.32,-5.98 14.8,-3.79 28.53,-10.68 42.08,-17.57 16.14,-8.66 31.04,-19.4 45.77,-30.24 14.11,-10.5 29.06,-20.01 41.84,-32.18 3.15,-2.9 6.5,-5.8 8.46,-9.68 1.28,-2.74 1.05,-6.56 -1.54,-8.45 -2.18,-1.89 -5.21,-1.18 -7.74,-0.79 -5.58,1.03 -11.23,1.46 -16.83,2.22 -14.1,1.75 -28.02,4.67 -42.11,6.38 -23.03,2.86 -46.02,6.07 -68.83,10.36 27.3,-8.53 53.97,-19.48 78.68,-33.97 8.6,-4.92 17.23,-9.86 25.14,-15.85 23.22,-17.58 47.3,-34.18 68.65,-54.07 6.21,-5.51 12.51,-10.93 18.49,-16.69 13.08,-11.93 24.72,-25.33 37.72,-37.34 8.04,-6.73 13.62,-15.74 20.36,-23.66 11,-13.19 21.4,-26.94 29.95,-41.87 -11.48,2.95 -22.56,7.24 -33.71,11.18 z m -133.54,-41.56 c 16.65,-11.73 32.89,-24.02 49.14,-36.29 10.19,-7.77 20.86,-14.89 31.04,-22.7 14.02,-10.95 27.75,-22.27 41.2,-33.93 -4.28,8.21 -8.63,16.37 -12.64,24.71 -5,10.26 -11.76,19.48 -17.62,29.23 -4.65,7.55 -9.58,14.95 -15.23,21.79 -10.67,12.66 -21.77,24.95 -32.84,37.25 -12.12,12.86 -24.68,25.31 -37.45,37.53 -14.03,12.7 -28.62,24.78 -43.53,36.42 -16.27,12.49 -33.31,23.92 -49.87,36 -6.95,4.65 -12.91,11.08 -21.02,13.7 -23.07,8.76 -46.22,17.33 -69.41,25.75 -28.71,10.89 -57.24,22.26 -85.84,33.44 -10.32,3.88 -20.16,9 -30.71,12.24 4.98,-7.38 10.2,-14.62 14.62,-22.37 7.21,-12.5 15.83,-24.26 21.29,-37.7 0.76,-1.76 1.08,-4.1 3.3,-4.62 20.17,-8.31 40.72,-15.79 60.26,-25.57 20.13,-9.71 39.47,-20.97 58.48,-32.7 30.89,-18.67 59.85,-40.26 89.89,-60.21 15.66,-10.64 31.52,-20.98 46.94,-31.97 z m -267.35,111.6 c 17.63,-10.85 35.44,-21.49 52.11,-33.81 33.16,-24.33 66.09,-49.06 97.44,-75.71 28.51,-24.53 57.13,-48.92 86.07,-72.93 1.9,-1.58 3.8,-3.18 5.62,-4.9 -19.56,15.98 -39.19,31.9 -59.5,46.9 25.51,-23.74 50.78,-47.84 73.83,-74.01 14.56,-15.82 28.74,-31.99 42.79,-48.27 19.57,-22.45 36.25,-47.189997 54.12,-70.969997 -8.02,22.14 -17.02,43.939997 -27.3,65.129997 -7.3,15.58 -16.29,30.26 -25.08,45.02 -13.54,23.1 -29.2,44.9 -45.76,65.91 -13.82,15.79 -28.67,30.65 -43.03,45.95 -9.15,9.52 -17.88,19.44 -27.19,28.8 -2.7,2.77 -6.16,4.57 -9.34,6.68 -15.98,10.28 -31.38,21.4 -47.38,31.64 -18.23,11.5 -36.42,23.06 -55.02,33.95 -23.48,13.62 -46.54,28.02 -70.7,40.42 -9.61,-2.3 -19.42,-0.23 -29.06,0.59 -14.02,1.94 -28.26,1.98 -42.14,4.93 24.18,-9.68 47.01,-22.3 69.52,-35.32 z m -883.88,345.17 c 2.43,-1.55 3.32,-4.49 3.03,-7.24 2.77,3.9 7.65,5.09 11.62,7.36 5.9,3.2 12.39,5.03 18.89,6.61 9.8,2.63 19.7,4.94 29.75,6.46 -12.53,3.45 -25.3,5.95 -37.85,9.28 -6.65,2.23 -14.57,2.75 -19.67,8.02 -0.78,3.1 2.76,3.19 4.81,2.56 18.96,-3.82 38,-7.28 56.85,-11.64 14.06,-3.33 28.11,-6.69 42.22,-9.86 4.34,-0.93 8.34,-3.14 12.86,-3.34 13.28,-2.74 26.41,-6.25 39.36,-10.26 8.29,-3.22 16.58,-6.43 25.05,-9.16 9.35,-3.48 19.13,-5.65 28.36,-9.49 11.22,-3.48 22.5,-7.19 32.56,-13.38 38.59,-16.05 76.21,-34.51 112.13,-55.9 17.72,-10.57 35.58,-20.94 52.71,-32.45 15.63,-10.21 30.43,-21.6 45.85,-32.11 23.06,-15.7 46.47,-30.87 69.73,-46.28 24.57,-15.99 48.44,-33.05 73.17,-48.81 18.79,-12.09 36.62,-25.62 55.52,-37.56 14.57,-9.47 29.43,-18.5 44.33,-27.45 17.34,-10.3 35.71,-19.02 55.09,-24.7 6.32,-1.43 12.64,-2.87 18.91,-4.52 8.66,-2.25 17.54,-3.64 26.09,-6.36 -6.95,8.56 -14.19,16.88 -21.16,25.41 -10.11,11.49 -20.89,22.37 -31.24,33.63 -5.6,5.73 -10.87,11.89 -17.18,16.85 -11.94,6.97 -23.4,14.69 -34.95,22.26 -6.27,4.08 -11.8,9.27 -16.26,15.26 5.82,-3.3 11.07,-7.56 17.32,-10.11 16.63,-7.35 32.1,-17 48.57,-24.67 13.59,-5.91 27.48,-11.47 42.05,-14.45 11.8,-2.45 22.97,-7.25 34.86,-9.31 15.64,-2.84 31.62,-1.41 47.38,-3.09 -8.28,9.38 -13.84,20.74 -21.97,30.22 -14.06,17.03 -26.93,34.99 -40.96,52.03 -16.35,19.25 -33.46,37.98 -52.89,54.2 -15.5,13.26 -31.84,25.51 -48.54,37.22 -6.55,4.67 -14.36,7.02 -21.35,10.88 -11.33,6.09 -22.26,13.04 -34.37,17.55 -13.19,4.92 -25.66,11.49 -38.25,17.72 -27.26,13.96 -56.64,23.06 -85.98,31.46 -35.09,9.17 -69.56,20.49 -104.04,31.68 -14.27,4.89 -28.7,9.26 -42.95,14.19 -30.83,10.47 -62.43,18.43 -94.1,25.87 -35.31,8.64 -69.44,21.4 -103.26,34.58 0.09,1.82 0.19,3.65 0.33,5.49 17.05,-2.19 33.4,-7.62 49.9,-12.21 10.91,-3.26 21.93,-6.13 32.9,-9.21 -0.18,0.72 -0.54,2.17 -0.72,2.9 1.67,-1.81 3.32,-3.93 5.93,-4.33 14.79,-3.59 29.54,-7.47 44.51,-10.22 -1.09,6.82 -6.09,11.78 -9.31,17.59 -3.53,-2.04 -6.43,-6.65 -11.07,-5.53 -3.26,1.14 -2.32,5.16 -1.44,7.68 -3.89,7.12 -4.85,15.5 -9.49,22.27 -5.95,8.68 -14.52,15.05 -22.06,22.26 -3.43,-2.94 -6.31,-6.46 -8.64,-10.3 4.7,-6.62 2.41,-14.82 2.38,-22.26 1.7,-3.55 4.05,-6.81 4.83,-10.76 -3.47,-0.95 -7.13,-1.78 -10.58,-0.34 -0.75,5.75 -1.03,11.67 -3.29,17.09 -2.56,6.18 -2.78,13.35 -7.14,18.71 -5.18,6.93 -17.81,5.05 -20.62,-3.21 -2.31,0.7 -6.09,1.32 -5.92,4.49 0.17,9.13 -2.23,18.01 -3.1,27.05 -0.72,10.35 -13.35,19.35 -22.97,13.65 -6.09,-4.04 -12.74,-8.55 -14.82,-16 -1.06,0.29 -3.18,0.86 -4.25,1.15 0.2,-1.91 0.88,-3.66 1.8,-5.31 -2.47,2.74 -6.37,3.77 -8.44,6.9 -1.9,2.57 -2.01,5.87 -3.13,8.76 -1.87,2.48 -5.06,3.33 -7.71,4.67 -0.74,-0.82 -1.46,-1.62 -2.14,-2.41 -6.85,-1.67 -12.41,4.22 -14.08,10.3 -6.48,1.54 -13.18,2.11 -19.48,4.39 2.81,-5.9 0.04,-12.6 -3.32,-17.66 -1.76,-2.66 -5.14,-2.08 -7.53,-0.78 -4.93,-5.46 -10.85,-10.3 -17.94,-12.57 -3.95,-1.26 -7.98,-2.27 -12.07,-2.9 3.5,1.26 7.06,2.51 10.16,4.64 4.68,3.14 9.81,6.17 12.76,11.18 1.46,2.23 2.26,5.02 4.41,6.75 1.62,1.25 3.75,0.53 5.62,0.45 0.86,2.86 1.96,5.69 2.5,8.66 -0.18,2.61 -1.02,5.13 -1.89,7.59 -1.96,18.68 -7.2,36.94 -13.4,54.65 -2.87,8.44 -6.2,16.73 -9.97,24.8 -5.28,0.5 -8.75,4.88 -11.37,9.03 -2.08,3.2 -3.9,6.55 -5.54,9.99 -0.25,-19.84 -5.82,-39.09 -6.8,-58.86 -0.06,9.66 0.88,19.33 0.15,28.99 -1.15,15.02 -2.25,30.05 -3.8,45.04005 -0.1,3.81 -4,6.11 -4.34,9.85 -0.15,3.88 -2.42,7.12 -4.04,10.51 -1.91,3.8 -3.91,7.56 -5.77,11.39 -8.19,1.32 -16.39,3.73 -22.97,8.97 -6,4.99 -12.9,8.89 -18.18,14.7 -4.28,3.97 -8.38,9.28 -14.67,9.74 -7.82,0.88 -16.11,2.46 -22.29,7.68 -4.82,-13.72 -11.11,-27.17 -12.29,-41.88 0.63,12.04 3.33,23.9 3.66,35.96 -2.14,3.17 -4.45,6.26 -6.3,9.63 -2.24,4.09 -5.42,8.92 -10.68,8.87 -2.83,-0.05 -5.23,2.31 -8.09,1.27 l 1.75,-0.17 c -1.37,-9.71 -4.02,-19.13 -6.38,-28.62 1.06,9.12 2.23,18.25 4.53,27.16 -1.3,-2.87 -2.45,-5.81 -3.71,-8.67 -0.42,2.53 -0.67,5.12 -0.93,7.69 -5.44,-3.27 -11.45,-5.35 -17.22,-7.93 -6,-2.7 -12.69,-2.08 -19.05,-2.77 -3.15,-0.31 -5.86,-2.1 -8.23,-4.04 -0.01,-2.03 0.29,-4.28 -1.28,-5.84 -4.49,-5.54 -8.99,-12.06 -8.46,-19.55 0.49,-5.79 2.29,-11.57 5.53,-16.41 4.51,5.36 6.48,12.46 11.68,17.33 4.88,4.63 9.34,10.46 15.97,12.62 3.67,1.19 6.06,-2.33 8.77,-4.07 -4.38,0.06 -8.33,-2.24 -12.22,-3.95 -6.82,-3.88 -13.78,-8.54 -17.47,-15.71 -1.89,-3.1 -2.97,-7.03 -6.23,-9 -2.31,-0.83 -4.16,1.22 -5.12,3.04 -4.32,7.83 -4.93,17.17 -3.69,25.89 -5.89,-5.4 -11.41,-11.17 -17.34,-16.51 -3.57,-3.43 -7.57,-6.5 -10.53,-10.5 -2.3,-3.15 -2.24,-7.22 -2.87,-10.89 0.1,4.4 -0.23,9.08 2.01,13.07 3.34,6.46 8.58,11.65 12.56,17.71 -6.74,-4.46 -11.2,-11.28 -16.1,-17.52 -7.46,-9.62 -14.35,-19.65 -21.56,-29.44 -4.44,-5.9 -8.7,-11.92005 -12.78,-18.07005 -3.22,-4.38 -6.18,-9.08 -10.4,-12.57 -0.1,-9.15 -5.12,-17.09 -6.83,-25.88 -0.62,-2.75 -1.11,-5.49 -1.77,-8.21 0.34,6.35 0.41,12.76 -0.54,19.08 -0.5,3.28 -0.88,6.61 -0.67,9.95 -2.85,-8.69 -3.84,-17.85 -6.84,-26.49 -1.95,-5.68 -3,-11.64 -2.92,-17.64 -0.77,5.48 -0.79,11.04 -1.54,16.53 -2.96,-3.8 -6.57,-7.09 -8.86,-11.37 -1.43,-2.79 -4.28,-4.76 -4.95,-7.9 -1.7,-7.02 -3.8,-13.97 -4.73,-21.14 -0.72,-9.15 -0.69,-18.34 -0.2,-27.5 0.71,0.1 2.14,0.31 2.86,0.41 -0.04,2.73 -0.35,6.06 2.21,7.87 3.44,2.96 8.28,1.42 11.9,-0.36 -0.54,5.45 -1.54,11.13 -0.02,16.5 1.37,3.95 6.4,5.06 9.84,3.14 5.95,-3.15 12.35,-5.65 17.45,-10.19 0.05,2.57 -0.93,5.66 1.07,7.77 1.55,1.7 4.18,2.03 6.26,1.11 5.32,-2.17 9.34,-6.52 13.03,-10.79 8.52,6.29 19.56,6.57 29.32,9.81 5.21,1.84 11.6,1.25 15.51,-2.99 1.7,-1.55 1.93,-3.92 2.34,-6.02 9.86,0.54 20.63,2.16 29.58,-3.12 2.98,-1.55 4.75,-4.61 5.3,-7.85 4.72,0.57 8.98,-1.81 12.06,-5.21 4.4,4.82 10.55,7.27 16.04,10.56 4.29,2.26 9.03,4.85 14.04,4.13 4.85,-1.24 5.72,-6.9 4.93,-11.11 0.5,0.23 1.5,0.68 2,0.91 1.87,-1.85 3.62,-3.86 4.75,-6.26 3.78,-7.8 8.79,-15.2 10.39,-23.86 2.09,2.38 4.61,4.69 7.89,5.19 2.84,0.7 5.98,-1.23 6.64,-4.09 0.67,-3.35 0.12,-6.78 -0.04,-10.14 -0.45,-5.61 0.35,-11.19 0.73,-16.77 6.56,-1.47 11.52,-6.45 14.8,-12.1 3.27,-5.06 4.61,-10.99 6.43,-16.65 4.81,-1.75 5.41,-7.42 7.72,-11.35 0.48,-5.75 -3.2,-10.71 -5.45,-15.72 -3.44,-5.93 -5.2,-12.8 -9.73,-18.06 2.68,-1.79 5.73,-2.92 8.48,-4.58 z m 251.39,88.27 c -0.16,0.62 -0.48,1.87 -0.64,2.5 -3.2,2.12 -6.85,3.58 -9.6,6.35 -4.32,4.22 -9.21,7.88 -12.94,12.66 -2.71,-1.15 -5.69,-2.24 -7.56,-4.59 -0.67,-2.24 -0.84,-4.59 -1.17,-6.87 4.69,1.61 9.91,1.55 14.44,-0.59 5.98,-2.84 11.22,-7.15 17.47,-9.46 z m -75.58,41.83 c -1.56,0.58 -2.06,0.01 -1.48,-1.72 1.57,-0.58 2.07,-0.01 1.48,1.72 z m -396.84,-87.23 c -7.9,5.4 -15.86,10.72 -23.62,16.32 -3.27,2.4 -7.01,4.35 -9.46,7.67 -3.23,4.36 -5.58,9.26 -8.04,14.07 -1.59,2.02 -4.1,3.06 -5.81,4.97 -6.85,9.15 -11.08,20.16 -12.15,31.56 -1.94,-2.26 -3.66,-4.72 -5.93,-6.64 -5.56,-4.47 -10.38,-9.79 -14.9,-15.29 0.27,-0.07 0.8,-0.22 1.07,-0.3 -1.22,-12.38 -2.11,-24.84 -1.09,-37.27 -0.36,-0.08 -1.08,-0.23 -1.44,-0.31 -0.76,11.26 -0.76,22.73 1.7,33.8 0.57,1.34 -0.19,2.67 -0.6,3.93 -4.25,-6.65 -6.49,-14.32 -8.25,-21.93 -3.08,-16.38 3.49,-33.03 14.09,-45.37 0.42,0.4 0.85,0.81 1.29,1.23 -4.31,7.01 -6.38,15.13 -7.67,23.18 -0.43,1.72 0.4,3.41 1.18,4.91 0.5,-10.93 3.71,-21.89 9.8,-31.05 0.79,-1.3 1.59,-2.6 2.28,-3.95 -1.72,1.61 -3.38,3.35 -4.35,5.54 -1.73,-2.59 0.49,-6.12 3.38,-6.52 5.23,-1.25 10.06,1.75 14.96,3.04 2.63,0.66 4.51,2.77 6.17,4.8 2.46,3.14 5.4,5.87 8.38,8.53 1.46,1.35 3.53,1.55 5.46,1.42 8.64,-0.61 17.5,-0.04 25.89,-2.67 8.45,-2.69 16.54,-6.39 24.9,-9.34 4.52,-1.39 9.44,-2.85 14.15,-1.35 -0.84,2.42 -3.54,3.52 -5.46,4.98 -6.08,3.41 -11.07,8.32 -16.42,12.7 -8.17,6.43 -16.17,13.06 -23.7,20.23 -5.18,4.23 -9.65,9.43 -15.57,12.67 3.42,-7.53 10.37,-12.45 16.3,-17.89 8.2,-6.52 16.19,-13.3 24.43,-19.78 4.08,-3.58 8.52,-6.71 13.25,-9.37 -8.22,4.22 -16.64,8.14 -24.22,13.48 z m -68.59,-32.18 c 1.1,1.68 2.68,3.6 4.99,3.11 4.3,0.2 6.76,-4.55 11.08,-4.16 4.74,0.32 8.19,4.09 11.35,7.26 -3.08,3.29 0.44,7.05 3.05,9.22 2.55,1.98 6.47,-0.78 5.77,-3.83 -0.68,-2.97 -3.46,-4.66 -6.04,-5.77 4.65,-2.49 9.33,-5.76 14.83,-5.73 4.38,0.1 8.25,-2.29 12.4,-3.37 1.86,2.52 3.69,5.34 6.6,6.76 2.26,1.1 4.76,0.2 7.1,-0.15 -2.87,-4.26 -8.36,-4.95 -11.67,-8.73 0.71,-1.54 1.4,-3.08 2.11,-4.61 2,0.16 4.02,0.23 6.05,0.18 0.33,5.05 3.28,10.26 8.46,11.59 4.91,1.01 10.58,0.95 14.7,-2.31 4.02,-2.38 5.08,-7.21 6.67,-11.25 2.63,-7.39 -0.59,-15.99 -6.98,-20.31 6.47,-3.96 11.73,-9.83 18.97,-12.53 4.28,-2.05 9.93,-2.35 12.69,-6.71 1.91,-2.96 4.25,-5.62 6.98,-7.85 3.12,-2.54 5.67,-5.82 9.29,-7.72 9.06,-4.87 19.38,-7.13 29.63,-7.21 6.91,-0.1 13.22,3.03 19.61,5.25 4.41,1.61 9.01,2.62 13.65,3.39 0.57,1.77 0.87,4.17 2.96,4.84 5.49,1.97 11.28,2.99 16.74,5.11 -5.92,-3.32 -11.8,-6.68 -17.82,-9.8 -3.48,-1.72 -5.91,-4.79 -8.86,-7.18 -11,-3.94 -22.6,-6.15 -34.29,-6.39 -7.86,-0.99 -15.44,1.96 -22.41,5.23 -2.63,1.2 -4.98,2.98 -6.68,5.33 -3.39,4.53 -8.57,7.37 -11.66,12.16 -1.3,2.02 -2.7,4.12 -5.03,5.04 -6.17,3.01 -12.22,6.25 -18.03,9.91 3.03,-5.12 5.14,-10.88 9.53,-15.08 -5.75,5.78 -14.71,7.36 -19.26,14.48 -3.61,5.76 -7.89,11.1 -10.96,17.18 6.12,-4.92 10.14,-11.94 16.37,-16.75 -8.54,8.48 -15.55,18.47 -24.86,26.17 -2.39,2.17 -5.01,-0.19 -6.45,-2.18 -3,0.45 -5.72,1.83 -8.47,3.01 2,1.94 4.55,3.08 7.2,3.89 -5.07,6.16 -13.92,4.89 -20.97,6.05 0.46,-0.68 1.37,-2.05 1.82,-2.74 -4.1,3.04 -8.7,5.31 -13.02,8 -2.35,-3.63 -5.5,-6.96 -9.62,-8.51 -2.62,-0.95 -5.37,-0.06 -7.99,0.32 -0.37,-3.18 1.58,-5.91 1.75,-9 -0.63,-3.04 -2.63,-5.71 -2.49,-8.93 -1.1,-6.18 0.7,-12.6 4.94,-17.24 5.52,-7.79 13.21,-13.54 20.55,-19.47 7.36,-5.46 15.76,-9.31 24.17,-12.83 8.6,-3.48 17.37,-6.95 26.67,-7.94 7.13,-0.62 13.7,-3.71 20.7,-5.01 9.96,-1.89 20.02,-4.39 30.23,-3.34 3.42,0.23 6.45,2.18 9.89,2.31 20.76,1.53 41.08,6.6 60.92,12.72 7.69,2.78 15.54,5.04 23.3,7.63 1.74,0.35 3.38,1.06 4.85,2.09 -2.61,-0.23 -5.39,-1.31 -7.84,0.12 -1.81,0.77 -2.14,2.81 -2.76,4.44 1.45,1.9 3.08,3.75 5.29,4.8 8.9,4.58 18.01,8.75 27.25,12.59 -1.89,0.41 -3.77,0.79 -5.64,1.13 3.01,1.22 6.02,2.47 9.01,3.77 -11.47,-0.65 -22.96,-1.05 -34.37,-2.43 8.65,1.64 17.02,4.39 25.32,7.32 8.47,2.78 17.44,3.17 26.21,4.33 -1.72,4.25 -0.19,8.59 2.21,12.21 -2.19,1.83 -4.14,3.93 -5.83,6.23 -8.18,-3.72 -17.1,-5.26 -25.7,-7.68 -1.51,-0.42 -3.1,-0.6 -4.61,-0.68 2.94,2.32 6.92,2.44 10.13,4.3 7.82,4.13 15.03,9.4 21.53,15.4 3.08,2.81 4.85,6.67 6.71,10.32 2.9,6.25 6.55,12.65 5.71,19.81 -5.45,-6.97 -11.81,-13.22 -18.74,-18.69 -7.42,-5.78 -16.53,-9.14 -25.84,-10.12 -1.52,-0.07 -2.92,0.61 -4.33,0.99 3.13,2.33 6.14,4.94 9.76,6.52 6.06,2.59 11.52,6.35 17.19,9.68 5.95,3.51 11.37,8.28 14.69,14.42 1.57,3.05 -0.53,6.26 -1.2,9.27 -1.85,7.54 -5.75,14.62 -11.47,19.91 0.05,-6.72 -2.34,-13.59 -7.37,-18.18 -7.49,-6.71 -16.08,-13.01 -26.25,-14.65 -5.51,-0.88 -10.81,-2.61 -16.18,-4 9.01,3.31 16.06,9.95 24.16,14.84 4.44,2.79 8.38,6.29 12.14,9.94 3.26,3.12 5.12,7.65 4.89,12.17 -0.26,9.72 -1.87,19.45 -0.47,29.16 -2.08,-0.29 -4.12,-0.54 -6.17,-0.75 0.05,-3.58 -0.13,-7.48 -2.55,-10.34 -5.79,-7.15 -13.86,-11.97 -19.86,-18.9 2.17,3.19 4.33,6.41 6.04,9.9 2.15,4.35 5.3,8.22 6.83,12.86 -0.25,6.61 -2.07,13.14 -5.09,19.02 -2.11,4.18 -3.7,8.62 -4.45,13.26 -1.56,-4.6 -1.59,-9.53 -3.08,-14.13 -2.5,-7.74 -4.7,-15.9 -10.06,-22.24 -3.8,-4.44 -7.86,-8.67 -11.08,-13.57 6.11,8.66 7.8,19.3 11.37,29.07 1.64,5.44 4.53,10.85 3.67,16.7 -0.29,3.16 -0.17,6.34 -0.01,9.52 -6.5,-3.57 -13.5,-6.06 -20.26,-9.08 0.21,-6.27 -3.56,-11.63 -7,-16.51 -7.19,-8.96 -12.93,-18.94 -19.54,-28.31 -3.78,-5.66 -8.91,-10.21 -13.2,-15.46 5.38,8.82 10.32,17.92 16.59,26.17 6.99,9.15 13.66,19.77 13.23,31.73 -1.76,3.86 -5.32,6.51 -7.77,9.92 -3.57,-9.3 -7.42,-18.69 -13.73,-26.5 -2.92,-3.43 -5.11,-7.39 -7.99,-10.83 -0.56,6.36 5.46,9.99 7.33,15.54 3.13,7.96 6.3,16.76 4.4,25.39 -3.68,0.88 -7.44,1.63 -11.24,1.47 -5.07,-0.22 -9.96,1.32 -14.97,1.66 -1.16,-8.42 -1.95,-17.11 -5.81,-24.82 -2.68,-5.21 -4.94,-10.61 -7.07,-16.05 -0.48,3.09 -0.29,6.26 0.62,9.27 4.31,12.29 6.06,25.99 2.41,38.67 -8.25,-2.12 -16.83,-3.13 -24.75,-6.34 -2.72,-0.92 -4.6,-3.69 -5.21,-6.37 -0.01,-6.26 -2.97,-11.94 -3.7,-18.08 -0.49,7.9 -1.38,16.09 -5.33,23.12 -2.45,4.33 -4.84,9.05 -9.24,11.72 -0.37,-2.27 -0.92,-4.48 -1.66,-6.64 3.59,-7.22 -1.29,-14.77 -1.7,-22.14 -0.54,7.55 -2.33,15.94 -8.05,21.36 -3.9,2.93 -7.91,6.09 -12.77,7.2 -2.19,-4.27 -3.83,-8.87 -4.51,-13.62 0.77,-2.63 2.28,-5.09 2.17,-7.91 -0.12,-7.74 -0.47,-15.49 0.26,-23.21 -3.1,6.75 -6.39,13.43 -8.28,20.64 -0.7,1.86 -1.46,6.3 -4.35,4.59 -1.77,-3.15 -1.12,-7.29 -3.15,-10.46 -1.41,0.71 -2.79,1.45 -4.14,2.23 -1.39,-0.58 -3.07,-1.15 -3.09,-2.91 -1.53,-11.96 -0.6,-24.06 -0.29,-36.06 8.37,-4.1 13.1,-12.56 19.49,-18.95 3.01,1.82 5.81,4.05 9.1,5.41 3.21,1.28 6.72,-0.51 10,0.58 8.47,2.21 16.43,6.09 24,10.42 2.47,1.26 5.25,0.53 7.87,0.23 -3.84,-1.96 -5.74,-5.97 -8.83,-8.73 -5.66,-2.69 -11.94,-3.7 -17.93,-5.37 -3.4,-1.08 -6.23,-3.86 -9.95,-3.71 -3.74,0.32 -6.75,-2.11 -9.96,-3.55 6.72,-7.09 14.78,-12.65 22.08,-19.09 4.73,-4.29 11.26,-5.82 15.99,-10.06 1.98,-1.76 1.14,-5.02 -1.19,-5.98 -5.32,-3.32 -11.78,-1.69 -17.45,-0.41 -9.49,2.58 -18.8,5.89 -28.4,8.07 -7.61,1.77 -15.46,1.09 -23.18,1.78 -3.3,-2.9 -6.13,-6.25 -9.21,-9.35 -4.1,-3.62 -9.94,-1.24 -14.66,-3.02 -4.59,-1.61 -9.81,-2.06 -14.19,0.35 0.03,-0.2 0.11,-0.61 0.14,-0.82 3.35,-1.19 2.6,-5.65 3.9,-8.42 z m 84,-9.85 c 4.86,-0.83 5.25,-7.8 2.02,-10.64 -1.44,-0.88 -3.13,-0.16 -4.64,-0.13 2.34,-2.25 4.25,-4.88 6.4,-7.3 2.28,2.09 5.16,4.22 5.47,7.58 0.36,3.82 0.4,8.06 -1.87,11.35 -1.65,2.31 -3.92,4.17 -6.45,5.42 -5.06,1.91 -11.37,-1.49 -12.33,-6.87 1.7,-2.52 4.31,-4.28 6.07,-6.78 -0.73,3.39 1.15,8.11 5.33,7.37 z m -674.30999,-262.1 c 15.8,7.71 30.89,16.81 46.99,23.91 5.58,2.19 9.91,6.6 15.44,8.83 -6.25,-7.61 -13.91,-13.84 -22.36,-18.86 -6.91,-4.4 -13.64,-9.07 -20.65,-13.3 -4.08,-2.54 -8.57,-4.58 -11.89,-8.15 -11.27,-11.07 -21.75,-22.9 -32.68,-34.3 -7.36,-7.67 -14.22,-15.78 -20.92,-24.03 -3.53,-4.41 -7.6,-8.39 -10.7,-13.13 8.19,2.65 16.72,3.95 25.04,6.12 6.3,1.63 12.63,3.11 18.98,4.52 19.02,5.54 37.04,14.06 54.06,24.13 23.62,14.12 47.04,28.62 69.63,44.36 10.58,7.47 21.21,14.88 32.14,21.84 17.21,10.94 33.89,22.68 50.85,34.01 32.13,21.59 64.84,42.32 96.64,64.41 17.94,12.9 35.9,25.82 54.75,37.39 29.44999,17.93 59.02999,35.77 90.06999,50.85 21.07,10.51 42.63,20.02 64.5,28.72 15.9,6.56 32.04,12.58 48.66,17.08 13.47,3.68 26.96,7.38 40.72,9.83 -2.18,4.69 -5.71,8.63 -7.67,13.42 -1.21,2.55 -0.36,5.4 -0.12,8.07 -12.6,10.99 -17.9,28.45 -17.47,44.78 -7.15,-4.74 -15.39,-7.32 -23.33,-10.4 -20.88,-7.92 -41.9,-15.55 -63.31,-21.93 -20.08,-6.11 -40.7,-10.19 -60.98,-15.53 -22.02,-5.74 -43.85,-12.2 -65.32999,-19.69 -42.59,-13.75 -84.94,-28.38 -128.16,-40.08 -34.36,-9.32 -68.61,-20.05 -100.17,-36.78 -10.51,-5.41 -21.22,-10.48 -32.29,-14.65 -14.85,-5.67 -27.75,-15.25 -42.34,-21.46 -9.09,-3.6 -16.59,-9.98 -24.5,-15.53 -14.6,-10.65 -28.8,-21.86 -42.29,-33.88 -12.73,-11.25 -24.35,-23.67 -35.57,-36.39 -17.61,-19.54 -32.51,-41.29 -49.26,-61.54 -8.3,-9.57 -13.99,-21.07 -22.3,-30.64 14.84,1.74 29.89,0.45 44.69,2.81 12.16,1.76 23.53,6.66 35.48,9.28 15.85,3.21 30.98,9.22 45.65,15.91 z m -46.24,107.48 c -9.09,-0.69 -18.16,-1.51 -27.22,-2.46 7.89,0.07 15.8,0.04 23.7,0.03 1.67,-0.23 2.49,1.46 3.52,2.43 z m -337.41,-329.93 c -9.47,-10.04 -17.35,-21.4 -25.55,-32.46 -16.42,-22.47 -30.51,-46.51 -44.15,-70.73 -13.33,-25.42 -24.49,-51.95 -34.28,-78.919997 17.72,23.939997 34.56,48.609997 54.15,71.089997 17.37,20.24 35.21,40.07 53.23,59.72 19.77,21.46 41.1,41.41 62.35,61.38 -20.22,-15.19 -39.83,-31.16 -59.56,-46.97 28.05,23.52 56.12,47.01 83.82,70.95 31.24,27.06 64.2,52.03 97.47,76.53 13.46,10.1 27.48,19.43 41.86,28.18 15.62,10.03 31.94,18.92 48.24,27.78 12.18,6.37 24.72,12.03 37.4,17.31 -12.39,-3.39 -25.29,-3.33 -37.95,-4.85 -10.69,-0.88 -21.47,-3.46 -32.17,-1.51 -2.56,0.64 -4.69,-1.37 -6.9,-2.31 -15.6,-8.67 -31.19,-17.39 -46.45,-26.68 -28.49,-16.49 -56.58,-33.69 -84.09,-51.77 -13.02,-8.69 -25.8,-17.73 -39.05,-26.09 -5.75,-3.37 -9.8,-8.81 -14.44,-13.48 -17.78,-19.24 -36.1,-37.98 -53.93,-57.17 z m 16.93,130.19 c -14.16,-11.12 -28.06,-22.58 -41.42,-34.67 -17.94,-17.05 -35.5,-34.58 -51.68,-53.33 -9.82,-11.18 -20.15,-22.02 -28.32,-34.51 -4.42,-6.64 -8.41,-13.56 -12.82,-20.2 -8.91,-13.12 -14.82,-27.91 -22.58,-41.68 17.94,15.58 36.24,30.8 55.63,44.57 15.18,10.67 29.7,22.24 44.71,33.15 33.06,24.69 68.11,46.54 101.83,70.29 27.04,19.08 54.97,36.91 83.74,53.27 19.22,10.63 38.94,20.38 59.36,28.48 9.88,4.19 20.05,7.68 29.8,12.17 5.15,14.99 14.88,27.73 22.66,41.38 4.3,7.53 9.39,14.56 14.24,21.74 -9.61,-3.07 -18.68,-7.57 -28.05,-11.24 -18.34,-7.33 -36.79,-14.38 -55.16,-21.62 -34.55,-13.89 -69.87,-25.75 -104.53,-39.35 -3.1,-1.34 -5.66,-3.61 -8.36,-5.57 -19.35,-14.75 -39.81,-27.98 -59.05,-42.88 z m 44.71,133.35 c -19.38,-8.65 -37.93,-19.03 -55.98,-30.14 -7.3,-4.55 -13.85,-10.16 -20.86,-15.12 -12.05,-8.53 -23.52,-17.85 -35.26,-26.79 -16.89,-13.31 -31.2,-29.45 -46.1,-44.85 -9.18,-9.48 -17.87,-19.44 -27.48,-28.5 -7.49,-7.02 -14.86,-14.19 -22.66,-20.86 14.95,7.79 30.58,14.2 45.67,21.73 16.92,8.56 33.85,17.11 50.88,25.46 20.19,9.96 41.08,18.39 62.07,26.49 20.19,7.79 40.93,14.08 61.05,22.06 38.87,15.49 78.32,29.58 118.46,41.44 27.37,8.11 54.58,17.13 82.78,22.02 2.86,0.12 3.94,3.1 5.48,5.03 9.21,12.92 19.51,25.02 29.95,36.95 7.16,8.29 14.04,16.82 21.45,24.9 -19.04,-1.2 -38.1,-2.73 -56.95,-5.78 -34.29,-5.45 -69.18,-6.63 -103.23,-13.63 -18.81,-5.83 -37.41,-12.34 -55.83,-19.28 -17.94,-6.72 -36.02,-13.13 -53.44,-21.13 z m 189.38,205.43 c -19.19,4.31 -38.32,9.67 -58.07,10.62 -2.52,0.02 -5.32,0.62 -7.51,-0.97 -5.57,-3.52 -11.04,-7.24 -17.03,-10.04 -6.11,-2.73 -11.76,-6.29 -17.48,-9.74 19.07,-4.11 36.81,-12.56 55.45,-18.12 14.08,-4.17 28.13,-8.56 42.55,-11.41 -20.68,3.81 -41.1,9.11 -61.95,12 -8.94,1.2 -17.93,2.14 -26.93,2.79 -3.68,0.63 -6.89,-1.58 -10.19,-2.79 -14.42,-5.94 -28.78,-12.35 -41.53,-21.45 -14.01,-9.32 -25.56,-21.77 -39.28,-31.48 24.73,-2.7 49.39,-6.11 73.95,-10.13 18.66,-2.89 36.96,-8.52 55.98,-8.73 -12.5,-0.17 -24.99,-0.78 -37.41,-2.24 -10.12,-1.2 -20.36,-0.82 -30.49,-1.61 -13.55,-4.49 -26.9,-9.64 -40.1,-15.08 -17.36,-7.41 -33.66,-17.01 -49.95,-26.47 -14.48,-8.91 -29.11,-17.65 -42.82,-27.74 20.19,4.23 40.43,8.23 60.66,12.31 22.2,4.24 44.62,7.3 67.13,9.33 12.22,1.22 24.39,2.83 36.51,4.78 28,4.09 56.26,5.78 84.4,8.6 10.45,0.97 20.95,1.8 31.45,1.19 12.91,-0.63 25.82,-1.3 38.72,-2.2 6.96,-0.4 13.95,-0.86 20.91,-0.06 10.99,10.41 23.26,19.34 35.62,28.03 17.62,12 36.09,22.86 55.63,31.44 13.03,6.16 24.98,14.5 38.55,19.57 11.55,4.21 22.62,9.6 33.65,15 16.25,7.16 32.69,13.92 49.44,19.84 23,8.16 46.7,14.04 70.28,20.28 38.51,11.25 76.5,24.17 114.83,36 20.47999,6.84 41.27999,12.65 62.17999,18.05 -0.67,3.88 -0.66,7.94 0.91,11.61 1.77,5.32 6.13,9.18 8.22,14.34 1.66,3.81 3.95,7.8 7.78,9.78 2.17,1.08 4.41,-0.11 6.45,-0.95 0.1,9.72 5.21,18.66 11.83,25.49 5.79,5.92 11.79,11.78 18.91,16.1 2.53,1.53 5.88,2.75 8.7,1.2 3.25,-2.36 5.83,-5.53 8.22,-8.74 2.57,5.86 5.75,11.59 10.5,15.98 3.09,2.79 4.42,8 9.16,8.51 6.26,0.35 12.57,-2.08 17.23,-6.25 1.88,4.71 3.21,9.82 6.61,13.74 5.22,6.16 13.73,10.06 21.83,8.12 4.3,-1.11 6.29,-5.48 8.96,-8.61 7.5,5.34 15.92,10.7 25.57,9.89 6.21,0.12 10.85,-5.03 17.01,-5.24 -3.22,-0.33 -6.4,-0.94 -9.47,-1.92 -5.34,-1.85 -11.22,-0.69 -16.48,-2.79 -5.09,-1.67 -9.36,-4.98 -14.13,-7.27 -3.53,-1.48 -6.91,0.66 -9.59,2.76 -0.36,1.45 -0.03,3.64 -1.76,4.29 -4.99,1.9 -9.71,-1.72 -13.61,-4.39 -7.51,-6.5 -11.98,-15.9 -14.32,-25.41 -1.89,0.53 -3.81,1.37 -4.53,3.34 -1.42,3.5 -5.21,4.81 -8.29,6.41 -3.62,-4.52 -8.3,-7.97 -12.37,-12.03 -3.11,-3.13 -7.1,-5.04 -10.86,-7.21 0.71,-2.31 2.43,-4.51 2.14,-7 0.16,-1.67 -2.36,-1.16 -2.53,0.06 -2.41,4.63 -5.58,8.83 -9.5,12.29 -7.07,-6.37 -14.48,-12.48 -20.49,-19.9 -5.53,-6.99 -6.8,-16.04 -10.63,-23.87 0.27,-2.72 1.69,-6.59 -1.68,-8 -4.47,-0.77 -7.76,3.29 -10.8,5.93 -2.99,-6.04 -8.52,-10.87 -9.21,-17.92 20.82,4.59 41.61,9.37 62.09,15.31 25.71,6.67 50.85,16.23 77.48,18.72 0.18,18.27 10.74,34.85 24.5,46.2 4.9,4.34 10.73,7.48 16.74,10.02 0.57,-5.69 -0.52,-11.53 1.24,-17.09 1.34,-7.29 4.81,-13.89 8.81,-20.03 1.95,-2.62 4.93,-4.18 7.68,-5.82 -2.46,16.88 3.63,34.13 -1.12,50.78 -0.28,6.49 -4.74,11.68 -5.58,18.03 -1.28,7.97 -1.54,16.06 -1.6,24.12 -0.27,4.28 -1.21,8.55 -0.71,12.87 0.32,6.88 3.16,13.28 4.17,20.05 1.89,11.75 4.64,23.34 7.63,34.86 2.17,7.34005 2.9,15.02005 5.41,22.27005 1.33,4.76 2.62,9.58 3.28,14.5 -0.63,-1.23 -1.18,-2.47 -1.65,-3.73 -1.84,1.01 -3.76,1.84 -5.55,2.91 -2.04,1.31 -2.88,3.69 -4.03,5.7 -6.6,0.23 -13.18,0.83 -19.76,1.27 -5.77,0.5 -10.5,-3.26 -15.28,-5.84 5.53,-13.14 7.49,-27.36 9.66,-41.34005 1.33,-8.92 4.1,-17.55 5.37,-26.46 -3.81,17.63 -13.31,33.22 -21.88,48.86005 -3.58,5.92 -6.91,12.22 -11.89,17.09 -5.75,2.65 -11.44,-1.13 -16.88,-2.67 -6.78,-0.84 -13.57,0.99 -20.24,1.99 -2.78,0.73 -5.32,-0.96 -7.83,-1.82 4.15,-11.84 7.12,-24.07 9.45,-36.39005 1.3,-7.15 3.64,-14.04 5.32,-21.1 -4.84,17.18 -15.14,32.14005 -20.47,49.14005 -1.42,3.87 -2.57,8.51 -6.35,10.77 -3.48,1.5 -7.65,1.64 -11.2,0.34 -4.58,-2.84 -5.96,-8.51 -7.13,-13.39 -0.76,-4.26 -1.96,-8.55 -1.82,-12.88 6.67,-20.46005 9.98,-41.82005 13.92,-62.93005 1.49,-8.07 3.81,-15.98 5.08,-24.09 -4.58,20.2 -11.6,39.73 -18.54,59.21 -4.34,10.81 -8.28,22.17 -15.96,31.15005 -3.97,4.84 -9.64,7.7 -14.6,11.35 -5.51,3.98 -10.41,8.76 -16.14,12.44 -7.86,-10.04 -14.33,-21.05 -20.42,-32.22005 -3.37,-6.25 -4.79,-13.26 -6.47,-20.07 5.28,-7.23 4.85,-16.49 7.44,-24.69 1.1,-3.8 2.55,-7.47 3.82,-11.21 -3.11,6.54 -6.85,12.89 -12.08,17.96 -6.31,6 -11.55,13.09 -18.5,18.41 -7.14,5.46 -12.66,12.82 -20.23,17.73 -5.44,-11.98 -8.16,-24.98 -10.2,-37.88 2.37,-3.43 5.16,-6.65 6.6,-10.63 3.66,-8.71 2.85,-18.39 5.03,-27.44 0.79,-3.77 2.05,-7.4 3.23,-11.06 -3.24,7.92 -6.99,15.68 -12.23,22.49 -5.13,6.69 -8.15,14.79 -13.91999,21.02 -4.53,5.37 -9.81,10.05 -15.45,14.21 -2.32,-8.62 -4.66,-17.23 -6.64,-25.93 -2.01,-8.86 -1.42,-17.99 -1.9,-26.99 0.19,-2.56 -2.55,-4.81 -1.16,-7.25 3.44,-8.65 8.22,-16.71 11.43,-25.44 -4.08,8.93 -10.56,16.59 -18,22.92 -4.8,4.11 -9.31,8.59 -14.51,12.23 -4.33,3.08 -8.57,6.27 -12.67,9.66 -1.96,-8.19 -3.02,-16.55 -4.45,-24.84 -1.89,-10.99 -0.77,-22.17 -1.59,-33.23 3.65,-8.98 7.75,-17.81 11.23,-26.88 3.84,-10 9.16,-19.32 13.91,-28.89 -9.4,17.29 -21.35,32.96 -32.92,48.81 -9.27,12.31 -22.74,20.25 -34.91,29.31 -2.53,-5.1 -4.05,-10.62 -6.72,-15.65 -3.35,-6.47 -7.09,-12.76 -9.74,-19.56 -4.23,-10.43 -8.36,-21 -10.57,-32.06 -2.44,-13.26 -2.1,-26.93 0.27,-40.17 0.57,-2.4 -0.47,-4.65 -1.44,-6.76 0.94,-2.38 2,-4.72 3.12,-7.01 -4.6,5.79 -12.19,7.42 -17.54,12.25 -2.18,1.82 -4.26,3.74 -6.4,5.61 -3.13,-1.96 -5.61,-4.72 -7.58,-7.8 2.99,-3.36 5.3,-7.21 7.46,-11.13 2.42,-4.52 7.86,-6.83 9.22,-12 1.89,-7.16 3.11,-14.61 6.64,-21.21 -4.43,4.33 -7.44,9.91 -9.25,15.8 -0.81,2.64 -1.22,5.61 -3.24,7.67 -3.45,3.67 -7.43,7.06 -12.25,8.76 -8.12,2.95 -15.82,6.92 -23.16,11.46 -3.45,-3.31 -7.24,-6.21 -10.88,-9.27 -3.97,-3.33 -6.04,-8.19 -8.56,-12.57 -3.15,-5.59 -4.81,-11.82 -7.15,-17.76 -2.42,-5 -2.47,-10.67 -4.32,-15.84 0.67,-4.25 2.57,-8.13 4.93,-11.68 -3.89,6.01 -10.6,8.93 -15.62,13.76 -4.33,3.72 -8.96,7.11 -12.89,11.28 -4.55,5.06 -11.82,5.59 -18.06,7.01 6.75,-9.84 12.84,-20.11 18.87,-30.4 2.86,-5.39 6.25,-10.6 8.08,-16.45 -2.43,1.51 -3.8,4.09 -5.45,6.33 -7.59,10.84 -16.47,20.73 -25.98,29.92 -5.8,5.53 -12.78,9.71 -20.27,12.5 -8.33,3.1 -16.54,6.93 -25.45,7.96 0.69,-6.81 -0.38,-13.84 1.79,-20.44 2.6,-7.89 8.14,-14.3 13.82,-20.17 5.51,-6.79 11.58,-13.18 16.2,-20.65 2.16,-3.54 4.76,-6.77 7.24,-10.08 -7.49,4.76 -12.88,12.21 -20.78,16.37 -6.94,4.35 -13.15,9.79 -18.86,15.64 0.4,-3.96 -0.33,-7.93 0.07,-11.86 5.04,-9.36 11.92,-17.57 19.54,-24.94 2.04,-2.09 5.42,-5.23 3.08,-8.29 -3.41,-1.78 -6.81,1.16 -9.82,2.53 -5.7,2.81 -10.67,6.85 -16.24,9.83 -22.09,7.63 -43.94,15.93 -65.89,23.95 -17.74,6.14 -35.7,11.65 -53.67,17.09 1.71,-1.76 3.48,-3.47 5.07,-5.34 0.95,-0.14 1.91,-0.27 2.87,-0.39 -0.29,-0.75 -0.57,-1.49 -0.85,-2.23 -4.13,3.7 -7.8,8.59 -13.49,9.87 -16.15,4.37 -32.88,5.9 -49.14,9.74 z M 1314.04,1172.6472 c -0.99,12.78 -2.69,25.49 -4.67,38.14 -1.65,9.2 0.08,18.64 -1.88,27.82 -4.88,2.58 -9.5,5.6 -13.76,9.1 6.9,-25.34 10.79,-51.72 9.15,-78.01 -0.52,-8.65 0.03,-17.29 0,-25.93 -1.92,36.36 -7.23,72.54 -14.88,108.14 -0.24,2.19 -2.18,3.49 -3.68,4.86 -4.48,3.85 -9.57,6.91 -14.06,10.75 -5.2,4.37 -10.63,8.64 -16.9,11.35 -5.07,2.26 -10.53,3.4 -15.81,4.99 2.59,-9.55 3.59,-19.44 5.99,-29.04 5.56,-26.39 12.4,-52.91 11.78,-80.09 -0.18,-3.28 0.31,-6.84 -1.53,-9.73 -4.08,10.01 -5.45,20.85 -8.1,31.28 -5.01,19.74 -9.56,39.68 -16.86,58.74 -4.57,11.72 -6.74,24.21 -11.63,35.82 -2.18,5.05 -4.11,10.27 -6.72,15.1 -4.82,1.92 -10.12,1.85 -15.2,2.26 -4.17,0.18 -8.54,0.55 -12.5,-0.99 -2.8,-4.62 -2.69,-10.29 -2.93,-15.5 0.08,-5.67 -0.82,-11.41 0.38,-17 5.07,-25.14 10.96,-50.1 17.12,-74.99 5.91,-22.59 8.81,-45.82 14.25,-68.52 1.34,-6.55 3.47,-12.92 4.51,-19.52 -5.95,20.6 -13.3,40.76 -20.3,61.02 -6.73,20.59 -11.22,41.83 -15.55,63.03 -2.34,11.6 -4.22,23.29 -5.82,35.01 -1.57,6.05 -4.28,11.79 -5.53,17.95 -8.32,-2.97 -17.1,-0.27 -25.59,-0.88 -7.23,-2.34 -12.72,-8.01 -18.98,-12.09 -6.06,-3.82 -12.22,-7.61 -17.55,-12.43 -2,-3.44 -1.71,-7.7 -2.11,-11.54 -0.56,-10.02 -1.22,-20.1 0.14,-30.1 1.42,-12.35 2.03,-24.78 3.78,-37.09 2.28,-16.61 2.75,-33.56 7.54,-49.74 -2.47,8.11 -5.21,16.15 -8.55,23.94 -5.21,13.02 -7.81,26.92 -9.1,40.84 -1.15,13.99 -4.26,27.75 -4.98,41.8 -8.25,-1.76 -16.21,1.5 -24.09,3.39 -4.67,1.13 -9.35,2.26 -14.07,3.12 -3.3,0.81 -6.41,-0.98 -9.49,-1.84 -4.04,-1.57 -8.33,-2.28 -12.64,-2.38 -1.68,-3.18 -3.42,-6.77 -2.38,-10.44 0.91,-2.92 -1.74,-5.52 -0.93,-8.43 3,-18.92 12.06,-36.14 16.77,-54.62 6.7,-28.8 17.58,-56.37 26.53,-84.49 -6.36,16.08 -13.23,32.03 -22.01,46.97 -9.45,17.03 -18.75,34.37 -24.43,53.09 -2.4,7.47 -4.86,15.05 -5.4,22.94 -0.4,4.67 0.14,9.35 0.5,14.01 -4.46,-0.87 -8.99,-1.44 -13.54,-1.34 -6.67,0.13 -13.31999,-0.55 -19.97999,-0.58 -5.08,-0.38 -10.27,-0.53 -15.15,-2.08 -4.55,-1.77 -8.38,-4.89 -12.38,-7.58 0.29,-5.23 -0.52,-10.63 1.23,-15.66 6.07,-16.3 10.31,-33.19 15.41,-49.8 5.91,-19.36 12.49,-38.55 21.02,-56.93 7.65999,-16.34 14.03999,-33.27 22.47999,-49.24 1.48,-2.9 3.06,-5.76 4.42,-8.72 -10.09,18.4 -22.5,35.48 -31.44999,54.51 -3.1,6.31 -5.73,12.85 -8.97,19.11 -8.07,15.78 -15.22,32.02 -22.16,48.33 -5.56,14.34 -10.47,29.11 -12.56,44.4 -10.19,1.07 -19.22,-4.55 -28.92,-6.52 -9.03,-1.85 -17.72,-5.05 -25.97,-9.12 -4.69,-2.79 -9.58,-7.94 -7.98,-13.85 1.69,-8.82 5.24,-17.15 7.01,-25.95 2.17,-10.27 5.03,-20.38 8.68,-30.21 8.1,-26.38 23.4,-49.66 34.11,-74.94 4.2,-10.22 7.81,-20.67 12.35,-30.75 3.3,-7.76005 7.11,-15.29005 10.65,-22.94005 -8.19,14.89 -17.79,28.96005 -28.21,42.37005 -12.46,16.54 -22.54,34.75 -31.18,53.53 -6.85,14.72 -11.61,30.3 -16.01,45.9 -0.78,3.02 -2.82,5.46 -4.47,8.04 -4.01,5.84 -6.76,12.43 -8.8,19.18 -10.65,3.32 -20.81,8.63 -32.1,9.51 -8.61,1.31 -17.35,0.2 -25.66,-2.2 -7.73,-2.33 -15.84,-2.94 -23.56,-5.25 -5.75,-1.73 -11.58,-3.15 -17.44,-4.39 8.74,-16.68 17.56,-33.31 26.56,-49.86 7.81,-15.21 16.33,-30.06 23.58,-45.56 9.72,-20.23 19.55,-40.39 29.27,-60.61005 4.8,-9.88 10.47,-19.28 16.07,-28.7 -4.16,6.15 -8.18,12.39 -12.42,18.49 -6.9,9.99 -14.58,19.42005 -21.17,29.64005 -9.71,14.99 -19.36,30.03 -28.77,45.22 -8.65,13.82 -15.89,28.45 -23.18,43.02 -3.24,6.55 -6.21,13.24 -8.74,20.11 -7.2,0.68 -14.44,2.33 -21.68,1.09 -11.1,-1.72 -22.15,-3.88 -33.1,-6.37 -4.5,-0.96 -9.02,-1.92 -13.23,-3.81 -2.06,-4.9 -3.15,-10.12 -3.91,-15.35 -1.09,-7.35 0.7,-14.76 -0.3,-22.11 -0.03,-2.85 -1.05,-6.31 1.02,-8.68 10.73,-11.78 20.11,-24.71 29.34,-37.68 8.91,-11.91 16.87,-24.47 25.01,-36.89005 14.11,-22.21 26.03,-45.89 34.11,-70.96 3.94,-11.78 6.46,-23.98 10.42,-35.75 2.19,-7.11 5.1,-13.98 7.56,-20.99 -3.77,8.92 -7.99,17.66 -12.65,26.15 -5.16,9.4 -11.28,18.25 -16.34,27.71 -9.18,16.32 -17.18,33.27 -26.29,49.63 -17.62,30.84 -39.13,59.28005 -56.61,90.22005 -5.37,-2.09 -11.25,-1.57 -16.87,-2.21 -8.84,-0.76 -18.05,0.72 -26.59,-2.14 -3.12,-8.39 -4.24,-17.37 -6.85,-25.91 -1.5,-5.04 -3.81,-9.77 -6.19,-14.44 3.1,-4.31 5.04,-9.33 8.3,-13.54005 5.45,-7.24 11.31,-14.43 14.6,-22.98 1.39,-3.46 1.86,-7.3 3.98,-10.45 5.45,-8.91 10.63,-17.98 15.54,-27.18 6.63,-13.54 15.39,-25.85 23.48,-38.53 12.28,-18.47 26.74,-35.34 40.19,-52.95 11.44,-15.38 22.93,-30.74 35.41,-45.31 -7.53,8.09 -14.69,16.52 -22.48,24.37 -11.37,11.27 -22.74,22.55 -33.73,34.21 -25.71,26.44 -50.36,54.63 -67.26,87.68 -3.48,6.33 -6.05,13.14 -9.57,19.44 -9.68,13.82 -18.45,28.4 -24.9,44.03005 -3.22,-1.21 -5.19,-4.1 -7.7,-6.24 -6.99,-6.21005 -14.91,-11.22005 -22.79,-16.17005 -8.39,-5.52 -14.35,-13.76 -19.23,-22.37 4.24,-6.55 7.97,-13.4 11.67,-20.26 8.9,-16.06 19.09,-31.36 29.32,-46.6 10.18,-14.8 21,-29.16 30.99,-44.09 5.02,-7.45 10.74,-14.39 16.56,-21.22 -6.49,6.48 -12.96,13 -19.99,18.91 -12.9,10.74 -24.54,22.92 -34.99,36.04 -9.93,10.47 -19.22,21.58 -27.54,33.38 -6.68,9.43 -13.17,19.11 -17.72,29.78 -5.68,-2.59 -9.36,-8.14 -10.79,-14.07 -2.93,-11.07 -7.73,-21.62 -9.71,-32.93 -0.9,-5.11 2.3,-9.56 3.63,-14.27 2.18,-7.59 4.79,-15.05 7.73,-22.37 4.4,-11.5 12.21,-21.17 18.26,-31.78 6.85,-10.4 11.54,-21.99 16.74,-33.25 4.92,-10.33 10.27,-20.49 16.41,-30.16 -8.21,11.57 -16.36,23.21 -25.74,33.88 -12.91,14.03 -22.1,30.87 -32.11,46.95 -2.25,-0.09 -4.2,0.74 -5.6,2.51 1.32,2.63 -1.17,4.54 -3.23,5.62 -4.36,2.22 -8.87,4.11 -13.35,6.05 -8.83,-4.01 -15,-11.68 -22.73,-17.23 -3.03,-3.01 -5.45,-6.6 -8.85,-9.23 -3.42,-2.99 -7.85,-4.7 -10.82,-8.21 -2.6,-2.95 -4.57,-6.37 -6.63,-9.69 16.94,-16.92 30.37,-36.86 46.54,-54.46 7.57,-8.2 14.24,-17.17 21.01,-26.02 15.07,-3.57 29.9,-8.15 44.63,-12.95 28.9,-8.81 57.7,-19.35 82.94,-36.28 -1.44,3.08 -2.82,6.34 -2.57,9.82 0.25,5.34 0.24,10.95 2.88,15.78 2.2,3.52 0.79,8.34 3.96,11.33 -3.81,9.23 -6.15,19.42 -4.57,29.42 5.73,-0.88 11.55,-0.83 17.33,-1.16 11.92,0.32 23.4,-3.38 34.78,-6.41 2.88,6.25 10.68,6.14 16.41,4.75 6.28,-1.43 12.9,-2.58 18.34,-6.23 4.66,-3.24 7.8,-8.07 11.24,-12.46 0.72,12.88 4.44,25.69 11.78,36.39 4.46,6.25 11.49,9.89 16.55,15.58 2.89,3.35 7.69,5.45 12,3.59 5.23,-2.2 9.95,-5.45 14.57,-8.72 0.93,7.39 6.94,13.97 14.47,14.81 2.81,0.42 5.5,-0.69 8.09,-1.63 -2.65,17.26 1.01,34.93 8.14,50.7 10.79,18.23 23.3,35.44 37.2,51.43 8.67,-7.09 18.89,-12.07 27.18,-19.64 -1.27,5.6 1.25,10.98 1.97,16.48 3.08,13.76 5.68,27.72 11.05,40.84 6.98,0.09 12.12,-4.95 17.36,-8.79 3.24,-2.33 6.58,-4.53 9.8,-6.88 -0.54,4.24 -1.76,8.65 -0.33,12.86 2.13,7.14 4.57,14.21 6.03,21.55 1.55,7.21 4.66,13.9 7.36,20.72 2.92,1.24 6.23,1.29 9,-0.4 6.02,-3.17 11.61,-7.12 17.01,-11.24 -0.61,6.29 2.63999,11.94 4.46999,17.76 2.62,8.99 7.28,17.12005 11.69,25.32005 7.1,-5.34 15.44,-8.7 22.38,-14.29005 4,-3.52 9.23,-5.31 12.81,-9.35 -0.53,10.09 2.26,20.02005 6.68,29.02005 5.07,10.03 11.02,20.29 20.96,26.21 9.15,-5.79 19.13,-10.1 29.07,-14.34 4.99,-2.62 9.58,-6 13.84,-9.67 0.23,7.21 1.37,14.95 6.26,20.6 3.25,4.07 8.7,6.68 13.92,5.23 5.37,-1.45 10.31,-4.16 15.07,-6.99 2.23,2.6 4.71,5.16 7.97,6.46 8.33,3.73 17.8,-2.7 25.95,1.87 10.27,4.76 24.31,3.91 31.94,-5.22 4.85,6.06 12.21,10.18 20.07,10.29 5.7,-0.03 11.41,-0.39 17.1,-0.8 7.57,-0.23 13,-7.06 15.28,-13.68 1.93,11.08 5.7,21.73 9.04,32.45 4.47,14.48 11.81,27.82 18.95,41.12 3.2,5.81 6.31,11.68 9.76,17.36 1.6,2.35 1.46,5.29 1.68,8.02 0.67,12.62 1.82,25.28 0.86,37.92 z m 11.53,58.53 c -0.98,-3.19 -3.73,-4.99 -7.04,-4.4 0.89,-11.74 3.7,-23.27 3.85,-35.07 0.99,-20.41 -2.69,-40.68 -8.1,-60.28 5.01,6.97 10.24,13.92 13.78,21.79 3.67,8.29 8.52,16.14 10.54,25.08 2.71,16.31 1.52,32.9 1.93,49.36 -5.29,-1.49 -10.84,0 -14.96,3.52 z m -19.54,91.27 c 2.67,4.56 6.23,8.58 10.87,11.23 -3.28,2.39 -6.5,4.84 -9.82,7.16 -1.56,-6 -2.25,-12.26 -1.05,-18.39 z m 11,12.65 c 0.72,6.57 1.37,13.49 5.24,19.11 -2.14,1.13 -3.9,2.77 -5.41,4.64 -3.88,-4.46 -6.87,-9.63 -8.85,-15.18 3.07,-2.8 6.08,-5.65 9.02,-8.57 z m -134.69,101.72 c -7.44,-3.53 -14.02,-8.47 -20.44,-13.54 13.51,-20.84 33.46,-36.31 53.23,-50.84 13.87,-10.93 28.37,-21.04 42.98,-30.95 14.05,-10.39 28.62,-20.15 41.61,-31.89 -0.11,11.48 0.35,23.14 3.69,34.21 -14.06,11.15 -30.71,18.75 -43.72,31.25 -11.85,10.77 -22.89,22.38 -34.31,33.59 -11.06,11.08 -21.82,22.48 -31.62,34.69 -3.9,-1.9 -7.42,-4.72 -11.42,-6.52 z m 71.39,48.05 c -7.36,-1.93 -15.16,-1.77 -22.31,-4.54 -10.84,-4.07 -21.31,-9.05 -32.08,-13.3 10.47,-16.1 21.98,-31.5 33.6,-46.78 10.74,-13.18 21.49,-26.37 32.85,-39.02 11.5,-13.02 25.8,-23.02 38.71,-34.52 2.26,6.36 6.34,11.77 10.57,16.92 -0.27,3.92 -0.11,7.87 1.05,11.67 -9.33,13.44 -17.23,27.8 -25.01,42.18 -7.79,14.1 -13.81,29.12 -21.98,43.03 -4.89,8.27 -10.33,16.2 -15.4,24.36 z m 3.34,35.83 c 1.8,-10.37 4.5,-20.57 6.29,-30.94 1.74,-10.2 5.14,-20.03 9.67,-29.31 6.16,-12.41 12.18,-24.91 19.07,-36.94 8.68,-14.61 17.38,-29.22 26.72,-43.42 3.09,3.77 7.24,6.73 12.03,7.89 0.97,0.48 2.94,0.25 2.96,1.82 1.08,7.81 4.73,15.06 9.64,21.16 -8.86,15.26 -17.29,30.78 -25,46.66 -11.32,23.62 -22.75,47.24 -32.1,71.72 -9.13,-4.82 -19.9,-4.45 -29.28,-8.64 z m 100.45,-134.08 c -6.38,-1.07 -13,-2.72 -18.14,-6.83 -0.64,-4.57 -0.53,-9.24 0.26,-13.76 1.98,2.77 1.91,6.51 4.11,9.2 3.3,4.96 9.05,7.34 14.63,8.71 -0.22,0.67 -0.64,2.01 -0.86,2.68 z m 1.03,6.88 c 6.89,0.62 14.12,1.77 20.83,-0.56 2.58,-0.98 5.38,-0.83 8.11,-1.06 -3.6,5.96 -7.4,11.79 -11.54,17.4 -5.64,8.04 -9.97,17.07 -12.32,26.64 -1.38,-1.54 -2.77,-3.14 -3.2,-5.19 -1.87,-6.55 -4.33,-13.08 -4.47,-19.96 0.56,-5.8 2.05,-11.47 2.59,-17.27 z m -4.07,-0.64 c -1.92,3.91 -4.29,7.57 -6.57,11.27 -3.28,-4.81 -5.63,-10.23 -7.41,-15.76 4.55,1.81 9.14,3.55 13.98,4.49 z m -15.45,-27.51 c -1.02,3.8 -2.47,7.47 -3.88,11.15 -2.01,-2.47 -3.6,-5.22 -4.9,-8.09 2.98,-0.87 5.69,-2.52 8.78,-3.06 z m -3.82,-10.92 c 1.31,-2.25 2.7,-4.44 4.19,-6.57 0.06,2.85 0.1,5.72 0.2,8.6 -1.48,-0.67 -2.95,-1.36 -4.39,-2.03 z m 2.85,-7.09 c -1.48,1.82 -2.96,3.66 -4.66,5.29 -6.18,-4.24 -6.8,-12.16 -7.19,-18.97 2.36,2.37 4.58,5.36 8.06,6.09 1.82,0.64 3.53,-0.54 4.84,-1.68 0.4,-0.18 1.18,-0.55 1.58,-0.74 -0.93,3.28 -0.13,7.3 -2.63,10.01 z m 66.48,191.27 c -2.18,11.78 -4.46,23.56 -6.02,35.45 -1.97,15.06 -4.76,30.21 -3.41,45.46 -3.66,1.09 -7.14,2.63 -10.63,4.15 -9.07,-12.78 -18.97,-25.24 -25.01,-39.83 -3.96,-10.01 -8.34,-20.17 -8.77,-31.08 -0.76,-15.65 2.92,-31.09 7.07,-46.06 3.82,-13.51 8.73,-26.68 13.02,-40.04 0.21,-1.66 1.76,-0.58 2.23,0.32 7.83,9.1 19.52,13.98 31.25,15.53 1.77,4.31 6.15,6.38 10.57,6.84 -2.76,16.55 -7.3,32.74 -10.3,49.26 z m 77.47,32.11 c -0.25,10.34 -0.13,20.7 -0.88,31.03 -0.57,11.5 -0.83,23.15 -3.63,34.39 -2.39,7.87 -4.87,15.95 -9.98,22.55 -5.79,9.13 -13.67,16.62 -20.37,25.04 -9.56,-11.8 -20.8,-22.44 -28,-35.98 -3.9,-8.88 -6.78,-18.28 -7.57,-27.98 -1.75,-18.98 -2.11,-38.06 -2.24,-57.11 -0.03,-11.03 1.61,-21.97 1.99,-32.98 0.25,-13.54 1.75,-27.04 3.83,-40.42 3.9,-0.22 7.74,-1.03 11.54,-1.99 3.74,3.3 7.75,6.57 12.57,8.16 2.55,0.73 5.1,-0.19 7.27,-1.54 5.65,0.94 10.36,-2.75 14.7,-5.78 4.59,1.3 9.25,2.47 14.03,2.89 0.53,0.64 1.07,1.31 1.62,2 0.65,10.89 2.61,21.68 2.95,32.61 0.03,15.07 2.68,30.02 2.17,45.11 z m 56.97,-1.9 c -4.05,12.6 -8.98,25.07 -16.38,36.14 -5.01,7.38 -10.14,14.68 -15.39,21.89 -3.5,-1.48 -7.05,-2.84 -10.6,-4.17 1.04,-18.08 -2.4,-35.95 -4.79,-53.79 -3.03,-18.53 -6.44,-37.01 -10.82,-55.27 -1.66,-7.53 -3.62,-15.03 -4.07,-22.75 4.41,-0.09 8.37,-2.66 10.24,-6.65 9.39,-1.38 18.78,-4.47 26.18,-10.59 2.75,-1.88 4.61,-4.71 7.14,-6.82 5.82,17.88 12.51,35.52 16.81,53.87 3.54,15.69 6.36,32.36 1.68,48.14 z m 67.37,-37.25 c -6.73,-17.46 -14.38,-34.55 -22.42,-51.44 -10.84,-23.23 -22.33,-46.17 -35.34,-68.26 5.23,-6.39 9.02,-14.14 9.89,-22.42 5.86,-1.07 11.27,-4.08 15.02,-8.76 8.94,13.54 17.23,27.49 25.56,41.41 5.19,8.62 9.65,17.65 14.17,26.64 6.72,13.04 13.45,26.39 15.97,41 1.94,11.08 4.71,22 6.75,33.06 -9.48,4.26 -20.39,3.85 -29.6,8.77 z m -60.08,-129.86 c -0.76,1.04 -1.08,3.17 -2.86,2.65 -1.96,-3.61 -4.13,-7.1 -5.91,-10.79 4.89,-0.91 9.52,-2.71 14.15,-4.48 -1.39,4.36 -3.34,8.52 -5.38,12.62 z m 12.44,-48.58 c -1.99,-2.53 -4.35,-4.79 -5.97,-7.56 -0.63,-2.52 -0.85,-5.15 -1.28,-7.66 2.21,0.78 4.39,2.81 6.9,1.91 3.28,-0.97 5.45,-3.8 7.79,-6.1 -0.55,6.99 -1.23,14.93 -7.44,19.41 z m 4.1,11.26 c -0.91,1.26 -4.22,0.54 -3.02,-1.25 0.84,-1.56 3.97,-0.55 3.02,1.25 z m -10.08,-16.04 c 1.48,1.98 3.03,3.99 3.96,6.33 -1.33,0.82 -2.72,1.51 -4.08,2.24 -0.01,-2.87 0.01,-5.73 0.12,-8.57 z m 9.21,20.59 c -1.28,2.89 -2.94,5.61 -4.94,8.07 -1.28,-3.66 -3.21,-7.18 -3.57,-11.08 3.05,0.17 5.55,2.31 8.51,3.01 z m 8.06,-14.39 c 3.85,-5.59 4.58,-12.48 5.26,-19.04 3.19,2.59 6.12,5.5 9.14,8.31 -1.9,5.72 -5.09,10.9 -8.94,15.51 -1.44,-2.01 -3.27,-3.67 -5.46,-4.78 z m 19.9,-13.72 c 2.74,-10.2 2.94,-20.84 2.96,-31.33 11.22,10.19 23.72,18.79 35.92,27.76 8.04,6.04 16.57,11.41 24.74,17.3 12.69,8.79 24.68,18.54 37.16,27.64 15.56,12.06 30.41,25.48 41.46,41.92 -5.74,4.86 -11.83,9.38 -18.55,12.79 -4.7,2.39 -9.27,5 -13.66,7.89 -9.51,-12.24 -20.33,-23.37 -31.16,-34.42 -14.01,-13.72 -27.41,-28.13 -42.42,-40.79 -11.5,-9.01 -24.62,-15.71 -36.12,-24.72 -1.49,-0.9 -0.47,-2.76 -0.33,-4.04 z m 35.36,38.97 c 10.89,11.87 20.99,24.44 31.3,36.82 13.26,16.79 25.92,34.07 37.71,51.93 -11.05,4.38 -21.8,9.51 -32.95,13.64 -7.1,2.65 -14.8,2.55 -22.08,4.39 -7.95,-12.71 -16.55,-25.07 -23.06,-38.62 -11.73,-24.83 -24.56,-49.24 -39.87,-72.08 0.92,-3.85 1.57,-7.84 0.75,-11.76 4.66,-5.01 8.47,-10.8 10.98,-17.17 12.27,11.1 25.96,20.64 37.22,32.85 z m -40.29,-55.49 c 0.56,-0.84 0.52,-2.62 1.91,-2.38 0.11,6.15 0.65,12.73 -1.55,18.49 -3.67,-1.12 -6.54,-4.65 -9.91,-6.66 3.77,-2.42 7.62,-5.26 9.55,-9.45 z m -40.35,-180.34 c -2.72,4.21 -3.87,9.21 -6.54,13.45 -1.78,2.58 -1.87,5.78 -2.56,8.74 -1.09,3.47 -2.78,6.73 -4.2,10.08 -3.55,-1.33 -7.63,-0.52 -10.08,2.46 -5.9,6.78 -11.06,14.46 -13.64,23.15 -1.59,5.31 -3.05,10.68 -5.25,15.79 1.95,-2.63 4.21,-5.05 7,-6.82 5.28,-3.48 9.71,-8.08 13.72,-12.94 -0.47,2.44 -1.79,5.2 -0.12,7.5 1.68,2.82 6.3,2.52 7.63,-0.49 1.21,-3.1 1.56,-6.46 2.31,-9.68 1.38,-0.45 2.79,-0.87 4.22,-1.26 -3.97,12.07 0.6,24.63 -0.32,36.92 -2.27,-2.87 -4.35,-6.03 -7.46,-8.06 -2.16,-1.38 -4.4,-2.61 -6.48,-4.07 2.3,4.91 2.74,10.47 5.17,15.37 -1.59,-0.82 -3.18,-1.58 -4.76,-2.32 -1.35,-3.29 -3.18,-6.36 -5.8,-8.77 -2.17,1.79 -4.31,3.62 -6.45,5.44 1.46,0.82 2.96,1.63 4.36,2.63 -0.77,3.04 -5.42,2.32 -7.93,3.11 3.41,-0.21 6.3,1.58 9.05,3.37 3.39,2.15 8.67,2.1 10.44,6.26 0.52,4.46 3.57,8.34 3.18,12.93 -0.36,4.82 1.06,9.51 3,13.87 -3.69,1.02 -7.72,2.62 -8.85,6.69 -3.18,-2.6 -7.21,-3.65 -10.95,-5.1 -1.8,-0.91 -3.66,-0.12 -5.41,0.36 1.37,6.48 9.57,6.1 14.71,5.75 l 0.96,0.64 c 2.01,-1.7 4.87,-0.34 7.25,-1.09 5.27,-1.51 11.37,-0.78 15.64,2.86 1.56,0.89 3.11,1.88 4.62,2.94 2.34,-1.77 4.73,0.35 6.86,1.42 4.77,3.07 10.21,5.77 13.25,10.81 3.6,5.55 9.55,9.51 11.99,15.79 -0.61,5.32 -4.33,9.77 -8.26,13.17 -1.39,-10.33 -6.47,-19.83 -13.18,-27.68 -2.28,-2.7 -3.93,-6.23 -7.38,-7.64 -5.45,-2.27 -11.44,-0.53 -17.11,-1.33 -3.83,-0.46 -8.89,-1.56 -11.05,2.72 3.24,-0.26 6.5,-0.01 9.58,1.13 4.73,1.61 10.24,0.75 14.53,3.56 3.1,6.64 8.45,11.87 11.63,18.48 2.28,4.09 3.4,8.71 3.7,13.38 -3.67,3.65 -7.71,6.85 -12.09,9.59 -3.58,-1.29 -3.43,-5.54 -5.33,-8.25 -2.38,-3.57 -6.3,-5.62 -9.23,-8.64 -5.02,-5.13 -9.38,-10.85 -13.73,-16.54 -3.57,-4.69 -8.22,-8.37 -12.43,-12.43 -0.83,-1.06 -2.17,-0.71 -3.29,-0.7 4.89,5.03 7.84,11.63 11.45,17.6 3.15,5.78 6.94,11.19 10.92,16.44 0.7,4.3 2.07,8.76 0.68,13.09 -1.38,4.16 -3.52,8.03 -5.4,11.99 -2.19,4.21 -4.48,8.77 -8.65,11.37 -2.04,1.33 -4.61,1.03 -6.7,0.03 -4.62,-2.3 -9.65,-5.1 -11.36,-10.33 0.72,4.05 2.12,8.06 4.53,11.44 3.53,4.5 10.67,6.21 15.51,2.79 4.99,-3.45 7.35,-9.35 9.46,-14.8 1.39,-3.78 2.81,-7.58 3.68,-11.52 0.98,-4.69 -0.67,-9.33 -1.53,-13.87 2.83,3.18 6.5,5.59 9.1,8.98 2.8,6.72 2.54,14.25 2.18,21.4 -0.54,5.53 -0.25,11.1 -0.23,16.65 0.2,3.14 -2.54,5.46 -5.19,6.55 -3.36,1.36 -7.17,2.45 -10.72,1.23 -6.44,-1.92 -13.44,-2.76 -18.91,-6.99 -3.85,-3.03 -7.97,-5.78 -11.37,-9.31 -3.92,-5.3 -3.03,-12.33 -3.06,-18.52 -0.65,7.99 -3.93,16.33 -0.7,24.14 2.97,5.99 8.64,10.3 14.58,13.14 4.58,2.33 9.86,1.96 14.68,3.5 l 1.1,-2.15 c -0.16,0.46 -0.49,1.38 -0.65,1.84 3.44,-0.45 6.92,-0.21 10.39,-0.11 4.74,-2.2 10.29,-3.36 13.69,-7.7 3.13,-2.98 3.41,-7.51 5.44,-11.07 0.86,4.7 0.69,9.51 0.36,14.27 -5.32,3.43 -11.38,5.8 -17.68,6.46 -0.49,-0.35 -1.47,-1.03 -1.95,-1.37 0.29,2.25 -2.07,1.85 -3.38,2.25 -3.36,0.38 -6.74,0.52 -10.1,0.56 0.67,-0.51 2,-1.53 2.66,-2.04 -4.99,-2.54 -10.89,0.42 -15.93,-1.98 -5.24,-2.36 -9.09,-6.79 -13.22,-10.62 1.91,2.57 4.11,4.96 5.42,7.94 -6.53,-2.22 -8.32,-9.29 -12.11,-14.24 -3.84,-5.82 -8.5,-11.72 -9.06,-18.91 0.92,2.87 4.62,8.76 7.59,5.01 -0.97,-6.26 -0.92,-12.6 -1.11,-18.91 -0.65,-8.39 -0.95,-17.16 2.2,-25.13 2.1,-6.33 7.46,-10.87 13.12,-14.01 -6.26,2.01 -9.92,7.6 -14.07,12.24 -2.67,-3.42 -2.43,-8 -2.17,-12.07 0.55,-6.8 4.17,-13.55 10.26,-16.89 -3.8,-0.07 -8.22,-0.43 -10.96,2.79 -5.65,6.47 -6.7,16.53 -3.2,24.29 1.09,2.65 4.02,3.35 6.65,3.03 -2.38,3.55 -4.7,7.14 -7.06,10.7 0,-1.2 0.03,-2.39 0.08,-3.55 l 1.89,0.03 c -1.12,-5.65 -6.48,-8.54 -9.64,-12.84 -1.62,-3.82 -4.48,-6.87 -6.43,-10.47 0.94,3.99 1.07,8.13 2.09,12.13 -4.4,-2.15 -9.18,-3.24 -13.8,-4.76 -0.9,2.08 -1.74,4.19 -2.48,6.35 1.79,0.83 5.12,-0.09 5.9,1.97 -2.87,0.69 -5.57,1.79 -7.85,3.69 3.21,-0.44 6.42,-0.89 9.61,-1.56 0.04,-0.49 0.13,-1.47 0.18,-1.95 l 0.37,-0.66 c 4.14,0.89 8.76,1.27 11.93,4.46 0.26,-0.39 0.77,-1.17 1.03,-1.56 1.55,1.12 3.13,2.24 4.73,3.34 -1.46,6.55 -4.94,12.52 -5.63,19.26 -0.84,7.51 -1.4,15.27 0.38,22.7 2.43,9.58 9.35,16.96 14.06,25.42 3.85,6.57 11.63,8.49 18.22,10.97 3.43,7.07 5.51,14.69 7.81,22.19 2.9,9.32 8.18,17.72 10.97,27.07 -0.44,2.33 -2.13,4.3 -2.96,6.54 1.99,0 3.97,-0.11 6.01,-0.21 -0.02,1.76 -0.01,3.55 -0.01,5.34 0.88,-2.14 1.74,-4.29 2.61,-6.42 5.09,-2.09 11.71,-3.75 13.82,-9.48 1.92,-7.6 4.46,-15.26 4.05,-23.2 0.78,-0.56 1.58,-1.1 2.41,-1.61 8.1,14.13 16.09,28.34 22.91,43.15 7.35,15.78 14.27,31.85 18.88,48.68 2.42,8.82 4.66,17.77 5.16,26.95 0.91,13.7 1.07,27.44 1.05,41.17 -3.98,0.29 -7.86,1.17 -11.71,2.13 -5.57,-0.86 -11.21,-2.07 -16.16,-4.85 -4.73,-2.65 -10,-4.33 -15.43,-4.44 -1.88,-18.04 -6.5,-35.64 -11.59,-53 -5.25,-16.69 -11.06,-33.33 -19.37,-48.78 1.17,-2.85 1.31,-5.93 1.11,-8.95 -1.79,0.21 -3.58,0.41 -5.32,0.7 -1.51,-2.92 -2.78,-5.94 -4.13,-8.91 1.01,3.13 2.27,6.17 3.49,9.25 -8.87,4.18 -17.54,8.93 -25.14,15.18 -0.92,0.15 -1.82,0.3 -2.69,0.48 -0.75,2.88 -3.63,4.32 -5.59,6.31 -4.36,0.08 -8.73,0.28 -13.05,-0.23 0.49,-2.35 1.96,-5.99 -1.1,-7.19 -3.61,0.3 -6.04,3.42 -8.74,5.48 -1.58,-1.25 -3.01,-3.13 -5.21,-3.07 -4.55,-0.55 -6.5,4.34 -9.33,6.92 -2.87,-2.81 -4.66,-7.16 -8.69,-8.47 -3.43,-0.95 -5.64,2.19 -8.02,3.97 -3.11,0.14 -5.04,-3.31 -8.17,-3.27 -1.66,0.78 -1.8,2.72 -2.38,4.25 -3.7,0.16 -7.39,0.01 -11.08,-0.04 -2.45,-2.46 -6.28,-4.52 -5.9,-8.53 -0.32,-11.35 -0.12,-22.78 1.2,-34.05 -2.3,11.87 -4.28,23.97 -2.89,36.09 -7.85,-6.02 -16.34,-11.14 -25.37,-15.19 1.25,-3.23 2.48,-6.47 3.36,-9.81 -1.21,3.22 -2.46,6.43 -4.04,9.5 -1.75,-0.32 -3.49,-0.61 -5.21,-0.86 -0.37,3.09 -0.02,6.19 1.01,9.16 -8.01,14.56 -13.44,30.36 -18.53,46.13 -5.34,17.8 -10.08,35.88 -12.08,54.4 -5.37,0.03 -10.53,1.75 -15.19,4.31 -4.82,2.77 -10.35,3.83 -15.74,4.86 -3.95,-0.85 -7.88,-1.84 -11.91,-2.16 -0.06,-11.14 0.2,-22.28 0.65,-33.41 0.33,-19.42 6.15,-38.24 12.98,-56.25 9.44,-23.89 21.01,-46.93 34.29,-68.92 0.44,0.55 1.32,1.64 1.76,2.19 0.25,8.06 2.19,15.96 4.6,23.63 2.49,5.02 8.53,6.47 13.31,8.47 0.85,2.2 1.72,4.41 2.6,6.62 -0.09,-1.91 -0.1,-3.82 -0.01,-5.7 1.63,-0.16 5.04,1.8 5.58,-0.57 -0.79,-1.87 -2.14,-3.47 -2.71,-5.39 3.12,-10 8.82,-19 11.66,-29.1 1.92,-6.85 4.2,-13.6 7.11,-20.1 6.85,-1.83 14.37,-4.41 18.18,-10.88 4.98,-8.9 12.46,-16.77 14.2,-27.16 1.1,-7.53 0.66,-15.26 -0.56,-22.75 -1.18,-5.6 -3.74,-10.78 -5.28,-16.27 1.71,-1.21 3.4,-2.44 5.08,-3.69 0.12,0.45 0.34,1.37 0.46,1.83 3.58,-3.14 8.41,-3.89 12.97,-4.46 l 0.25,0.51 c -0.3,0.5 -0.89,1.51 -1.18,2.02 3.33,0.53 6.64,1.21 10.02,1.5 -2.08,-1.79 -4.67,-2.65 -7.14,-3.67 0.12,-0.21 0.37,-0.62 0.49,-0.83 3.79,-0.91 8.38,-1.41 10.82,-4.85 2.17,-3.25 -0.09,-6.97 -0.58,-10.34 -0.6,-4.6 -0.14,-9.24 -0.04,-13.85 -0.19,7.44 -3.66,14.06 -6,20.94 -5.05,2.2 -10.62,2.95 -15.48,5.61 1.03,-4.12 0.93,-8.47 2.42,-12.47 -2.18,3.68 -5.09,6.88 -6.8,10.85 -3.07,4.24 -8.6,7.03 -9.38,12.69 0.47,-0.01 1.4,-0.03 1.86,-0.04 -0.02,1.09 -0.02,2.2 0,3.33 -2.44,-3.49 -4.68,-7.1 -7.08,-10.59 2.22,0.14 4.9,0.21 6.13,-2.07 2.96,-4.83 2.91,-10.95 1.73,-16.32 -1.01,-4.09 -3.04,-8.34 -6.89,-10.42 -2.75,-1.41 -5.95,-0.7 -8.89,-0.94 8.36,3.7 11.62,13.82 10.75,22.38 -0.38,2.11 -0.13,5.47 -2.95,5.83 -3.49,-5.09 -7.76,-10.17 -13.98,-11.77 6.46,2.81 12.09,8.1 14.14,14.98 3.48,9.3 2.02,19.36 1.64,29.02 -0.2,4.53 0.24,9.2 -1.24,13.58 3.93,3.64 7.02,-2.58 8.39,-5.66 -1.71,10.6 -9.66,18.39 -14.49,27.57 -1.51,3.07 -4.59,4.69 -7.38,6.39 0.72,-1.28 2.18,-3.83 2.91,-5.11 -4.35,3.12 -8.33,7.85 -14.05,8.28 -4.34,0.15 -8.69,-0.11 -13.02,-0.08 1.18,1.04 2.4,2.1 3.61,3.19 -4.44,-0.14 -8.85,-0.51 -13.23,-1.1 0.14,-0.62 0.41,-1.86 0.55,-2.48 9.21,-0.17 19.18,0.55 27.42,-4.36 6.5,-3.96 13.17,-10.06 12.98,-18.32 -0.38,-6.34 -1.15,-12.72 -2.71,-18.88 1.12,6.74 1.61,14.91 -2.88,20.56 -6.57,5.66 -13.36,11.98 -22.17,13.71 -4.45,0.73 -8.8,3.32 -13.38,2.13 -3.46,-0.82 -7.53,-2.02 -9.23,-5.44 -0.94,-2.23 -0.42,-4.73 -0.44,-7.05 0.48,-10.39 -1.84,-21.05 1.17,-31.22 0.62,-2.74 3.03,-4.37 4.98,-6.14 8.82,-7.63 14.06,-18.28 19.88,-28.16 2.37,-3.54 4.11,-7.6 7.33,-10.5 -1.31,0.24 -2.79,0.1 -3.72,1.2 -4.05,3.91 -8.51,7.48 -11.93,12 -4.48,5.83 -8.92,11.74 -14.18,16.9 -3.01,3.02 -7.12,5.05 -9.09,8.99 -1.36,2.48 -1.59,5.69 -4.05,7.46 -4.68,-2.64 -8.83,-5.99 -12.62,-9.76 0.26,-9.01 5.19,-16.94 10.55,-23.84 1.53,-1.92 2.61,-4.13 3.75,-6.28 1.39,-3.2 5.48,-3.03 8.39,-3.62 5.57,-0.3 10.72,-3.42 16.37,-2.39 -1.64,-3.05 -5.29,-3.99 -8.47,-3.06 -6.05,1.3 -12.33,-0.38 -18.31,1.21 -3.85,1.06 -5.86,4.7 -8.13,7.63 -6.69,7.84 -12.06,17.25 -13.23,27.64 -4.1,-3.17 -7.76,-7.76 -8.29,-13.02 2.36,-5.84 7.76,-9.63 11.29,-14.7 4.26,-6.9 11.95,-10.55 18.93,-14.12 0.33,0.39 0.98,1.18 1.31,1.58 4.49,-3.47 9.55,-7.15 15.53,-6.89 3.794,0.386 7.685,1.945 11.442,0.439 -0.308,0.358 -0.597,0.741 -0.852,1.171 5.32,-0.66 12.3,1 16.11,-3.81 1.65,-2.82 -2.66,-3.9 -4.57,-2.65 -3.563,1.595 -7.956,2.207 -10.608,5.193 -1.535,-3.899 -5.312,-5.788 -9.112,-6.863 2.06,-4.15 3.33,-8.72 2.99,-13.38 -0.55,-4.32 2.44,-7.9 2.92,-12.06 0.45,-3.26 4.02,-4.54 6.73,-5.48 4.52,-1.16 7.86,-5.44 12.86,-4.88 -2.61,-0.43 -5.26,-0.83 -7.65,-1.97 -0.05,-0.31 -0.15,-0.95 -0.2,-1.27 2.28,-1.81 5.08,-2.73 7.84,-3.52 3.07,-0.7 2.57,-5.56 -0.05,-6.58 -3.45,-1.73 -7.31,0.36 -10.03,2.51 -2.81,2.07 -4.24,5.33 -5.64,8.41 -1.5,0.64 -2.98,1.3 -4.45,1.98 2.1,-4.83 2.68,-10.15 4.88,-14.92 -5.27,3.02 -10.54,6.36 -13.52,11.86 -1.47,-11.33 -0.83,-22.89 -3.41,-34.09 -2.8,-11.54 -4.5,-23.3 -7.37,-34.83 7.37,6.83 14.36,14.04 21.46,21.14 1.86,1.81 3.59,3.94 6.26,4.57 -0.56,-3.48 -3.34,-5.83 -5.45,-8.4 -10.08,-10.97 -20.82,-21.59 -28.47,-34.47 -4.17,-9.07 -10.61,-16.78 -15.79,-25.24 -8.78,-14.84 -16.71,-30.19 -24.42,-45.61 -0.89,-10.27 -4.78,-19.9 -8.18,-29.54 -2.1,-6.92 -5.7,-13.19 -8.74,-19.68 -4.26,-18.42 -9.65,-36.59005 -13.42,-55.13005 -3.04,-17.14 -5.67,-34.53 -4.71,-51.99 2.9,4.18 3.88,9.22 5.62,13.9 1.66,3.18 4.4,5.67 5.98,8.93 3.46,5.24 3.61,11.83 6.76,17.22 2.13,4.34 5.95,7.48 8.52,11.51 2.11,4.61 3.93,10 8.92,12.28 1.05,1.53 2.23,3 3.76,4.12 1.92,7.7 6.13,14.58005 11.44,20.42005 7.27,7.84 12.36,17.44 19.98,25 4.88,6.48 9.04,13.5 14.01,19.93 5.16,6.71 10.22,14.35 18.39,17.64 4.21,1.88 8.9,1.82 13.32,2.91 5.78,0.88 7.11,8.22 12.5,9.92 4.3,0.78 7.51,4.18 11.8,5.02 5.51,1.17 11.21,0.17 16.77,0.98 6.05,1.22 11.63,4.52 15.52,9.33 1.86,2.33 5.08,1.9 7.4,0.54 0.91,1.34 1.54,3.58 3.53,3.62 6.63,0.44 13.28,0.41 19.92,0.1 5.56,-1.43 7.52,-7.64 9.2,-12.45 1.64,1.62 3.23,4.18 5.95,3.65 2.08,-0.95 1.29,-3.43 1.75,-5.21 7.48,-5.9 17.86,-4.86 26.03,-9.26 7.16,-4.71 11.26,-13.24 19.36,-16.67 8.74,-3.84 17.97,-6.48 27.24,-8.67 3.09,-0.91 6.76,-0.53 9.39,-2.67 4.13,-4.66 3.05,-12.83 9.1,-15.92 6.56,-4.61 7.86,-13.07 10.64,-20.04 4.44,-8.86 8.23,-18.06005 13.39,-26.55005 3.11,3.47 8.05,3.9 12.02,1.64 -2.89,8.18 -4.67,16.70005 -7.15,25.01005 -3.19,10.94 -5.99,21.98 -8.91,32.99 -2.35,8.85 -6.79,16.9 -10.97,24.99 -4.97,10.05 -10.06,20.08 -16.21,29.47 0.2,-2.87 0.92,-5.65 1.74,-8.39 -2.2,3.44 -3.55,7.3 -4.33,11.3 -0.91,4.7 -3.44,8.81 -5.47,13.08 -3.19,6.56 -6.36,13.13 -9.87,19.53 -1.38,2.49 -4.09,3.86 -5.58,6.27 z m -9.16,273.16 c -1.08,5.31 -2.7,10.5 -4.32,15.67 -0.42,1.73 -1.78,2.92 -2.96,4.15 -2.57,-10.27 -7.37,-19.91 -13.61,-28.43 -3.73,-5.05 -7.07,-10.35 -10.33,-15.7 5.59,-0.78 10.58,2.42 16.11,2.25 4.36,0.09 8.72,-0.34 13.07,-0.83 0.28,7.67 3.72,15.18 2.04,22.89 z m 885.2,-602.75005 c 1.46,1.59 3.15,3.05 4.31,4.93 -2.94,5.32 -6.36,10.81 -11.73,13.98 -4.6,2.71 -8.62,6.29 -11.97,10.42 -2.91,3.82 -7.3,6.01 -10.61,9.41 -4.44,4.39 -9.52,8.1 -15.08,10.94 -4.31,-1.9 -8.65,-3.73 -12.86,-5.8 -2.27,-1.13 -5.21,-3.04 -3.9,-6.01 -1.41,-1.85 -3.38,-2.77 -5.68,-2.35 -6.36,-10.84 -12.88,-21.61 -19.96,-31.99 -6.12,-9.08 -13.89,-16.84 -20.57,-25.47 -5.96,-7.64 -11.73,-15.42 -17.06,-23.5 6.53,11.22 12.74,22.64 18.03,34.51 4.39,10 9,19.95 14.93,29.14 6.31,10.96 14.4,21.01 18.73,33.02 4.07,9.68 6.47,19.93 10.41,29.66 1.24,3.76 0.33,7.77 -0.64,11.49 -1.81,6.88 -4.22,13.58 -6.45,20.34 -1.9,5.55 -2.69,11.69 -6.46,16.41 -1.66,2.35 -4.19,3.84 -6.6,5.28 -3.63,-8.08 -8.05,-15.76 -13.07,-23.03 -8.35,-12.5 -17.64,-24.35 -27.74,-35.48 -6.82,-6.82 -12.3,-14.82 -19.09,-21.67 -11.83,-13 -26.03,-23.49 -38.4,-35.92 4.26,5.75 9.01,11.15 12.98,17.14 12.26,18.35 25.77,35.84 37.86,54.32 6.1,9.24 12.22,18.48 17.84,28.04 6.2,10.09 11.22,20.86 17.74,30.77 -4.84,8.48 -10.59,16.69 -18.81,22.21 -8.43,5.4 -17.04,10.66 -24.42,17.47005 -2.27,1.94 -3.98,4.95 -7.24,5.2 -4.91,-12.14005 -11.46,-23.55005 -18.48,-34.57005 -3.03,-4.88 -6.92,-9.25 -9.1,-14.61 -9.78,-22.07 -22.74,-42.65 -37.76,-61.52 -15.37,-19.44 -32.88,-37.04 -49.99,-54.93 -14.44,-14.48 -29.17,-28.7 -42.43,-44.3 8.94,11.33 18.22,22.4 26.63,34.14 16.28,22.32 34.79,42.99 49.89,66.17 5.62,8.68 11.24,17.37 16.66,26.19 5.38,10.2 10.74,20.42 16.66,30.32 2.5,4.55 5.92,8.73 7.08,13.91 2.75,10.06 9.38,18.35 15.59,26.5 3.53,4.43 5.63,9.77005 8.88,14.41005 -7.44,12.45 -8.83,27.09 -12.97,40.72 -8.88,2.77 -18.29,1.45 -27.41,2.13 -5.63,0.66 -11.42,0.28 -16.83,2.14 -12.51,-22.12 -27.05,-43 -40.73,-64.38005 -11.28,-16.71 -20.96,-34.42 -29.95,-52.43 -6.9,-13.16 -13.68,-26.41 -21.57,-39 -7.58,-12.12 -14.43,-24.74 -19.85,-37.97 4.11,11.85 8.55,23.63 11.6,35.83 7.36,29.31 19.38,57.38 35.13,83.16 15.4,25.11005 32.28,49.32005 50.49,72.48005 3.11,4.19 6.82,7.88 10.08,11.95 1.76,4.65 -0.44,9.7 0.07,14.53 0.69,10.48 0.59,21.64 -4.21,31.22 -2.82,1.62 -6.06,2.23 -9.16,2.99 -7.71,1.67 -15.38,3.52 -23.14,4.85 -6.94,1.18 -13.83,2.95 -20.9,2.84 -5.13,0 -10.17,-1.01 -15.25,-1.51 -4.66,-12.81 -11.11,-24.86 -17.25,-36.99 -9.89,-19.78 -22.16,-38.2 -33.98,-56.84 -6.41,-9.95 -12.66,-20.02 -19.76,-29.48005 -8.67,-11.58 -17.1,-23.37 -24.59,-35.74 5.04,9.28 10.8,18.18 15.42,27.7 12.16,24.91005 24.09,49.94005 36.27,74.84005 14.75,28.51 30.3,56.59 45.09,85.07 -10.32,1.96 -20.2,5.76 -30.6,7.29 -5.25,0.82 -10.31,2.44 -15.46,3.63 -13.94,3.54 -28.75,0.94 -41.91,-4.31 -3.81,-1.58 -7.74,-2.83 -11.58,-4.25 -2.72,-7.18 -5.38,-14.49 -10.03,-20.7 -4.33,-5.28 -4.76,-12.32 -7.04,-18.52 -7.48,-26.08 -19.39,-50.73 -33.78,-73.67 -7.59,-12.21 -17.13,-23.05 -24.99,-35.07 -5.12,-7.52005 -9.81,-15.32005 -14.36,-23.18005 7.49,14.72 14.19,29.85005 19.91,45.35005 10.78,29.2 28.97,55.14 38.16,84.98 3.74,10.1 6.64,20.48 8.87,31.02 1.82,8.99 5.56,17.49 7.13,26.54 1,4.18 -1.83,7.91 -4.69,10.6 -3.7,3.52 -8.76,4.85 -13.29,6.88 -8.1,3.62 -17.03,4.56 -25.36,7.47 -6.57,2.23 -13.34,5.05 -20.42,3.9 -1.94,-14.93 -6.77,-29.32 -12.07,-43.34 -7.65,-18.35 -15.86,-36.47 -24.91,-54.18 -5.65,-12.37 -11.29,-24.8 -18.44,-36.39 -7.13,-11.5 -14.21,-23.04 -20.91,-34.8 5.35,10.29 10.75,20.57 15.28,31.26 4.96,11.87 10.4,23.54 15.58,35.32 11.49,26.1 19,53.69 27.1,80.96 1.84,6.3 3.84,12.55 6.18,18.69 2.16,5.44 1.33,11.42 1.38,17.13 -5,2.91 -9.46,7.12 -15.33,8.14 -8.7,1.58 -17.59,1.34 -26.38,1.82 -6.63,0 -13.3,-0.05 -19.8,1.39 0.8,-8.31 0.98,-16.83 -1.29,-24.94 -3.87,-14.29 -8.68,-28.39 -15.48,-41.57 -5.63,-12.04 -12.44,-23.46 -18.75,-35.13 -6.64,-13.01 -12.52,-26.43 -17.56,-40.13 7.6,22.95 15.78,45.72 22.82,68.85 3.09,10.3 5.01,20.93 8.6,31.08 4.07,13.04 9.81,25.58 12.65,38.99 0.46,3.06 1.74,6.32 0.33,9.33 -1.08,2.11 -0.32,4.37 -0.01,6.57 -0.21,2.3 -0.88,4.6 -1.97,6.65 -0.85,2.26 -3.7,1.43 -5.53,1.9 -5.6,0.34 -10.53,3.75 -16.08,4.07 -9.46,-1.39 -18.63,-4.22 -27.9,-6.48 -4.01,-1.07 -8.18,-0.9 -12.23,-0.32 -0.96,-15.76 -4.36,-31.24 -5.55,-46.97 -1.39,-12.77 -4.17,-25.45 -9.02,-37.36 -3.18,-7.3 -5.62,-14.88 -8.03,-22.46 3.87,13 4.63,26.58 6.25,39.97 1.05,9.66 2.57,19.28 3.19,28.99 1.02,13.66 3.55,27.31 2.25,41.06 -0.68,6.19 0.21,12.84 -2.33,18.67 -5.39,5.14 -11.88,8.95 -18.12,12.96 -6.15,4.04 -11.58,9.48 -18.6,11.99 -8.7,0.84 -17.75,-2.17 -26.22,1.07 -1.15,-4.71 -2.58,-9.33 -4.34,-13.83 -1.75,-4.25 -1.83,-8.9 -2.56,-13.36 -2.84,-19.14 -6.84,-38.09 -11.19,-56.94 -3.69,-16.48 -8.63,-32.66 -14.46,-48.51 -5.56,-15.9 -10.92,-31.88 -15.84,-47.99 4.89,18.84 9.09,37.87 12.45,57.05 3.12,18.51 8.05,36.65 12.38,54.91 3.97,16.59 7.72,33.25 11.17,49.97 2.49,9.44 1.28,19.31 0.88,28.93 -0.73,3.49 -0.78,9.44 -5.72,9.3 -8.22,0.43 -16.78,0.35 -24.69,-2.12 -2.65,-4.45 -4.31,-9.45 -6.45,-14.16 -5.2,-12 -7.45,-24.97 -12.14,-37.15 -6.98,-18.13 -11.42,-37.07 -16.18,-55.86 -2.76,-10.57 -4.45,-21.41 -7.69,-31.85 -0.53,-1.11 -0.63,-2.7 -1.98,-3.06 -1.17,3.21 -0.9,6.66 -1,10.02 -0.51,27.3 6.38,53.95 11.96,80.47 2.41,9.66 3.36,19.62 6.03,29.22 -6.14,-1.84 -12.49,-3.16 -18.21,-6.1 -9.06,-4.48 -15.97,-12.07 -24.34,-17.56 -3.31,-2.92 -8.37,-5.14 -8.78,-10.06 -5.82,-26.78 -9.87,-53.9 -12.77,-81.14 -1.05,-6.65 -0.63,-13.42 -1.71,-20.05 0.16,9.73 -0.12,19.46 -0.66,29.18 -0.16,23.33 3.51,46.57 9.66,69.05 -4.3,-3.6 -9.34,-6.18 -13.85,-9.4 -2.23,-8.8 -0.22,-17.95 -1.82,-26.81 -2.31,-14.94 -4.38,-29.95 -5.22,-45.05 -2.45,2.19 -5.57,3.63 -7.73,6.11 -0.89,13.08 -0.46,26.29 1.73,39.24 0.9,5.1 1.3,10.27 1.94,15.41 -0.39,-0.27 -1.19,-0.8 -1.59,-1.07 -2.67,0.65 -4.83,2.37 -5.59,5.09 -3.87,-3.39 -9.03,-4.98 -14.1,-3.96 -1.46,-5.08 -0.76,-10.38 -0.95,-15.57 -0.17,-7.82 -0.01,-15.63 0.54,-23.42 -1.24,0.99 -2.31,2.11 -3.48,3.16 0.35,-5.27 0,-10.61 0.79,-15.84 1.28,-3.78 2.38,-7.76 4.54,-11.14 10.6,-12.22 17.66,-26.92 24.79,-41.3 5.46,-10.96 12.21,-21.21 17.81,-32.09 3.09,-6.2 6.53,-12.22 9.76,-18.34 7.69,-14.38 10.04,-30.71 14.72,-46.15 2.27,5.16 2.62,11.21 6.42,15.65 2.32,2.57 4.99,5.75 8.83,5.43 8.13,0.08 16.68,1.95 24.47,-1.31 4.46,-1.7 8.09,-4.93 11.22,-8.46 6.27,7.66 17.17,9.33 26.39,7.31 3.44,-0.72 6.48,-2.62 9.86,-3.57 6.65,-1.09 13.32,1.94 19.94,0.39 4.21,-1.04 7.64,-3.94 10.3,-7.26 5.05,2.82 10.18,5.79 15.86,7.15 4.93,1.12 9.96,-1.3 13.12,-5.05 5.2,-5.68 6.52,-13.7 6.61,-21.13 5.42,4.71 11.8,8.13 17.32,12.72 5.49,4.33 10.76,9.07 16.91,12.49 4.57,2.37 9.24,-0.76 12.77,-3.53 7.07,-5.06 11.52,-12.72 15.68,-20.16 5.57,-10.15 9.31,-21.57005 8.74,-33.27005 8.7,7.76 15.82,17.45005 25.97,23.46005 4.18,2.62 9.75,2.09 13.54,-1.01 5.42,-3.58 7.45,-10.06005 9.08,-16.00005 2.46,-8.4 3.75,-17.18 3.24,-25.93 5.87,4.31 11.78,8.7 18.38,11.87 2.91,1.46 6.59,0.99 9.07,-1.13 4.01,-3.33 6.08,-8.32 7.74,-13.12 4.15,-13.35 7.21,-27.54 4.38,-41.49 5.38,3.67 10.76,7.36 15.89,11.39 4.07,3.05 9.86,5.88 14.71,2.8 4.92,-3.36 6.41,-9.7 7.81,-15.13 2.31,-13.55 4.93,-27.48 2.06,-41.16 7.1,6.14 15.28,10.8 22.92,16.2 2.84,1.88 5.26,5.27 9.1,4.82 3.04,-0.12 5.37,-2.44 7.18,-4.67 10.77,-15.07 19.86,-31.37 26.19,-48.81 6.74,-16.04 10.85,-33.71 7.9,-51.1 9.54,5.57 22.09,-2.74 22.72,-13.22 5.13,3.23 10.04,7.08 15.84,9.09 4.2,1.32 8.49,-0.86 11.2,-4.04 5.09,-5.64 12.1,-9.25 16.58,-15.47 7.43,-10.8 11.29,-23.74 11.99,-36.78 4.6,5.51 8.66,12.11 15.72,14.77 6.89,2.52 14.15,4.48 21.52,4.71 4.08,0.18 7.63,-2.35 9.55,-5.83 12.91,7.77 27.11,14.67 42.49,15 3.48,0.17 7.04,-1.7 8.7,-4.82 1.71,-2.93 1.79,-6.43 1.72,-9.73 -0.24,-7.69 -2.21,-15.25 -5.17,-22.32 1.57,-1.45 2.22,-3.46 2.34,-5.55 0.22,-4.05 2.86,-7.34 3.67,-11.23 0.98,-6.84 2.09,-14.37 -1.78,-20.56 22.82,15.22 48.48,25.57 74.56,33.72 17.56,5.49 34.97,11.63 52.97,15.58 2.13,0.34 3.08,2.5 4.33,4.03 7.72,11.1 16.95,21.01 25.8,31.2 12,13.7 22.37,28.79 35.16,41.8 z m 136.79,-242.77 c 31.32,-4.36 62.14,-11.58 93.15,-17.63 -13.12,10.14 -27.58,18.37 -41.6,27.17 -18.13,10.59 -36.29,21.31 -55.78,29.2 -11.56,4.61 -23.18,9.04 -34.95,13.07 -3.5,1.27 -7.29,0.68 -10.9,0.89 -20.03,-0.04 -39.88,4.4 -59.93,2.8 10.68,1.03 21.38,2.22 31.88,4.55 23.48,5.09 47.28,8.45 71.09,11.59 9.63,1.24 19.24,2.78 28.96,3.38 -8.84,7.16 -17.73,14.27 -26.16,21.91 -12.33,10.21 -25.97,18.88 -40.59,25.42 -6.39,2.77 -12.78,5.54 -19.21,8.21 -4.44,2.11 -9.43,0.39 -14.09,0.28 -26.36,-1.97 -52.05,-8.46 -77.91,-13.49 21.7,4.99 43.08,11.48 63.95,19.27 10.36,3.62 20.64,7.64 31.44,9.83 -6.9,4.27 -14.01,8.13 -21.31,11.65 -5.65,2.6 -10.31,7.03 -16.06,9.33 -22.72,0.07 -44.65,-6.67 -66.66,-11.4 -15.75,-3.55 -31.92,-5.07 -47.5,-9.43 -2.71,-0.57 -4.9,-2.39 -6.92,-4.12 l 0.43,3.09 c -0.98,-1.03 -1.48,-2.29 -0.74,-3.64 l -1.49,-0.83 c 0.26,0.81 0.78,2.44 1.04,3.26 -13.8,-4.21 -27.55,-8.59 -41.3,-12.96 -24.81,-8.37 -49.06,-18.27 -73.87,-26.64 -7.13,-2 -12.41,-7.55 -19.02,-10.66 -3.46,-1.54 -7.27,-5.08 -11.2,-3.13 -2.11,3.08 1.02,6.1 3.09,8.16 7.67,7.37 14.56,15.62 19.69,24.97 0.62,4.01 -0.15,8.13 0.17,12.19 -5.91,-5.81 -12.12,-11.41 -19.2,-15.76 -7.88,-4.22 -13.3,-11.64 -20.77,-16.45 5.64,6.88 9.73,14.89 15.68,21.53 3.6,4.06 6.78,8.49 10.58,12.38 4.53,4.61 8.41,9.98 10.84,16 2.88,7.01 1.52,14.74 2.46,22.09 -8.25,-0.53 -15.8,-4.19 -23.45,-6.97 -8.04,-2.92 -15.81,-6.94 -22.05,-12.87 -10.12,-9.62 -19.52,-20.05 -27.49,-31.53 -1.52,-2.05 -2.74,-4.49 -5.1,-5.68 1.93,5.61 5.06,10.72 7.86,15.94 6.13,10.55 12.47,21 19.24,31.15 -6.38,-1.18 -13.68,-1.97 -18.27,-7.09 -5.28,-5.43 -11.45,-9.88 -17.12,-14.87 -4.36,-2.83 -8.47,-6.02 -11.62,-10.2 3.17,4.46 6.38,10.16 4,15.69 -0.96,7.42 -4.25,14.17 -6.59,21.19 -1.86,5.46 -4.77,10.44 -7.62,15.42 -3.7,6.65 -10.83,10.12 -15.97,15.46 -7.07,-4.41 -14.49,-8.29 -22.31,-11.18 -3.34,-1.18 -6.51,-2.84 -9.15,-5.18 -2.62,-2.31 -5.66,-4.62 -6.54,-8.18 -1.8,-7.01 -4.68,-14.08 -10.04,-19.14 3.13,6.49 4.53,13.59 6.23,20.54 1.38,5.69 7.45,8.16 9.88,13.24 1.86,3.68 4.34,6.96 6.71,10.32 -0.85,3.04 -3.44,5.33 -5.88,7.18 -2.56,1.62 -4.27,-2.08 -6.14,-3.26 -5.77,-6.17 -15.13,-7.53 -19.88,-14.8 1.29,2.57 2.64,5.15 3.45,7.94 -2.69,5.03 -0.43,10.51 -0.01,15.79 1.3,12.71 0.84,25.73 -2.49,38.12 -4.33,15.08 -10.09,29.81 -17.83,43.49 -3.22,5.46 -4.93,11.6 -7.62,17.3 -2.06,0.38 -3.42,-1.65 -5.01,-2.54 -11.55,-8.16 -23.62,-16.26 -31.93,-27.95 -6.64,-9.29 -13.54,-18.4 -19.97,-27.84 -4.41,-6.61 -8.37,-13.51 -12.45,-20.33 4.77,9.12 9.81,18.12 13.64,27.7 3.82,9.85 8.21,19.5 12.21,29.27 -0.87,11.32 0.32,22.78 -1.7,34.02 -1.53,8.17 -2.3,16.49 -4.56,24.51 -5.17,-4.41 -10.81,-8.21 -16.19,-12.33 -11.26,-9.64 -23.41,-19.27 -29.6,-33.17 3.84,9.46 8.86,18.4 12.6,27.92 -1.1,1.76 -2.1,3.67 -2.01,5.82 -0.38,8.36 0.13,16.8 -1.51,25.06 -1.9,9.42 -4.75,18.62 -6.91,27.98 -5.91,-4.04 -11.18,-8.96 -15.83,-14.38 -5.76,-6.21 -8.76,-14.29 -13.86,-20.98 -5.25,-6.83 -9.09,-14.57 -12.36,-22.5 3.26,8.6 4.55,17.73 5.35,26.85 0.72,8.41 4.31,16.29 9.79,22.67 -2.95,12.81 -4.62,26.25 -10.88,38 -7.42,-5.46 -13.36,-12.62 -20.59,-18.31 -6.77,-5.21 -11.88,-12.12 -18,-18 -5.57,-5.39 -9.69,-12.1 -12.69,-19.2 2.63,7.44 5.38,14.92 6.42,22.79 0.6,5.1 2.37,10 5.19,14.3 -1.72,7.04 -3.21,14.27 -6.74,20.68 -6.16,11.13005 -12.55,22.22005 -20.51,32.19005 -7.6,-5.14 -14.13,-11.72 -21.98,-16.5 -7.48,-4.45 -12.86,-11.59005 -16.72,-19.25005 -7.52,-15.33 -12.65,-31.65 -18.15,-47.77 -3.68,-10.99 -6.8,-22.17 -9.41,-33.46 1.84,9.73 4.32,19.34 6.16,29.08 3.32,18.89 6.64,37.85 12.08,56.26 2.64,5.28005 0.54,11.13005 -0.36,16.58005 -1.19,5.24 -2.62,11.39 -7.59,14.34 -3.26,0.91 -6.82,0.83 -10.06,-0.05 -4.26,-1.6 -5.63,-6.46 -7.07,-10.31 -5.34,-17.67005 -16.15,-33.11005 -21.11,-50.91005 5.88,19.18 7.91,39.37005 15.04,58.19005 -2.34,0.87 -4.63,2.51 -7.22,2.08 -5.64,-1.01 -11.3,-1.89 -16.98,-2.49 -6.47,-0.63 -11.72,4.92 -18.24,3.85 -2.9,0.26 -4.68,-2.27 -6.21,-4.28 -7.11,-9.62 -12.44,-20.38 -18.18,-30.84005 -5.79,-10.52 -10.31,-21.75 -13.28,-33.39 2.49,11.42 5.39,22.77 6.99,34.36 1.67,12.01005 4.13,23.99005 8.67,35.27005 -4.66,2.5 -9.21,6.14 -14.79,5.88 -5.41,-0.16 -10.78,-0.91 -16.18,-1.05 -3.72,-5.22 -8.45,-9.51 -13.47,-13.43 3.27,-11.6 6.45,-23.30005 7.8,-35.30005 0.96,-11.6 1.55,-23.27 0.77,-34.89 -0.6,-15.42 1.54,-30.77 1.84,-46.18 8.77,-0.95 17.58,1.63 26.29,-0.05 3.5,-0.42 5.32,-4.28 8.84,-4.54 7.04,-1.25 14,-4.09 19.39,-8.87 3.5,-2.88 3.36,-8.43 7.79,-10.4 3.13,3.25 5.2,8.27 10.2,9.01 9.04,1.76 17.63,-3.59 23.03,-10.46 4.46,-1.12 8.91,-3.12 11.12,-7.45 4.02,1.05 8.2,2.54 12.41,1.58 2.67,-0.63 3.97,-3.2 5.47,-5.23 1.97,-2.93 4.84,-5.1 6.92,-7.95 2.49,-3.48 4.45,-7.31 6.19,-11.21 2.64,3.29 5.2,6.94 8.93,9.09 5.68,1.66 10.46,-3.02 14.72,-6.07 8.46,-7.27 17.37,-14.9 21.89,-25.38 1.72,-3.7 2.44,-7.76 2.69,-11.81 1.41,0.42 2.82,0.88 4.33,1.18 2.62,-0.11 4.69,-2.01 6.26,-3.95 3.23,-3.79 4.25,-8.92 7.45,-12.75 4.39,-5.63 7.09,-12.84 5.59,-20.02 20.39,-5.08 40.6,-10.85 60.56,-17.4 13.32,-4.47 26.89,-8.18 40.19,-12.72 32.75,-10.43 65.36,-21.43 98.7,-29.88 13.28,-3.2 26.33,-7.27 39.39,-11.27 19.41,-6.28 38.31,-13.98 57.04,-22.05 7.14,-3.07 13.97,-6.81 21.08,-9.95 8.04,-3.85 16.58,-6.53 24.66,-10.29 12.39,-5.7 23.67,-13.56 36.3,-18.78 24.83,-11.58 48.08,-26.38 69.77,-43.08 7.12,-5.45 13.86,-11.38 20.43,-17.47 8.14,-0.29 16.32,0.18 24.48,-0.29 -6.79,0.86 -13.57,1.79 -20.39,2.19 16.09,1.34 32.28,1.92 48.42,2.96 14.38,0.89 28.79,-0.11 43.1,-1.68 28.29,-2.64 56.68,-4.55 84.78,-8.94 21.95,-3.66 44.23,-4.73 66.24,-7.99 z m 200.26,-180.54 c -13.42,13.93 -26.42,28.26 -40.35,41.68 -11.51,11.69 -25.12,20.94 -37.85,31.19 -8.11,6.23 -16.59,11.96 -24.63,18.27 -5.18,3.93 -10.52,7.64 -16.14,10.9 -17.87,10.84 -36.29,20.82 -55.46,29.18 -18.92,8.43 -38.51,15.17 -57.86,22.51 -13.78,5.16 -27.74,9.86 -41.71,14.47 -10.08,3.69 -20.86,4.56 -31.36,6.34 -19.92,2.76 -39.97,4.44 -59.92,6.85 -12.03,1.33 -23.94,3.53 -35.94,5.01 -13.9,1.62 -27.85,2.74 -41.8,3.63 8.94,-9.8 17.18,-20.21 26,-30.12 10.2,-11.89 20.29,-23.94 29.1,-36.92 13.58,-2.8 27.2,-5.51 40.55,-9.31 22.91,-6.7 45.77,-13.57 68.59,-20.58 18.94,-6.1 37.77,-12.59 56.48,-19.41 21.8,-7.87 43.1,-17.05 65.02,-24.61 38.53,-12.98 76.51,-27.87 112.74,-46.38 19.5,-9.59 38.67,-19.87 58.49,-28.79 8.55,-3.99 17.16,-7.85 25.55,-12.19 -13.58,12.33 -27.23,24.64 -39.5,38.28 z"
       id="svg_1"
       class=""
       inkscape:connector-curvature="0"
       style="fill:#6067f1;fill-opacity:1;stroke:none" />
    <path
       d="m 1406.3,806.54 c 6.52,-3.18 13.17,-6.11 20.07,-8.42 -3.63,0.74 -7.29,1.32 -10.87,2.2 -3.75,0.83 -6.44,3.79 -9.2,6.22 z"
       id="svg_2"
       class=""
       inkscape:connector-curvature="0"
       style="fill:#6067f1;fill-opacity:1" />
    <path
       d="m 1385.5,834.93 c -4.31,4.54 -5.4,10.86 -7.72,16.44 -1.68,4.99 -3.74,9.84 -5.21,14.9 4.23,-2.57 5,-7.78 7.72,-11.53 1.78,-1.22 3.9,-2 5.45,-3.57 2.6,-2.69 1.69,-7.52 5.1,-9.59 -0.12,-0.42 -0.34,-1.26 -0.45,-1.68 l 1.64,0.69 c 3.35,-4.88 5.57,-10.63 10.25,-14.5 -5.24,3.7 -12.51,3.72 -16.78,8.84 z"
       id="svg_3"
       class=""
       inkscape:connector-curvature="0"
       style="fill:#6067f1;fill-opacity:1" />
    <path
       d="m 1437.3,857.13 c 2.12,0.6 2.62,-3.61 0.29,-3.07 -1.54,0.22 -1.91,2.63 -0.29,3.07 z"
       id="svg_4"
       class=""
       inkscape:connector-curvature="0"
       style="fill:#6067f1;fill-opacity:1" />
    <path
       d="m 1434,868.19 c -0.25,1.27 -0.46,2.55 -0.64,3.84 1.86,-0.19 3.59,-0.88 4.94,-2.22 -1.3,-0.88 -2.76,-1.43 -4.3,-1.62 z"
       id="svg_5"
       class=""
       inkscape:connector-curvature="0"
       style="fill:#6067f1;fill-opacity:1" />
    <path
       d="m 1407.5,884.45 c 3.72,0.64 7.34,-1.19 9.9,-3.81 -4.06,-1.73 -8.15,0.11 -11.85,1.77 -1.12,-0.58 -2.25,-1.12 -3.37,-1.63 1.48,1.56 3.12,3.18 5.32,3.67 z"
       id="svg_6"
       class=""
       inkscape:connector-curvature="0"
       style="fill:#6067f1;fill-opacity:1" />
    <path
       d="m 1360.8,918.08 c -1.38,0.99 -3.47,3.25 -1.19,4.64 2.08,0.2 2.84,-1.52 2.56,-3.37 3.17,-0.19 5.25,-3.08 6.76,-5.57 -3.2,-2.28 -7.95,0.48 -8.13,4.3 z"
       id="svg_7"
       class=""
       inkscape:connector-curvature="0"
       style="fill:#6067f1;fill-opacity:1" />
    <path
       d="m 1434.3,972.84 c 0.89,-3.38 0.15,-6.86 -0.37,-10.21 -1.11,3.37 -0.89,6.9 0.37,10.21 z"
       id="svg_8"
       class=""
       inkscape:connector-curvature="0"
       style="fill:#6067f1;fill-opacity:1" />
    <path
       d="m 1554.2,1188.7 c 2.86,1.32 5.3,-1.23 7.8,-2.24 -5.24,-1.02 -10.24,-3.17 -15.64,-3.33 2.47,2.01 4.72,4.55 7.84,5.57 z"
       id="svg_9"
       class=""
       inkscape:connector-curvature="0"
       style="fill:#6067f1;fill-opacity:1" />
    <path
       d="m 1527.8,1353.3 c -14.34,-3.65 -26.73,-12.57 -37.33,-22.59 2.29,0.12 4.62,0.43 6.9,0.8 -4.26,-1.93 -9.48,-2.29 -12.7,-6.01 -9.55,-9.37 -19.09,-18.78 -28.02,-28.75 -2.86,-3.37 -6.89,-6.39 -6.82,-11.26 -1.94,2.94 -1.14,6.47 0.68,9.26 7.83,13.24 18.11,24.81 28.58,36.01 -2.89,2.52 -5.89,5.47 -5.94,9.6 2.61,-2.6 5.52,-4.88 8.74,-6.68 9.97,10.19 21.16,19.66 34.47,25.13 8.35,3.4 18.01,4.91 26.62,1.57 6.93,-2.39 11.98,-7.91 17.46,-12.49 -9.64,5.85 -21.63,8.17 -32.64,5.41 z"
       id="svg_10"
       class=""
       inkscape:connector-curvature="0"
       style="fill:#6067f1;fill-opacity:1" />
    <path
       d="m 1569.4,1337.7 c -5.66,3 -11.71,5.12 -17.89,6.71 3.07,-0.59 6.18,-0.92 9.28,-1.45 5.11,-0.92 9.15,-4.57 14.15,-5.83 2.51,-0.5 5.1,-0.5 7.67,-0.81 -4.44,-0.63 -9.17,-0.81 -13.21,1.38 z"
       id="svg_11"
       class=""
       inkscape:connector-curvature="0"
       style="fill:#6067f1;fill-opacity:1" />
    <path
       d="m 1471.7,1376.2 c -1.7,3.01 -2.79,6.37 -4.78,9.25 4.07,0.46 7.23,-3.85 7.27,-7.57 -0.02,-1.5 -1.31,-1.74 -2.49,-1.68 z"
       id="svg_12"
       class=""
       inkscape:connector-curvature="0"
       style="fill:#6067f1;fill-opacity:1" />
    <path
       d="m 1625,1385.1 c -1.79,-2.95 -2.96,-6.24 -4.64,-9.2 -1.11,-1.94 -2.84,0.73 -2.71,1.9 0.52,3.66 3.4,7.21 7.35,7.3 z"
       id="svg_13"
       class=""
       inkscape:connector-curvature="0"
       style="fill:#6067f1;fill-opacity:1" />
    <path
       d="m 1478.3,1478.4 c -4.55,1.4 -8.13,-2.75 -10.37,-6.1 -3.83,-6.33 -6.97,-13.08 -9.51,-20.01 -0.87,3.63 1.01,7.16 2,10.6 2.45,6.61 4.62,14.01 10.47,18.51 4.93,3.84 12.64,2.02 16.11,-2.95 2.15,-3.23 3.27,-6.99 4.47,-10.64 -2.72,5.18 -7.8,8.63 -13.17,10.59 z"
       id="svg_14"
       class=""
       inkscape:connector-curvature="0"
       style="fill:#6067f1;fill-opacity:1" />
    <path
       d="m 1589.6,1587.6 c 0.54,-0.22 1.6,-0.66 2.14,-0.88 0.77,-11.71 -1.63,-23.17 -2.99,-34.73 0.43,11.86 1.44,23.73 0.85,35.61 z"
       id="svg_15"
       class=""
       inkscape:connector-curvature="0"
       style="fill:#6067f1;fill-opacity:1" />
  </g>
</svg>
